<svg xmlns="http://www.w3.org/2000/svg" xmlns:xlink="http://www.w3.org/1999/xlink" width="13" height="13" viewBox="0 0 13 13" fill="none"><path id="圆形 1" fill-rule="evenodd" style="fill:#323232" opacity="1" d="M6.5 0.5C3.19 0.5 0.5 3.19 0.5 6.5C0.5 9.81 3.19 12.5 6.5 12.5C9.81 12.5 12.5 9.81 12.5 6.5C12.5 3.19 9.81 0.5 6.5 0.5Z"></path><path  id="圆形 1" style="fill:#5A5A5A; opacity:1;" d="M6.5,1c-3.03757,0 -5.5,2.46243 -5.5,5.5c0,3.03757 2.46243,5.5 5.5,5.5c3.03757,0 5.5,-2.46243 5.5,-5.5c0,-3.03757 -2.46243,-5.5 -5.5,-5.5zM6.5,0c3.5899,0 6.5,2.91015 6.5,6.5c0,3.5899 -2.9101,6.5 -6.5,6.5c-3.58985,0 -6.5,-2.9101 -6.5,-6.5c0,-3.58985 2.91015,-6.5 6.5,-6.5z"></path></svg>