<svg xmlns="http://www.w3.org/2000/svg" xmlns:xlink="http://www.w3.org/1999/xlink" width="22.97265625" height="15.336807250976562" viewBox="0 0 22.97265625 15.336807250976562" fill="none"><g opacity="1"  transform="translate(0 0)  rotate(0)"><path id="Vector (轮廓)" fill-rule="evenodd" style="fill:#5F6368" opacity="1" d="M2.69437 15.3368L20.2344 15.3368C21.2044 15.3368 21.9844 14.5568 21.9844 13.5868L21.9844 13.5868C21.9844 12.6168 21.2044 11.8368 20.2344 11.8368L2.69437 11.8368C1.72437 11.8368 0.944366 12.6168 0.944366 13.5868L0.944366 13.5868C0.944366 14.5568 1.72437 15.3368 2.69437 15.3368Z"></path><path id="Vector (轮廓)" fill-rule="evenodd" style="fill:#5F6368" opacity="1" d="M0.802692 8.52L0.802692 8.52C1.24269 9.22 2.17269 9.43 2.87269 8.99L11.4827 3.55L20.1027 8.99C20.8027 9.43 21.7327 9.22 22.1727 8.52L22.1727 8.52C22.6127 7.82 22.4027 6.9 21.7027 6.46L11.4827 -8.60818e-07L1.27269 6.45C0.572693 6.89 0.362692 7.82 0.802692 8.52Z"></path></g></svg>
