<svg xmlns="http://www.w3.org/2000/svg" xmlns:xlink="http://www.w3.org/1999/xlink" width="22.39990234375" height="15.336669921875" viewBox="0 0 22.39990234375 15.336669921875" fill="none"><g opacity="1"  transform="translate(0 0)  rotate(0)"><path id="Vector (轮廓)" fill-rule="evenodd" style="fill:#5F6368" opacity="1" d="M20.2783 -7.15256e-07L2.73828 0C1.76828 0 0.988281 0.78 0.988281 1.75L0.988281 1.75C0.988281 2.72 1.76828 3.5 2.73828 3.5L20.2783 3.5C21.2483 3.5 22.0283 2.72 22.0283 1.75L22.0283 1.75C22.0283 0.779999 21.2483 -7.15256e-07 20.2783 -7.15256e-07Z"></path><path id="Vector (轮廓)" fill-rule="evenodd" style="fill:#5F6368" opacity="1" d="M22.17 6.81667L22.17 6.81667C21.73 6.11667 20.8 5.90667 20.1 6.34667L11.49 11.7867L2.87 6.34667C2.17 5.90667 1.24 6.11667 0.799999 6.81667L0.799999 6.81667C0.359999 7.51667 0.569999 8.43667 1.27 8.87667L11.49 15.3367L21.7 8.88667C22.4 8.44667 22.61 7.51667 22.17 6.81667Z"></path></g></svg>
