<svg xmlns="http://www.w3.org/2000/svg" xmlns:xlink="http://www.w3.org/1999/xlink" width="314.06005859375" height="37.709991455078125" viewBox="0 0 314.06005859375 37.709991455078125" fill="none"><g opacity="1"  transform="translate(0 0)  rotate(0)"><mask id="bg-mask-0" fill="white"><use transform="translate(0 0)  rotate(0)" xlink:href="#path_0"></use></mask><g mask="url(#bg-mask-0)" ><path id="路径 3" fill-rule="evenodd" style="fill:#E3E3E3" opacity="1" d="M83.0998,9.42001h-0.03c0,0 4.71,1.15999 4.84,4.76999v23.51h-4.51v-12.45h-21.61v12.45h-4.53v-25.22c0.99,-1.81 2.86,-2.96999 4.92,-3.05999zM83.4498,16.05c0.02,-1.5 -1.08,-2.78 -2.56,-3h-16c-2.69,0.05 -3.27,2.87 -3.27,2.87v5.5h21.81z"></path><path id="路径 4" fill-rule="evenodd" style="fill:#E3E3E3" opacity="1" d="M120.27,9.42001v3.62999h-20.6902c-3.56,0 -3.56,2.57 -3.56,2.57v15c0,3.35 3.43,3.42 3.43,3.42h20.8302v3.66h-24.6202c-3.33,0 -4.61,-3.93 -4.61,-3.93v-18.79c0,-4.81 5,-5.55999 5,-5.55999z"></path><path id="路径 5" fill-rule="evenodd" style="fill:#E3E3E3" opacity="1" d="M155.75,23.93l0.04,0.05c0,0 -1.08,2.79 -2.38,3.19c1.07,0.7 1.69,1.91 1.63,3.19v7.38h-4.68v-6.7c-0.56,-1.45 -1.91,-2.46 -3.46,-2.58h-18.51v9.28h-4.35v-24.82c0,0 1.36,-3.46001 4.14,-3.46001h23.09c0,0 4.48,1.28001 4.48,4.47001zM151.41,20.68zM151.37,16.22c0,0 -0.28,-3 -4.75,-3h-14.72c0,0 -3.72,-0.2 -3.72,4v7.4h20.11c0,0 3.12,-1.02 3.12,-3.94z"></path><path id="路径 6" fill-rule="evenodd" style="fill:#E3E3E3" opacity="1" d="M192.86,32.07v0.03c0,0 0.47,5.63 -6.18,5.63h-22.28c0,0 -5.9,0.11 -5.9,-5.89v-18.6c0,0 1.02,-3.78999 4.88,-3.78999h25c0,0 4.48,0.3 4.48,5.99999zM188.38,17.07zM188.38,17.02c0,0 0.41,-3.8 -4.28,-3.8h-17.16c0,0 -4.14,-0.13 -4.14,2.51v14.9c0,0 0.2,3.53 4.75,3.53h17.5c0,0 3.33,-0.14 3.33,-4v-13.09z"></path><path id="路径 7" fill-rule="evenodd" style="fill:#E3E3E3" opacity="1" d="M195.37,9.42001zM195.37,9.42001h4.54l9.76,20.41999l9.64,-20.41999h4.27v3.78999l-11.94,24.49h-3.46l-12.81,-24.49z"></path><path id="路径 8" fill-rule="evenodd" style="fill:#E3E3E3" opacity="1" d="M227.11 37.71L231.45 37.71L231.45 9.42001L227.11 9.42001L227.11 37.71Z"></path><path id="路径 9" fill-rule="evenodd" style="fill:#E3E3E3" opacity="1" d="M263.456,9.41591v3.86999h-19.4c-3.32,0 -5.35,0.2 -5.35,3.59v4.41h24.21v3.94h-24.21v5.77c0,2 1.15,3.18 5.09,3.18h19.66v3.52h-23.94c-2,0 -5.16,-1.55 -5.16,-5.89v-17.24c-0.05,-1.41 0.49,-2.78 1.49,-3.78c1,-0.99999 2.37,-1.52999 3.78,-1.47999c3.82,0.05 23.83,0.11 23.83,0.11z"></path><path id="路径 10" fill-rule="evenodd" style="fill:#E3E3E3" opacity="1" d="M266.45,9.35999h4.88v20.32001c0,3.19 1.37,4.55 3.33,4.55h9.9c1.08,-0.08 2.08,-0.6 2.77,-1.43c0.69,-0.83 1.01,-1.91 0.9,-2.98v-20.46001h4.54v19.38001c0,3.86 0.54,5.49 3.6,5.49h9.69c2.1,0 3.53,-1.09 3.53,-4.88v-19.99001h4.47v24.26001c0,1.7 -2.09,4.13 -6.23,4.13h-16.08l-1.49,-1.42l-1.7,1.42h-17.09c-2.51,0 -5,-2.1 -5,-6.24z"></path><path id="路径 1" fill-rule="evenodd" style="fill:#E60012" opacity="1" d="M20.1798,15.57zM22.9798,10.87l-2.8,4.7h-6.61l9.43,-15.57l23,38h-6.55z"></path><path id="路径 2" fill-rule="evenodd" style="fill:#E60012" opacity="1" d="M29.38,32.47zM9.93,32.47h19.45l3.27,5.53h-32.65l10.17,-16.81h12.4l3.4,5.57h-12.69z"></path></g></g><defs><rect id="path_0" x="0" y="0" width="314.06" height="37.71" /></defs></svg>
