<?xml version="1.0" standalone="no"?><!DOCTYPE svg PUBLIC "-//W3C//DTD SVG 1.1//EN" "http://www.w3.org/Graphics/SVG/1.1/DTD/svg11.dtd"><svg t="1724490235728" class="icon" viewBox="0 0 1024 1024" version="1.1" xmlns="http://www.w3.org/2000/svg" p-id="1126" xmlns:xlink="http://www.w3.org/1999/xlink" width="200" height="200"><path d="M761.631841 935.077341c-120.87924 0-219.064677-98.185436-219.064677-219.064677s98.185436-219.064677 219.064677-219.064677 219.064677 98.185436 219.064676 219.064677-97.722298 219.064677-219.064676 219.064677z m0-381.163275c-89.385798 0-162.561737 72.7128-162.561737 162.561737 0 89.385798 72.7128 162.561737 162.561737 162.561737 89.385798 0 162.561737-72.7128 162.561737-162.561737s-73.175938-162.561737-162.561737-162.561737z" p-id="1127" fill="#f5422b"></path><path d="M223.464496 813.271823c-65.302578 0-119.026685-53.260968-119.026685-119.026685 0-65.302578 53.260968-119.026685 119.026685-119.026685H549.514247c13.431027-21.304387 29.640886-40.756219 48.16644-56.966079H223.464496c-42.608774 0-81.512438 15.283582-112.079602 40.756219l18.062415-284.367254V273.251922c0-54.187246 43.998191-97.722298 97.722298-97.722297h433.034825c54.187246 0 97.722298 43.998191 97.722298 97.722297v0.926278l11.578471 181.55043c19.914971 0.463139 38.903664 2.778833 57.429218 7.87336l-11.578471-191.276345c-0.463139-84.75441-69.933967-153.762099-154.688377-153.762099H227.169607C141.952058 118.100407 72.944369 187.108096 72.48123 271.862506l-26.398914 420.066938h1.852555v1.852555c0 97.259159 78.733605 175.992763 175.992764 175.992764h345.501583c-14.357304-17.136137-25.935776-36.12483-35.198553-56.966079l-310.766169 0.463139z" p-id="1128" fill="#f5422b"></path><path d="M594.438716 320.955224H292.009046c-15.746721 0-28.25147-12.504749-28.25147-28.25147S276.262325 263.989145 292.009046 263.989145h302.892808c15.746721 0 28.25147 12.504749 28.25147 28.25147s-12.967888 28.714609-28.714608 28.714609z" p-id="1129" fill="#f5422b"></path><path d="M206.791497 698.876526m-33.345997 0a33.345997 33.345997 0 1 0 66.691994 0 33.345997 33.345997 0 1 0-66.691994 0Z" p-id="1130" fill="#f5422b"></path><path d="M329.060154 698.876526m-33.345998 0a33.345997 33.345997 0 1 0 66.691995 0 33.345997 33.345997 0 1 0-66.691995 0Z" p-id="1131" fill="#f5422b"></path><path d="M801.461782 716.012664L850.5545 666.919946c11.115332-11.115332 11.115332-29.177748 0-40.29308-11.115332-11.115332-29.177748-11.115332-40.29308 0L760.705563 676.182723l-47.703302-46.313885c-11.578471-11.115332-29.177748-11.115332-40.29308 0.463138s-11.115332 29.177748 0.463139 40.293081l47.240163 45.850746-47.240163 47.703301c-11.115332 11.115332-11.115332 29.177748 0 40.293081 5.557666 5.557666 12.967888 8.336499 20.37811 8.336499 7.410222 0 14.820443-2.778833 19.91497-8.336499l47.703302-47.703302 49.092718 48.16644c5.557666 5.094527 12.504749 8.336499 19.914971 8.3365s14.820443-2.778833 20.378109-8.3365c11.115332-11.578471 11.115332-29.177748-0.463139-40.29308l-48.629579-48.629579z" p-id="1132" fill="#f5422b"></path></svg>