<svg xmlns="http://www.w3.org/2000/svg" xmlns:xlink="http://www.w3.org/1999/xlink" width="16" height="16" viewBox="0 0 16 16" fill="none"><g opacity="1"  transform="translate(0 0)  rotate(0)"><mask id="bg-mask-0" fill="white"><use transform="translate(0 0)  rotate(0)" xlink:href="#path_0"></use></mask><g mask="url(#bg-mask-0)" ><g opacity="1"  transform="translate(0 0)  rotate(0)"><g opacity="1"  transform="translate(0 0)  rotate(0)"><path id="路径 1" fill-rule="evenodd" style="fill:#01EF01" opacity="1" d="M8,0c4.42,0 8,3.58 8,8c0,4.42 -3.58,8 -8,8c-4.42,0 -8,-3.58 -8,-8c0,-4.42 3.58,-8 8,-8zM12.73,4.8c-0.42,-0.43 -1.12,-0.44 -1.55,-0.02l-4.58,4.48l-1.83,-1.55c-0.46,-0.39 -1.16,-0.34 -1.55,0.12c-0.39,0.47 -0.34,1.16 0.13,1.56l3.35,2.84l6.01,-5.87c0.44,-0.43 0.45,-1.12 0.02,-1.56z"></path></g></g></g></g><defs><rect id="path_0" x="0" y="0" width="16" height="16" /></defs></svg>
