<svg xmlns="http://www.w3.org/2000/svg" xmlns:xlink="http://www.w3.org/1999/xlink" width="17" height="10" viewBox="0 0 17 10" fill="none"><g opacity="1"  transform="translate(0 0)  rotate(0)"><mask id="bg-mask-0" fill="white"><use transform="translate(0 0)  rotate(0)" xlink:href="#path_0"></use></mask><g mask="url(#bg-mask-0)" ><g opacity="1"  transform="translate(-0.00048828125 0)  rotate(0)"><g opacity="1"  transform="translate(0 0)  rotate(0)"><path id="路径 1" fill-rule="evenodd" style="fill:#5E6267" opacity="1" d="M14.207 8.51281C12.557 8.51281 10.897 8.51281 9.24703 8.52281C9.08703 8.52281 8.81703 8.59282 8.77703 8.68281C8.69703 8.93281 8.68703 9.18281 8.73703 9.43281C8.78703 9.68281 9.03703 9.68281 9.26703 9.68281C10.987 9.68281 12.717 9.68281 14.447 9.68281C15.327 9.68281 15.797 9.22281 15.797 8.36281C15.797 7.90281 15.797 7.44281 15.797 6.95282C15.937 6.95282 16.047 6.95282 16.157 6.95282C16.637 6.94281 16.977 6.64282 16.987 6.17281C16.997 5.39282 16.997 4.61281 16.987 3.83281C16.977 3.37281 16.637 3.07281 16.157 3.05281C16.037 3.05281 15.927 3.04281 15.797 3.03281C15.797 2.49282 15.807 1.97281 15.797 1.46281C15.787 0.852815 15.297 0.352815 14.677 0.332815C13.287 0.312815 11.907 0.322815 10.517 0.332815C10.387 0.332815 10.167 0.432815 10.147 0.512815C10.087 0.762815 10.087 1.02281 10.127 1.27281C10.177 1.50281 10.437 1.49281 10.637 1.49281L14.607 1.49281L14.607 8.51281L14.207 8.51281Z"></path><path id="路径 2" fill-rule="evenodd" style="fill:#5E6267" opacity="1" d="M1.61 1.48706C3.26 1.48706 4.9 1.48706 6.55 1.48706C7.01 1.48706 7.11 1.37706 7.11 0.887062C7.1 0.437062 6.99 0.317062 6.55 0.317062C4.79 0.317062 3.03 0.317062 1.26 0.327062C0.5 0.327062 0.01 0.787062 0.01 1.52706C0 3.83706 0 6.13706 0.01 8.44706C0.01 9.21706 0.5 9.67706 1.28 9.67706C2.57 9.67706 3.86 9.67706 5.15 9.67706C5.61 9.67706 5.73 9.56706 5.73 9.08706C5.73 8.61706 5.62 8.50706 5.15 8.50706L1.57 8.50706C1.44 8.50706 1.32 8.49706 1.2 8.48706L1.2 1.48706L1.61 1.48706Z"></path><path id="路径 3" fill-rule="evenodd" style="fill:#5E6267" opacity="1" d="M7.03414 6.78C6.90414 7.75 6.75414 8.71 6.63414 9.68C6.62414 9.79 6.71414 9.89 6.75414 10C6.84414 9.94 6.98414 9.9 7.03414 9.81C8.01414 8.07 8.99414 6.34 9.96414 4.6C10.1341 4.31 10.0641 4.2 9.72414 4.2C9.36414 4.2 9.00414 4.2 8.61414 4.2C8.80414 2.89 8.99414 1.64 9.16414 0.38C9.18414 0.26 9.09414 0.13 9.05414 0C8.95414 0.07 8.80414 0.12 8.75414 0.21C7.77414 1.93 6.80414 3.66 5.83414 5.39C5.66414 5.69 5.73414 5.8 6.09414 5.8C6.43414 5.8 6.77414 5.8 7.16414 5.8C7.12414 6.16 7.08414 6.47 7.03414 6.78Z"></path></g></g></g></g><defs><rect id="path_0" x="0" y="0" width="17" height="10" /></defs></svg>
