<?xml version="1.0" standalone="no"?><!DOCTYPE svg PUBLIC "-//W3C//DTD SVG 1.1//EN" "http://www.w3.org/Graphics/SVG/1.1/DTD/svg11.dtd"><svg t="1724490214060" class="icon" viewBox="0 0 1024 1024" version="1.1" xmlns="http://www.w3.org/2000/svg" p-id="849" xmlns:xlink="http://www.w3.org/1999/xlink" width="200" height="200"><path d="M766.263229 489.537766c-122.268657 0-221.84351 99.574853-221.843509 221.843509s99.574853 221.84351 221.843509 221.84351 221.84351-99.574853 221.84351-221.84351-99.574853-221.84351-221.84351-221.843509z m0 386.257802c-90.775215 0-164.414292-73.639077-164.414292-164.414293s73.639077-164.414292 164.414292-164.414292 164.414292 73.639077 164.414292 164.414292-73.639077 164.414292-164.414292 164.414293z" p-id="850" fill="#64eb6d"></path><path d="M218.833107 816.513795c-66.228856 0.463139-120.416101-53.260968-120.416101-119.952963 0-66.228856 53.724107-120.416101 120.416101-120.416101h329.754862c13.431027-21.304387 30.104025-41.219358 49.092718-57.429218H218.833107c-43.071913 0-82.438716 15.746721-113.469018 41.219358L123.426504 272.325645v-1.852556C123.426504 215.822705 167.887834 171.361375 222.538218 171.361375H660.667571c54.650384 0 99.111714 44.46133 99.111714 99.111714v0.926278l11.578472 183.866124c19.914971 0.463139 39.366802 2.778833 57.892356 7.87336l-12.04161-193.59204c-0.463139-85.680687-70.860244-155.614654-156.540932-155.614654H222.538218c-86.143826 0-156.077793 69.933967-156.540932 155.614654L39.598372 694.708277h1.852555v1.852555c0 98.185436 79.659882 177.845319 177.845319 177.845319h349.669833c-14.357304-17.136137-26.398915-36.587969-35.661692-57.429217H218.833107v-0.463139z" p-id="851" fill="#64eb6d"></path><path d="M288.303935 261.210312c-16.20986 0-28.714609 12.967888-28.714609 28.714609s12.967888 28.714609 28.714609 28.714609h306.134781c16.20986 0 28.714609-12.967888 28.714608-28.714609s-12.967888-28.714609-28.714608-28.714609H288.303935z" p-id="852" fill="#64eb6d"></path><path d="M168.350972 701.192221a33.809136 33.809136 0 1 0 67.618273 0 33.809136 33.809136 0 1 0-67.618273 0Z" p-id="853" fill="#64eb6d"></path><path d="M292.009046 701.192221a33.809136 33.809136 0 1 0 67.618272 0 33.809136 33.809136 0 1 0-67.618272 0Z" p-id="854" fill="#64eb6d"></path><path d="M883.437359 640.521031l-17.599277-17.599276c-3.705111-3.705111-9.725916-3.705111-13.431026 0l-119.026685 119.026685-58.818634-58.818634c-3.705111-3.705111-9.725916-3.705111-13.431027 0 0.463139 0-17.136137 17.599276-17.136137 17.599276-3.705111 3.705111-3.705111 9.725916 0 13.431027l80.58616 80.58616 2.315694 2.315694c3.705111 3.705111 9.725916 3.705111 13.431027 0l143.573044-143.573044c3.241972-2.778833 3.241972-9.262777-0.463139-12.967888z" p-id="855" fill="#64eb6d"></path></svg>