<svg xmlns="http://www.w3.org/2000/svg" xmlns:xlink="http://www.w3.org/1999/xlink" width="16" height="16" viewBox="0 0 16 16" fill="none"><g opacity="1"  transform="translate(0 0)  rotate(0)"><mask id="bg-mask-0" fill="white"><use transform="translate(0 0)  rotate(0)" xlink:href="#path_0"></use></mask><g mask="url(#bg-mask-0)" ><g opacity="1"  transform="translate(0 0)  rotate(0)"><g opacity="1"  transform="translate(0 0)  rotate(0)"><path id="路径 1" fill-rule="evenodd" style="fill:#FC0405" opacity="1" d="M8,0c4.42,0 8,3.58 8,8c0,4.42 -3.58,8 -8,8c-4.42,0 -8,-3.58 -8,-8c0,-4.42 3.58,-8 8,-8zM9.56,7.97l2.17,-2.16c0.42,-0.43 0.42,-1.11 0,-1.54c-0.43,-0.42 -1.11,-0.42 -1.54,0l-2.16,2.16l-2.17,-2.16c-0.42,-0.42 -1.11,-0.42 -1.53,0c-0.42,0.43 -0.42,1.11 0,1.54l2.16,2.16l-2.16,2.16c-0.43,0.42 -0.43,1.11 0,1.53c0.42,0.43 1.11,0.43 1.53,0l2.17,-2.16l2.16,2.17c0.43,0.42 1.11,0.42 1.54,0c0.42,-0.43 0.42,-1.12 0,-1.54z"></path></g></g></g></g><defs><rect id="path_0" x="0" y="0" width="16" height="16" /></defs></svg>
