<svg xmlns="http://www.w3.org/2000/svg" xmlns:xlink="http://www.w3.org/1999/xlink" width="207" height="25" viewBox="0 0 207 25" fill="none"><g opacity="1"  transform="translate(0 0)  rotate(0)"><mask id="bg-mask-0" fill="white"><use transform="translate(0 0)  rotate(0)" xlink:href="#path_0"></use></mask><g mask="url(#bg-mask-0)" ><path id="路径 3" fill-rule="evenodd" style="fill:#E3E3E3" opacity="1" d="M54.7707,6.24503h-0.02c0,0 3.11,0.77 3.19,3.16v15.58997h-2.97v-8.26h-14.24v8.26h-2.99v-16.71997c0.65,-1.2 1.88,-1.97 3.24,-2.03zM55.0007,10.645c0.01,-0.99997 -0.71,-1.84997 -1.69,-1.98997h-10.54c-1.77,0.03 -2.16,1.89997 -2.16,1.89997v3.65h14.38z"></path><path id="路径 4" fill-rule="evenodd" style="fill:#E3E3E3" opacity="1" d="M79.2717,6.24503v2.41h-13.64c-2.34,0 -2.34,1.69997 -2.34,1.69997v9.94c0,2.23 2.26,2.27 2.26,2.27h13.73v2.43h-16.23c-2.2,0 -3.04,-2.61 -3.04,-2.61v-12.44997c0,-3.19 3.3,-3.69 3.3,-3.69z"></path><path id="路径 5" fill-rule="evenodd" style="fill:#E3E3E3" opacity="1" d="M102.656,15.8615l0.03,0.04c0,0 -0.72,1.85 -1.57,2.11c0.7,0.46 1.11,1.27 1.07,2.12v4.89h-3.0801v-4.44c-0.37,-0.97 -1.26,-1.63 -2.28,-1.71h-12.2v6.15h-2.87v-16.45995c0,0 0.9,-2.29 2.73,-2.29h15.22c0,0 2.9501,0.85 2.9501,2.96zM99.7959,13.7115zM99.7659,10.7515c0,0 -0.18,-1.98995 -3.13,-1.98995h-9.7c0,0 -2.45,-0.13 -2.45,2.64995v4.91h13.25c0,0 2.06,-0.68 2.06,-2.61z"></path><path id="路径 6" fill-rule="evenodd" style="fill:#E3E3E3" opacity="1" d="M127.119,21.2649v0.02c0,0 0.31,3.73 -4.08,3.73h-14.68c0,0 -3.89,0.07 -3.89,-3.91v-12.32998c0,0 0.67,-2.51 3.22,-2.51h16.47c0,0 2.96,0.2 2.96,3.97998zM124.159,11.3149zM124.159,11.2849c0,0 0.27,-2.51998 -2.82,-2.51998h-11.31c0,0 -2.73,-0.09 -2.73,1.65998v9.88c0,0 0.14,2.34 3.13,2.34h11.54c0,0 2.19,-0.09 2.19,-2.65v-8.68z"></path><path id="路径 7" fill-rule="evenodd" style="fill:#E3E3E3" opacity="1" d="M128.77,6.24503zM128.77,6.24503h2.99l6.44,13.53997l6.35,-13.53997h2.81v2.51l-7.87,16.23997h-2.28l-8.44,-16.23997z"></path><path id="路径 8" fill-rule="evenodd" style="fill:#E3E3E3" opacity="1" d="M149.69 24.995L152.55 24.995L152.55 6.24503L149.69 6.24503L149.69 24.995Z"></path><path id="路径 9" fill-rule="evenodd" style="fill:#E3E3E3" opacity="1" d="M173.646,6.24939v2.56h-12.78c-2.19,0 -3.53,0.13 -3.53,2.38001v2.92h15.96v2.62h-15.96v3.82c0,1.33 0.76,2.11 3.35,2.11h12.96v2.33h-15.78c-1.31,0 -3.4,-1.02 -3.4,-3.9v-11.43001c-0.03,-0.94 0.32,-1.85 0.98,-2.51c0.66,-0.66 1.56,-1.01 2.5,-0.98c2.51,0.04 15.7,0.08 15.7,0.08z"></path><path id="路径 10" fill-rule="evenodd" style="fill:#E3E3E3" opacity="1" d="M175.62,6.20525h3.22v13.46995c0,2.12 0.9,3.02 2.19,3.02h6.53c0.71,-0.06 1.36,-0.4 1.82,-0.95c0.46,-0.55 0.67,-1.26 0.6,-1.98v-13.55995h2.99v12.84995c0,2.56 0.35,3.64 2.37,3.64h6.39c1.38,0 2.32,-0.72 2.32,-3.24v-13.24995h2.95v16.07995c0,1.13 -1.38,2.74 -4.11,2.74h-10.59l-0.99,-0.94l-1.12,0.94h-11.26c-1.66,0 -3.3,-1.39 -3.3,-4.14z"></path><path id="路径 1" fill-rule="evenodd" style="fill:#E60012" opacity="1" d="M13.3038,10.32zM15.1438,7.21l-1.84,3.11h-4.35995l6.21995,-10.32l15.15,25.19h-4.31z"></path><path id="路径 2" fill-rule="evenodd" style="fill:#E60012" opacity="1" d="M19.36,21.528zM6.54,21.528h12.82l2.16,3.67h-21.52l6.71,-11.15h8.17l2.24,3.7h-8.37z"></path></g></g><defs><rect id="path_0" x="0" y="0" width="207" height="25" /></defs></svg>
