<svg xmlns="http://www.w3.org/2000/svg" xmlns:xlink="http://www.w3.org/1999/xlink" width="920" height="750" viewBox="0 0 920 750" fill="none"><g opacity="1"  transform="translate(10 8)  rotate(0)"><g id="undefined" filter="url(#filter_0)"><rect fill="#1B1B1B" opacity="1" transform="translate(0 0)  rotate(0)" x="0" y="0" width="900" height="730" rx="8" ry="8"/></g><mask id="bg-mask-0" fill="white"><use transform="translate(0 0)  rotate(0)" xlink:href="#path_0"></use></mask><g mask="url(#bg-mask-0)" ><g opacity="1"  transform="translate(-221 -307)  rotate(0)"><path  id="路径 1" style="fill:#362F2F; opacity:1;" d="M180.868,423.207M180.868,423.207c22.19,23.452 47.337,47.90167 75.441,73.349c56.11067,50.806 98.85667,81.15933 128.238,91.06c29.888,10.09067 54.15167,14.38633 72.791,12.887c13.526,-1.08867 26.44667,-5.85267 38.762,-14.292c4.77333,-3.27533 11.038,-10.581 18.794,-21.917c4.736,-6.922 12.324,-18.98633 22.764,-36.193c18.85267,-31.07067 32.657,-51.49533 41.413,-61.274c24.82467,-27.718 52.15833,-52.92767 82.001,-75.629c17.77133,-13.518 43.73467,-31.10667 77.89,-52.766c20.19533,-12.806 35.21267,-22.57767 45.052,-29.315c16.30133,-11.16133 30.777,-22.07967 43.427,-32.755l1.935,2.292c-12.72733,10.74067 -27.283,21.72033 -43.667,32.939c-9.86867,6.75667 -24.91533,16.54767 -45.14,29.373c-34.08467,21.61333 -59.97833,39.15333 -77.681,52.62c-29.69133,22.586 -56.88533,47.667 -81.582,75.243c-8.63333,9.64 -22.32767,29.916 -41.083,60.828c-10.46867,17.254 -18.08633,29.36433 -22.853,36.331c-7.96667,11.644 -14.49133,19.20967 -19.574,22.697c-12.75467,8.74133 -26.16033,13.67733 -40.217,14.808c-19.04933,1.53267 -43.71267,-2.812 -73.99,-13.034c-29.77667,-10.034 -72.87467,-40.59367 -129.294,-91.679c-28.16133,-25.49933 -53.36333,-50.003 -75.606,-73.511z"></path><path  id="路径 2" style="fill:#362F2F; opacity:1;" d="M171.41,408.598M171.41,408.598c22.19,23.452 47.337,47.90167 75.441,73.349c56.11067,50.806 98.85667,81.15933 128.238,91.06c29.888,10.09067 54.15167,14.38633 72.791,12.887c13.526,-1.08867 26.44667,-5.85267 38.762,-14.292c4.77,-3.27467 11.032,-10.57867 18.786,-21.912c4.73733,-6.924 12.32433,-18.986 22.761,-36.186c18.856,-31.07467 32.664,-51.50333 41.424,-61.286c24.82467,-27.718 52.15833,-52.92767 82.001,-75.629c17.77133,-13.518 43.73467,-31.10667 77.89,-52.766c20.19533,-12.806 35.21267,-22.57767 45.052,-29.315c16.30133,-11.16133 30.777,-22.07967 43.427,-32.755l1.935,2.292c-12.72733,10.74067 -27.283,21.72033 -43.667,32.939c-9.86867,6.75667 -24.91533,16.54767 -45.14,29.373c-34.08467,21.61333 -59.97833,39.15333 -77.681,52.62c-29.69133,22.586 -56.88533,47.667 -81.582,75.243c-8.636,9.644 -22.334,29.92433 -41.094,60.841c-10.46533,17.246 -18.082,29.35367 -22.85,36.323c-7.96467,11.64133 -14.48667,19.20533 -19.566,22.692c-12.75467,8.74133 -26.16033,13.67733 -40.217,14.808c-19.04933,1.53267 -43.71267,-2.812 -73.99,-13.034c-29.77667,-10.034 -72.87467,-40.59367 -129.294,-91.679c-28.16133,-25.49933 -53.36333,-50.003 -75.606,-73.511z"></path><path  id="路径 3" style="fill:#362F2F; opacity:1;" d="M161.94,393.989M161.94,393.989c22.19,23.452 47.337,47.90167 75.441,73.349c56.11067,50.806 98.857,81.15933 128.239,91.06c29.892,10.09067 54.15667,14.38633 72.794,12.887c13.52333,-1.08867 26.443,-5.853 38.759,-14.293c4.774,-3.27133 11.03967,-10.57567 18.797,-21.913c4.74067,-6.928 12.33067,-18.99633 22.77,-36.205c18.846,-31.064 32.647,-51.48567 41.403,-61.265c24.82667,-27.71467 52.16067,-52.922 82.002,-75.622c17.768,-13.516 43.73,-31.105 77.886,-52.767c20.20467,-12.81333 35.22233,-22.586 45.053,-29.318c16.30333,-11.164 30.77967,-22.08367 43.429,-32.759l1.935,2.293c-12.72667,10.73933 -27.283,21.71967 -43.669,32.941c-9.86,6.752 -24.907,16.54433 -45.141,29.377c-34.084,21.616 -59.976,39.15633 -77.676,52.621c-29.69,22.58467 -56.88467,47.663 -81.584,75.235c-8.63267,9.64067 -22.32367,29.914 -41.073,60.82c-10.468,17.25467 -18.08767,29.369 -22.859,36.343c-7.96867,11.64667 -14.49433,19.21133 -19.577,22.694c-12.75533,8.74067 -26.16,13.67667 -40.214,14.808c-19.048,1.53333 -43.71233,-2.81133 -73.993,-13.034c-29.77667,-10.034 -72.87467,-40.59367 -129.294,-91.679c-28.16133,-25.49933 -53.36367,-50.003 -75.607,-73.511z"></path><path  id="路径 4" style="fill:#362F2F; opacity:1;" d="M152.481,379.433M152.481,379.433c22.19,23.452 47.337,47.90167 75.441,73.349c56.11067,50.806 98.857,81.15967 128.239,91.061c29.888,10.09 54.15133,14.38533 72.79,12.886c13.52667,-1.08867 26.44767,-5.85267 38.763,-14.292c4.774,-3.272 11.03967,-10.57667 18.797,-21.914c4.74067,-6.928 12.33067,-18.99633 22.77,-36.205c18.846,-31.064 32.647,-51.48567 41.403,-61.265c24.824,-27.714 52.157,-52.92167 81.999,-75.623c17.76667,-13.514 43.72967,-31.103 77.889,-52.767c20.202,-12.81133 35.21967,-22.584 45.053,-29.318c16.30067,-11.16133 30.777,-22.08033 43.429,-32.757l1.935,2.292c-12.72867,10.742 -27.285,21.72233 -43.669,32.941c-9.86267,6.75333 -24.90967,16.54533 -45.141,29.376c-34.088,21.618 -59.98133,39.15833 -77.68,52.621c-29.69,22.58467 -56.88333,47.66367 -81.58,75.237c-8.63267,9.64 -22.32367,29.913 -41.073,60.819c-10.468,17.25533 -18.08767,29.36967 -22.859,36.343c-7.96867,11.64667 -14.49433,19.21133 -19.577,22.694c-12.75467,8.74133 -26.16067,13.67733 -40.218,14.808c-19.04933,1.53267 -43.71233,-2.812 -73.989,-13.034c-29.77667,-10.034 -72.87467,-40.59367 -129.294,-91.679c-28.16133,-25.49933 -53.36367,-50.003 -75.607,-73.511z"></path><path  id="路径 5" style="fill:#362F2F; opacity:1;" d="M143.002,364.781M143.002,364.781c22.19,23.452 47.337,47.90167 75.441,73.349c56.11,50.806 98.856,81.15967 128.238,91.061c29.888,10.09067 54.15167,14.386 72.791,12.886c13.526,-1.08867 26.44667,-5.85267 38.762,-14.292c4.77,-3.27467 11.032,-10.57833 18.786,-21.911c4.73733,-6.92467 12.32433,-18.98667 22.761,-36.186c18.85533,-31.07467 32.66333,-51.50333 41.424,-61.286c24.824,-27.718 52.15733,-52.92767 82,-75.629c17.77133,-13.51867 43.735,-31.10733 77.891,-52.766c20.19533,-12.80667 35.21267,-22.57833 45.052,-29.315c16.30133,-11.162 30.777,-22.08067 43.427,-32.756l1.935,2.293c-12.72733,10.74 -27.28333,21.71933 -43.668,32.938c-9.868,6.75667 -24.91433,16.54767 -45.139,29.373c-34.08467,21.61333 -59.97833,39.15367 -77.681,52.621c-29.692,22.58533 -56.886,47.666 -81.582,75.242c-8.63667,9.64467 -22.33467,29.925 -41.094,60.841c-10.46533,17.24667 -18.082,29.35467 -22.85,36.324c-7.96467,11.64067 -14.48667,19.20467 -19.566,22.692c-12.75467,8.74067 -26.16067,13.67667 -40.218,14.808c-19.04867,1.53267 -43.71167,-2.812 -73.989,-13.034c-29.77667,-10.034 -72.87467,-40.594 -129.294,-91.68c-28.16133,-25.49933 -53.36333,-50.003 -75.606,-73.511z"></path><path  id="路径 6" style="fill:#362F2F; opacity:1;" d="M133.553,350.172M133.553,350.172c22.19067,23.452 47.33767,47.90167 75.441,73.349c56.11067,50.806 98.857,81.15967 128.239,91.061c29.892,10.09067 54.15667,14.386 72.794,12.886c13.52333,-1.088 26.443,-5.852 38.759,-14.292c4.774,-3.27133 11.04,-10.576 18.798,-21.914c4.74,-6.92733 12.32967,-18.99533 22.769,-36.204c18.846,-31.064 32.647,-51.48567 41.403,-61.265c24.82667,-27.71533 52.161,-52.92267 82.003,-75.622c17.76733,-13.516 43.72933,-31.105 77.886,-52.767c20.204,-12.81333 35.22133,-22.586 45.052,-29.318c16.30333,-11.16467 30.77967,-22.08433 43.429,-32.759l1.935,2.293c-12.726,10.73933 -27.28233,21.71967 -43.669,32.941c-9.85933,6.752 -24.90633,16.544 -45.141,29.376c-34.084,21.61667 -59.976,39.157 -77.676,52.621c-29.69,22.58467 -56.88467,47.66333 -81.584,75.236c-8.63267,9.64067 -22.32367,29.914 -41.073,60.82c-10.468,17.25467 -18.08767,29.36867 -22.859,36.342c-7.96867,11.64667 -14.49433,19.21167 -19.577,22.695c-12.75533,8.74067 -26.16,13.67633 -40.214,14.807c-19.048,1.534 -43.71233,-2.81033 -73.993,-13.033c-29.77667,-10.034 -72.87467,-40.594 -129.294,-91.68c-28.16133,-25.49933 -53.36367,-50.003 -75.607,-73.511z"></path><path  id="路径 7" style="fill:#362F2F; opacity:1;" d="M124.094,335.563M124.094,335.563c22.19067,23.452 47.33767,47.90167 75.441,73.349c56.11067,50.806 98.857,81.15967 128.239,91.061c29.888,10.09067 54.15167,14.386 72.791,12.886c13.526,-1.08867 26.44667,-5.85267 38.762,-14.292c4.774,-3.27133 11.04,-10.576 18.798,-21.914c4.74,-6.92733 12.32967,-18.99533 22.769,-36.204c18.846,-31.064 32.647,-51.48567 41.403,-61.265c24.824,-27.71467 52.157,-52.92233 81.999,-75.623c17.76667,-13.51467 43.72967,-31.10367 77.889,-52.767c20.202,-12.812 35.22,-22.58467 45.054,-29.318c16.3,-11.162 30.776,-22.08133 43.428,-32.758l1.935,2.293c-12.728,10.74133 -27.284,21.72133 -43.668,32.94c-9.86267,6.75333 -24.91,16.54533 -45.142,29.376c-34.088,21.618 -59.981,39.15833 -77.679,52.621c-29.69067,22.58533 -56.88433,47.66433 -81.581,75.237c-8.63267,9.64067 -22.32367,29.914 -41.073,60.82c-10.468,17.25467 -18.08767,29.36867 -22.859,36.342c-7.96867,11.64667 -14.49433,19.21167 -19.577,22.695c-12.75467,8.74067 -26.16067,13.67667 -40.218,14.808c-19.04933,1.53267 -43.71233,-2.812 -73.989,-13.034c-29.77667,-10.034 -72.87467,-40.594 -129.294,-91.68c-28.16133,-25.49933 -53.36367,-50.003 -75.607,-73.511z"></path><path  id="路径 8" style="fill:#362F2F; opacity:1;" d="M114.636,320.954M114.636,320.954c22.19067,23.452 47.33767,47.90167 75.441,73.349c56.11067,50.806 98.857,81.15967 128.239,91.061c29.888,10.09067 54.15167,14.386 72.791,12.886c13.526,-1.08867 26.44667,-5.85267 38.762,-14.292c4.77,-3.27467 11.032,-10.57833 18.786,-21.911c4.73733,-6.92467 12.32433,-18.98667 22.761,-36.186c18.85533,-31.07467 32.663,-51.50333 41.423,-61.286c24.82467,-27.718 52.15833,-52.92767 82.001,-75.629c17.77133,-13.51867 43.735,-31.10733 77.891,-52.766c20.19467,-12.80667 35.21167,-22.57833 45.051,-29.315c16.30133,-11.162 30.777,-22.08067 43.427,-32.756l1.935,2.293c-12.72667,10.74 -27.28233,21.71933 -43.667,32.938c-9.868,6.75667 -24.91467,16.54767 -45.14,29.373c-34.084,21.61333 -59.97767,39.15367 -77.681,52.621c-29.69133,22.58533 -56.88533,47.666 -81.582,75.242c-8.636,9.644 -22.33367,29.92433 -41.093,60.841c-10.46533,17.24667 -18.082,29.35467 -22.85,36.324c-7.96533,11.64067 -14.48733,19.20467 -19.566,22.692c-12.75467,8.74067 -26.16067,13.67667 -40.218,14.808c-19.04933,1.53267 -43.71233,-2.812 -73.989,-13.034c-29.77667,-10.034 -72.87467,-40.594 -129.294,-91.68c-28.16133,-25.49933 -53.36367,-50.003 -75.607,-73.511z"></path><path  id="路径 9" style="fill:#362F2F; opacity:1;" d="M105.208,306.356M105.208,306.356c22.19,23.452 47.337,47.90167 75.441,73.349c56.11,50.806 98.856,81.15933 128.238,91.06c29.892,10.09067 54.157,14.38633 72.795,12.887c13.52333,-1.08867 26.44267,-5.85267 38.758,-14.292c4.77467,-3.272 11.04067,-10.57667 18.798,-21.914c4.74,-6.928 12.33,-18.99633 22.77,-36.205c18.84533,-31.064 32.64633,-51.48567 41.403,-61.265c24.826,-27.71467 52.16,-52.922 82.002,-75.622c17.76733,-13.516 43.72933,-31.10467 77.886,-52.766c20.204,-12.814 35.22167,-22.587 45.053,-29.319c16.30333,-11.164 30.77967,-22.08333 43.429,-32.758l1.935,2.292c-12.72667,10.74 -27.283,21.72033 -43.669,32.941c-9.86,6.75267 -24.907,16.545 -45.141,29.377c-34.08467,21.616 -59.977,39.15633 -77.677,52.621c-29.69,22.58467 -56.88433,47.66333 -81.583,75.236c-8.63333,9.64 -22.32467,29.913 -41.074,60.819c-10.46733,17.25533 -18.08667,29.36967 -22.858,36.343c-7.96867,11.64667 -14.49467,19.21133 -19.578,22.694c-12.75467,8.74133 -26.15933,13.67733 -40.214,14.808c-19.048,1.53333 -43.71233,-2.81133 -73.993,-13.034c-29.77667,-10.034 -72.87467,-40.59367 -129.294,-91.679c-28.16133,-25.49933 -53.36333,-50.003 -75.606,-73.511z"></path><path  id="路径 10" style="fill:#362F2F; opacity:1;" d="M95.7077,291.747M95.7077,291.747c22.1902,23.452 47.3373,47.90167 75.4413,73.349c56.11,50.806 98.856,81.15933 128.238,91.06c29.888,10.09067 54.15167,14.38633 72.791,12.887c13.526,-1.08867 26.44667,-5.85267 38.762,-14.292c4.774,-3.274 11.03933,-10.57933 18.796,-21.916c4.73933,-6.92733 12.32833,-18.99367 22.767,-36.199c18.848,-31.06667 32.65067,-51.48967 41.408,-61.269c24.82333,-27.71467 52.15633,-52.92233 81.999,-75.623c17.76667,-13.51467 43.72967,-31.10367 77.889,-52.767c20.202,-12.812 35.21967,-22.58467 45.053,-29.318c16.30067,-11.16133 30.777,-22.08033 43.429,-32.757l1.935,2.292c-12.72867,10.742 -27.285,21.72233 -43.669,32.941c-9.86267,6.75333 -24.91,16.54533 -45.142,29.376c-34.088,21.618 -59.981,39.15833 -77.679,52.621c-29.69067,22.58467 -56.884,47.66333 -81.58,75.236c-8.634,9.64133 -22.32667,29.91633 -41.078,60.825c-10.46667,17.25133 -18.08533,29.36333 -22.856,36.336c-7.968,11.64533 -14.49333,19.21067 -19.576,22.696c-12.75467,8.74067 -26.16067,13.67667 -40.218,14.808c-19.04867,1.53267 -43.71167,-2.812 -73.989,-13.034c-29.77667,-10.034 -72.87467,-40.59367 -129.294,-91.679c-28.16133,-25.49933 -53.36347,-50.003 -75.6064,-73.511z"></path><path  id="路径 11" style="fill:#362F2F; opacity:1;" d="M86.2497,277.148M86.2497,277.148c22.1902,23.452 47.3373,47.902 75.4413,73.35c56.11,50.80533 98.856,81.15867 128.238,91.06c29.888,10.09067 54.15167,14.386 72.791,12.886c13.526,-1.08867 26.44667,-5.85267 38.762,-14.292c4.77,-3.27467 11.032,-10.57833 18.786,-21.911c4.73733,-6.92467 12.32433,-18.98667 22.761,-36.186c18.85533,-31.07467 32.66333,-51.50333 41.424,-61.286c24.824,-27.718 52.15733,-52.92767 82,-75.629c17.77133,-13.51867 43.735,-31.10733 77.891,-52.766c20.19533,-12.80667 35.21267,-22.57833 45.052,-29.315c16.30133,-11.162 30.777,-22.08067 43.427,-32.756l1.935,2.293c-12.72733,10.74067 -27.283,21.72 -43.667,32.938c-9.86867,6.75667 -24.91533,16.54767 -45.14,29.373c-34.08467,21.61333 -59.97833,39.15367 -77.681,52.621c-29.692,22.58533 -56.886,47.666 -81.582,75.242c-8.63667,9.64467 -22.33467,29.925 -41.094,60.841c-10.46533,17.24667 -18.082,29.35467 -22.85,36.324c-7.96467,11.64067 -14.48667,19.20467 -19.566,22.692c-12.75467,8.74067 -26.16067,13.67667 -40.218,14.808c-19.04867,1.53267 -43.71167,-2.812 -73.989,-13.034c-29.77667,-10.034 -72.87467,-40.594 -129.294,-91.68c-28.16133,-25.49933 -53.36347,-50.003 -75.6064,-73.511z"></path><path  id="路径 12" style="fill:#362F2F; opacity:1;" d="M76.781,262.539M76.781,262.539c22.19,23.452 47.337,47.90167 75.441,73.349c56.11067,50.806 98.85667,81.15967 128.238,91.061c29.892,10.09 54.157,14.38533 72.795,12.886c13.52333,-1.088 26.44267,-5.852 38.758,-14.292c4.77467,-3.27133 11.04067,-10.576 18.798,-21.914c4.74,-6.92733 12.33,-18.99533 22.77,-36.204c18.846,-31.064 32.647,-51.48567 41.403,-61.265c24.82733,-27.718 52.162,-52.92733 82.004,-75.628c17.77267,-13.52 43.73533,-31.10867 77.888,-52.766c20.19133,-12.804 35.20833,-22.576 45.051,-29.316c16.3,-11.16067 30.77567,-22.07933 43.427,-32.756l1.935,2.293c-12.72867,10.74133 -27.28433,21.721 -43.667,32.939c-9.87267,6.75933 -24.91933,16.55067 -45.14,29.374c-34.08067,21.61133 -59.97333,39.151 -77.678,52.619c-29.69,22.58533 -56.885,47.666 -81.585,75.242c-8.63267,9.64067 -22.32367,29.914 -41.073,60.82c-10.468,17.25467 -18.08767,29.36867 -22.859,36.342c-7.96867,11.64667 -14.49467,19.21167 -19.578,22.695c-12.75467,8.74067 -26.15933,13.67667 -40.214,14.808c-19.048,1.53267 -43.71233,-2.812 -73.993,-13.034c-29.77667,-10.034 -72.87467,-40.594 -129.294,-91.68c-28.16067,-25.49933 -53.36273,-50.003 -75.6062,-73.511z"></path><path  id="路径 13" style="fill:#362F2F; opacity:1;" d="M67.322,247.93M67.322,247.93c22.19,23.452 47.337,47.902 75.441,73.35c56.11067,50.80533 98.85667,81.15867 128.238,91.06c29.888,10.09067 54.15167,14.386 72.791,12.886c13.52667,-1.08867 26.44767,-5.85267 38.763,-14.292c4.774,-3.27133 11.03967,-10.576 18.797,-21.914c4.74,-6.92733 12.33,-18.99533 22.77,-36.204c18.846,-31.064 32.647,-51.48567 41.403,-61.265c24.824,-27.71467 52.157,-52.92233 81.999,-75.623c17.76667,-13.51467 43.72967,-31.10367 77.889,-52.767c20.202,-12.812 35.21967,-22.58467 45.053,-29.318c16.30067,-11.162 30.777,-22.08133 43.429,-32.758l1.935,2.293c-12.72867,10.74133 -27.285,21.72133 -43.669,32.94c-9.86267,6.75333 -24.91,16.54533 -45.142,29.376c-34.08733,21.618 -59.98033,39.15833 -77.679,52.621c-29.69,22.58533 -56.88333,47.66433 -81.58,75.237c-8.63267,9.64067 -22.32367,29.914 -41.073,60.82c-10.468,17.25467 -18.08767,29.36867 -22.859,36.342c-7.96867,11.64667 -14.49467,19.21167 -19.578,22.695c-12.75467,8.74067 -26.16033,13.67667 -40.217,14.808c-19.04933,1.53267 -43.71267,-2.812 -73.99,-13.034c-29.77667,-10.034 -72.87467,-40.594 -129.294,-91.68c-28.16093,-25.49933 -53.36297,-50.003 -75.6061,-73.511z"></path><path  id="路径 14" style="fill:#362F2F; opacity:1;" d="M57.863,233.332M57.863,233.332c22.19013,23.452 47.33713,47.90167 75.441,73.349c56.11067,50.806 98.85667,81.15933 128.238,91.06c29.88867,10.09067 54.15233,14.38633 72.791,12.887c13.52667,-1.08867 26.44767,-5.85267 38.763,-14.292c4.76933,-3.27467 11.031,-10.57867 18.785,-21.912c4.73733,-6.924 12.32433,-18.986 22.761,-36.186c18.856,-31.07467 32.664,-51.50333 41.424,-61.286c24.82467,-27.718 52.15833,-52.92767 82.001,-75.629c17.77133,-13.518 43.73467,-31.10667 77.89,-52.766c20.19533,-12.806 35.21267,-22.57767 45.052,-29.315c16.30133,-11.16133 30.777,-22.0798 43.427,-32.7554l1.935,2.2927c-12.72733,10.74047 -27.283,21.72003 -43.667,32.9387c-9.86867,6.75667 -24.91533,16.54767 -45.14,29.373c-34.084,21.61333 -59.97767,39.15333 -77.681,52.62c-29.69133,22.586 -56.88533,47.667 -81.582,75.243c-8.636,9.644 -22.334,29.92433 -41.094,60.841c-10.46467,17.246 -18.08133,29.35367 -22.85,36.323c-7.96467,11.64133 -14.48667,19.20533 -19.566,22.692c-12.75467,8.74133 -26.16033,13.67733 -40.217,14.808c-19.04933,1.53267 -43.71267,-2.812 -73.99,-13.034c-29.77667,-10.034 -72.87467,-40.59367 -129.294,-91.679c-28.16093,-25.49933 -53.36297,-50.003 -75.6061,-73.511z"></path><path  id="路径 15" style="fill:#362F2F; opacity:1;" d="M48.3943,218.723M48.3943,218.723c22.19007,23.452 47.33697,47.90167 75.4407,73.349c56.11067,50.806 98.857,81.15933 128.239,91.06c29.892,10.09067 54.15667,14.38633 72.794,12.887c13.52333,-1.08867 26.443,-5.85267 38.759,-14.292c4.774,-3.272 11.03967,-10.57667 18.797,-21.914c4.74067,-6.928 12.33067,-18.99633 22.77,-36.205c18.846,-31.064 32.647,-51.48567 41.403,-61.265c24.82733,-27.71733 52.162,-52.92667 82.004,-75.628c17.77333,-13.51933 43.736,-31.10767 77.888,-52.765c20.19133,-12.80467 35.20833,-22.57667 45.051,-29.316c16.3,-11.1612 30.77567,-22.08 43.427,-32.7564l1.935,2.2927c-12.728,10.74133 -27.28367,21.7209 -43.667,32.9387c-9.872,6.76 -24.91833,16.55133 -45.139,29.374c-34.08067,21.612 -59.97333,39.152 -77.678,52.62c-29.69067,22.58533 -56.886,47.666 -81.586,75.242c-8.63267,9.64 -22.32367,29.913 -41.073,60.819c-10.468,17.25533 -18.08767,29.36967 -22.859,36.343c-7.96867,11.64667 -14.49433,19.21133 -19.577,22.694c-12.75533,8.74067 -26.16,13.67667 -40.214,14.808c-19.048,1.53333 -43.71233,-2.81133 -73.993,-13.034c-29.77667,-10.034 -72.87467,-40.59367 -129.294,-91.679c-28.1614,-25.49933 -53.3637,-50.003 -75.6069,-73.511z"></path><path  id="路径 16" style="fill:#362F2F; opacity:1;" d="M38.9353,204.114M38.9353,204.114c22.19007,23.452 47.33697,47.90167 75.4407,73.349c56.11067,50.806 98.857,81.15933 128.239,91.06c29.888,10.09067 54.15133,14.38633 72.79,12.887c13.52667,-1.08867 26.44767,-5.853 38.763,-14.293c4.774,-3.27133 11.03967,-10.57567 18.797,-21.913c4.74067,-6.928 12.33067,-18.99633 22.77,-36.205c18.846,-31.064 32.647,-51.48567 41.403,-61.265c24.824,-27.71467 52.157,-52.92233 81.999,-75.623c17.76667,-13.51467 43.72967,-31.10367 77.889,-52.767c20.202,-12.812 35.21967,-22.5846 45.053,-29.3178c16.30067,-11.1616 30.777,-22.08083 43.429,-32.7577l1.935,2.2927c-12.728,10.74167 -27.28433,21.72177 -43.669,32.9403c-9.86267,6.75367 -24.90967,16.5455 -45.141,29.3755c-34.088,21.618 -59.98133,39.15867 -77.68,52.622c-29.69,22.58467 -56.88333,47.66333 -81.58,75.236c-8.63267,9.64067 -22.32367,29.914 -41.073,60.82c-10.468,17.25533 -18.08767,29.36967 -22.859,36.343c-7.96867,11.64667 -14.49433,19.21133 -19.577,22.694c-12.75467,8.74067 -26.16067,13.67667 -40.218,14.808c-19.04933,1.53267 -43.71233,-2.812 -73.989,-13.034c-29.77667,-10.034 -72.87467,-40.59367 -129.294,-91.679c-28.1614,-25.49933 -53.3637,-50.003 -75.6069,-73.511z"></path><path  id="路径 17" style="fill:#362F2F; opacity:1;" d="M29.4763,189.515M29.4763,189.515c22.19013,23.452 47.33703,47.902 75.4407,73.35c56.11067,50.80533 98.857,81.15867 128.239,91.06c29.888,10.09067 54.15133,14.386 72.79,12.886c13.52667,-1.08867 26.44767,-5.85267 38.763,-14.292c4.77333,-3.27533 11.03767,-10.58067 18.793,-21.916c4.736,-6.922 12.32433,-18.98667 22.765,-36.194c18.852,-31.07 32.656,-51.49433 41.412,-61.273c24.82467,-27.718 52.15833,-52.92767 82.001,-75.629c17.77133,-13.51867 43.735,-31.10733 77.891,-52.766c20.19467,-12.8066 35.21167,-22.57833 45.051,-29.3152c16.30133,-11.1618 30.777,-22.08037 43.427,-32.7557l1.935,2.2927c-12.72667,10.74047 -27.28233,21.7199 -43.667,32.9383c-9.868,6.75667 -24.91467,16.54763 -45.14,29.3729c-34.084,21.61333 -59.97767,39.15367 -77.681,52.621c-29.69133,22.58533 -56.88533,47.666 -81.582,75.242c-8.63267,9.64067 -22.32667,29.91667 -41.082,60.828c-10.46933,17.254 -18.08733,29.36467 -22.854,36.332c-7.96667,11.644 -14.491,19.20967 -19.573,22.697c-12.75467,8.74067 -26.16067,13.67667 -40.218,14.808c-19.04933,1.53267 -43.71233,-2.812 -73.989,-13.034c-29.77667,-10.034 -72.87467,-40.594 -129.294,-91.68c-28.1614,-25.49933 -53.36367,-50.003 -75.6068,-73.511z"></path><path  id="路径 18" style="fill:#362F2F; opacity:1;" d="M20.0173,174.906M20.0173,174.906c22.19013,23.452 47.33713,47.90167 75.441,73.349c56.11047,50.806 98.8567,81.15967 128.2387,91.061c29.888,10.09067 54.15133,14.386 72.79,12.886c13.52667,-1.08867 26.44767,-5.85267 38.763,-14.292c4.77,-3.27467 11.03167,-10.57833 18.785,-21.911c4.738,-6.92467 12.32533,-18.98667 22.762,-36.186c18.85533,-31.07467 32.663,-51.50333 41.423,-61.286c24.82467,-27.718 52.15833,-52.92767 82.001,-75.629c17.77133,-13.51867 43.735,-31.10743 77.891,-52.7663c20.19467,-12.8064 35.21167,-22.57803 45.051,-29.3149c16.30133,-11.1618 30.777,-22.0804 43.427,-32.7558l1.935,2.2928c-12.72667,10.74047 -27.28233,21.7199 -43.667,32.9383c-9.868,6.75667 -24.91467,16.54773 -45.14,29.3732c-34.084,21.61313 -59.97767,39.15337 -77.681,52.6207c-29.69133,22.58533 -56.88533,47.666 -81.582,75.242c-8.636,9.64467 -22.334,29.925 -41.094,60.841c-10.46467,17.24667 -18.08133,29.35467 -22.85,36.324c-7.96467,11.64067 -14.48633,19.20467 -19.565,22.692c-12.75467,8.74067 -26.16067,13.67667 -40.218,14.808c-19.04933,1.53267 -43.71233,-2.812 -73.989,-13.034c-29.77667,-10.034 -72.87477,-40.594 -129.2943,-91.68c-28.1612,-25.49933 -53.36337,-50.003 -75.6065,-73.511z"></path><path  id="路径 19" style="fill:#362F2F; opacity:1;" d="M10.5486,160.297M10.5486,160.297c22.19007,23.452 47.33703,47.90167 75.4409,73.349c56.11033,50.806 98.8565,81.15967 128.2385,91.061c29.892,10.09067 54.15667,14.386 72.794,12.886c13.524,-1.088 26.44367,-5.852 38.759,-14.292c4.77467,-3.27133 11.04067,-10.576 18.798,-21.914c4.74,-6.92733 12.32967,-18.99533 22.769,-36.204c18.846,-31.064 32.64733,-51.48567 41.404,-61.265c24.82333,-27.71467 52.156,-52.92233 81.998,-75.623c17.76667,-13.51467 43.72967,-31.1038 77.889,-52.7674c20.202,-12.8118 35.22,-22.5844 45.054,-29.3178c16.30067,-11.16167 30.777,-22.08093 43.429,-32.7578l1.934,2.2928c-12.728,10.74167 -27.284,21.72177 -43.668,32.9403c-9.86267,6.75347 -24.91,16.54547 -45.142,29.376c-34.088,21.61793 -59.981,39.15823 -77.679,52.6209c-29.69067,22.58533 -56.88433,47.66433 -81.581,75.237c-8.63267,9.64067 -22.32367,29.914 -41.073,60.82c-10.468,17.25467 -18.08733,29.36867 -22.858,36.342c-7.96933,11.64667 -14.49533,19.21167 -19.578,22.695c-12.75533,8.74067 -26.16,13.67667 -40.214,14.808c-19.048,1.53333 -43.71233,-2.81133 -73.993,-13.034c-29.77667,-10.034 -72.8747,-40.594 -129.2941,-91.68c-28.16113,-25.49933 -53.36329,-50.003 -75.60648,-73.511z"></path><path  id="路径 20" style="fill:#362F2F; opacity:1;" d="M1.08957,145.699M1.08957,145.699c22.19009,23.452 47.33706,47.90167 75.44093,73.349c56.11033,50.806 98.8565,81.15933 128.2385,91.06c29.888,10.09067 54.15167,14.38633 72.791,12.887c13.526,-1.08867 26.44667,-5.85267 38.762,-14.292c4.77333,-3.27533 11.03767,-10.581 18.793,-21.917c4.736,-6.92133 12.32433,-18.98567 22.765,-36.193c18.852,-31.07067 32.65633,-51.49533 41.413,-61.274c24.824,-27.718 52.15733,-52.92767 82,-75.629c17.77133,-13.51813 43.735,-31.1067 77.891,-52.7657c20.19533,-12.8064 35.21233,-22.57803 45.051,-29.3149c16.30133,-11.1618 30.77733,-22.08039 43.428,-32.75576l1.934,2.29272c-12.72667,10.74049 -27.28233,21.71994 -43.667,32.93834c-9.868,6.75667 -24.91467,16.54773 -45.14,29.3732c-34.084,21.61333 -59.97733,39.15337 -77.68,52.6201c-29.692,22.586 -56.88633,47.667 -81.583,75.243c-8.63267,9.64 -22.32667,29.916 -41.082,60.828c-10.46933,17.254 -18.08733,29.36433 -22.854,36.331c-7.96667,11.644 -14.491,19.20967 -19.573,22.697c-12.75467,8.74133 -26.16067,13.67733 -40.218,14.808c-19.04867,1.53267 -43.71167,-2.812 -73.989,-13.034c-29.77667,-10.034 -72.8747,-40.59367 -129.2941,-91.679c-28.16113,-25.49933 -53.36329,-50.003 -75.60647,-73.511z"></path></g><g opacity="1"  transform="translate(526 -291)  rotate(0)"><path  id="路径 33" style="fill:#362F2F; opacity:1;" d="M1.49999,29.5011M1.49999,29.5011c-0.16985,38.59567 1.23402,79.89397 4.21159,123.8949c5.94421,87.84 16.73235,145.171 32.36442,171.993c13.195,22.644 36.09967,46.86833 68.714,72.673c18.49,14.63 44.98467,33.059 79.484,55.287c13.13333,8.462 21.81633,14.20733 26.049,17.236c8.418,6.024 19.67067,15.023 33.758,26.997c15.88533,13.50333 27.74967,22.53667 35.593,27.1c12.57933,7.31933 25.24833,10.81367 38.007,10.483c10.46933,-0.272 23.32,-5.06067 38.552,-14.366c16.60733,-10.146 33.88533,-24.43333 51.834,-42.862c43.57533,-44.74267 82.125,-103.70167 115.649,-176.877l2.728,1.249c-33.66867,73.49067 -72.41133,132.731 -116.228,177.721c-18.124,18.60933 -35.597,33.05233 -52.419,43.329c-15.688,9.58467 -29.034,14.51967 -40.038,14.805c-13.32667,0.346 -26.52467,-3.28367 -39.594,-10.889c-7.99667,-4.65267 -20.00567,-13.78833 -36.027,-27.407c-14.024,-11.91933 -25.211,-20.86733 -33.561,-26.844c-4.19267,-3 -12.83533,-8.71767 -25.928,-17.153c-34.58067,-22.28067 -61.15433,-40.76633 -79.721,-55.457c-32.9106,-26.03933 -56.0586,-50.544 -69.444,-73.514c-15.86787,-27.22733 -26.78973,-84.99467 -32.76558,-173.302c-2.98243,-44.07233 -4.38856,-85.44237 -4.21841,-124.1101z"></path><path  id="路径 34" style="fill:#362F2F; opacity:1;" d="M4.37303,28.871M4.37303,28.871c0.16983,37.0088 1.95572,76.65013 5.35768,118.924c6.79079,84.38467 18.21092,139.63733 34.26039,165.758c13.49947,21.97133 36.52143,45.51167 69.0659,70.621c18.40467,14.20067 44.51633,31.97133 78.335,53.312c11.44,7.21867 19.09267,12.15 22.958,14.794c8.35667,5.72 19.53833,14.306 33.545,25.758c15.67,12.81267 27.36767,21.37067 35.093,25.674c12.39667,6.90667 24.832,10.11233 37.306,9.617c11.204,-0.446 24.59367,-5.30467 40.169,-14.576c16.80133,-10 34.15267,-24.01967 52.054,-42.059c42.88733,-43.21733 80.39133,-99.89433 112.512,-170.031l2.728,1.249c-32.26867,70.46 -69.97233,127.425 -113.111,170.895c-18.08067,18.22 -35.63,32.39467 -52.648,42.524c-16.012,9.53067 -29.87367,14.52933 -41.585,14.996c-13.03533,0.51667 -25.997,-2.815 -38.885,-9.995c-7.88,-4.39 -19.724,-13.047 -35.532,-25.971c-13.94067,-11.39867 -25.054,-19.93367 -33.34,-25.605c-3.83467,-2.62267 -11.45633,-7.53367 -22.865,-14.733c-33.898,-21.39133 -60.087,-39.21567 -78.567,-53.473c-32.83453,-25.334 -56.09753,-49.143 -69.789,-71.427c-16.30047,-26.52867 -27.86534,-82.22433 -34.69462,-167.087c-3.40803,-42.34953 -5.19714,-82.0666 -5.36732,-119.1512z"></path><path  id="路径 35" style="fill:#362F2F; opacity:1;" d="M7.24252,28.2503M7.24252,28.2503c0.50943,35.4184 2.68102,73.4023 6.51478,113.9517c7.65187,80.934 19.72983,134.12533 36.2339,159.574c13.84733,21.32933 37.08793,44.24033 69.7218,68.733c18.386,13.8 44.16267,30.927 77.33,51.381c9.53467,5.87933 16.001,9.928 19.399,12.146c8.28,5.40467 19.376,13.55967 33.288,24.465c15.468,12.12533 27.008,20.21133 34.62,24.258c12.22533,6.5 24.44,9.43167 36.644,8.795c11.95533,-0.62733 25.89633,-5.56 41.823,-14.798c16.99533,-9.858 34.41833,-23.60967 52.269,-41.255c42.17333,-41.68667 78.62433,-96.07467 109.353,-163.164l2.727,1.25c-30.88,67.42 -67.537,122.10267 -109.971,164.048c-18.03267,17.82467 -35.657,31.73 -52.873,41.716c-16.34333,9.48 -30.73367,14.54633 -43.171,15.199c-12.75733,0.66533 -25.49367,-2.382 -38.209,-9.142c-7.768,-4.13 -19.45567,-12.312 -35.063,-24.546c-13.844,-10.85133 -24.86933,-18.956 -33.076,-24.314c-3.37667,-2.20333 -9.82167,-6.23833 -19.335,-12.105c-33.24467,-20.50133 -59.09667,-37.67933 -77.556,-51.534c-32.9176,-24.706 -56.39687,-47.873 -70.4378,-69.501c-16.771,-25.86 -29.00553,-79.50133 -36.7036,-160.924c-3.84127,-40.62873 -6.0172,-78.69223 -6.52777,-114.1905z"></path><path  id="路径 36" style="fill:#362F2F; opacity:1;" d="M10.1133,27.6819M10.1133,27.6819c0.834,33.82113 3.37827,70.13817 7.6328,108.9511c8.49093,77.46067 21.2258,128.56633 38.2046,153.317c14.2602,20.78667 37.86097,43.16233 70.8023,67.127c18.47533,13.44067 43.975,29.917 76.499,49.429c7.368,4.42 12.45233,7.49967 15.253,9.239c8.18533,5.082 19.17567,12.78833 32.971,23.119c15.27533,11.43933 26.66567,19.05767 34.171,22.855c12.062,6.102 24.05933,8.77633 35.992,8.023c12.69267,-0.806 27.18167,-5.81167 43.467,-15.017c17.192,-9.718 34.68933,-23.19833 52.492,-40.441c41.48867,-40.184 76.88933,-92.264 106.202,-156.24l2.727,1.25c-29.47067,64.32 -65.08467,116.70167 -106.842,157.145c-17.98667,17.42067 -35.68767,31.053 -53.103,40.897c-16.68467,9.43133 -31.60267,14.56467 -44.754,15.4c-12.476,0.78733 -24.98767,-1.99267 -37.535,-8.34c-7.66133,-3.876 -19.19967,-11.58633 -34.615,-23.131c-13.72533,-10.27867 -24.64367,-17.936 -32.755,-22.972c-2.78867,-1.73133 -7.86,-4.80267 -15.214,-9.214c-32.60067,-19.558 -58.174,-36.08333 -76.72,-49.576c-33.22007,-24.16733 -57.05747,-46.786 -71.5122,-67.856c-17.2628,-25.16467 -30.16707,-76.727 -38.7128,-154.687c-4.26381,-38.89707 -6.81373,-75.29847 -7.64977,-109.2042z"></path><path  id="路径 37" style="fill:#362F2F; opacity:1;" d="M12.9824,27.0062M12.9824,27.0062c1.15007,32.22013 4.06063,66.86907 8.7317,103.9468c9.32127,73.99067 22.71903,123.026 40.1933,147.106c14.82327,20.40333 39.0548,42.40967 72.6946,66.019c18.736,13.14867 44.026,28.95967 75.87,47.433c4.76467,2.764 8.13233,4.726 10.103,5.886c8.05667,4.746 18.90067,11.97667 32.532,21.692c15.11067,10.76933 26.371,17.92933 33.781,21.48c11.91867,5.71067 23.72,8.13233 35.404,7.265c13.42533,-0.99667 28.461,-6.08333 45.107,-15.26c17.39067,-9.58733 34.962,-22.79867 52.714,-39.634c40.82,-38.71333 75.16567,-88.495 103.037,-149.345l2.727,1.249c-28.032,61.20267 -62.59867,111.29367 -103.7,150.273c-17.93733,17.01133 -35.714,30.37267 -53.33,40.084c-17.028,9.38733 -32.472,14.59567 -46.332,15.625c-12.216,0.90667 -24.52367,-1.61067 -36.923,-7.552c-7.566,-3.62467 -18.97467,-10.872 -34.226,-21.742c-13.56067,-9.66467 -24.332,-16.848 -32.314,-21.55c-1.96467,-1.15667 -5.32667,-3.11533 -10.086,-5.876c-31.91867,-18.51667 -57.281,-34.37433 -76.087,-47.573c-33.91307,-23.80067 -58.3796,-46.038 -73.3996,-66.712c-17.77567,-24.49533 -31.35623,-73.993 -40.7417,-148.493c-4.68227,-37.1666 -7.60005,-71.90487 -8.75335,-104.2148z"></path><path  id="路径 38" style="fill:#362F2F; opacity:1;" d="M15.8523,26.3825M15.8523,26.3825c1.4544,30.60907 4.72237,63.58323 9.8039,98.9225c10.13947,70.51467 24.20867,117.493 42.2076,140.935c15.55253,20.23867 40.81693,42.11067 75.7932,65.616c19.26933,12.94867 44.40433,28.03067 75.405,45.246c1.64333,0.912 2.84367,1.579 3.601,2.001c7.926,4.41133 18.62333,11.165 32.092,20.261c14.94467,10.09333 26.07433,16.79367 33.389,20.101c11.77267,5.32267 23.37067,7.504 34.794,6.544c14.148,-1.19267 29.727,-6.36433 46.737,-15.515c17.58933,-9.462 35.234,-22.404 52.934,-38.826c40.16467,-37.26533 73.46167,-84.745 99.891,-142.439l2.728,1.249c-26.59667,58.05667 -60.123,105.853 -100.579,143.389c-17.88733,16.596 -35.738,29.68567 -53.552,39.269c-17.376,9.34733 -33.345,14.63467 -47.907,15.862c-11.942,1.004 -24.036,-1.26233 -36.282,-6.799c-7.46933,-3.37733 -18.74667,-10.16033 -33.832,-20.349c-13.39733,-9.048 -24.021,-15.75667 -31.871,-20.126c-0.764,-0.42467 -1.96367,-1.091 -3.599,-1.999c-31.076,-17.25667 -56.28333,-32.383 -75.622,-45.379c-35.2476,-23.688 -60.7475,-45.781 -76.4997,-66.279c-18.31773,-23.85733 -32.58357,-71.30233 -42.7975,-142.335c-5.09513,-35.43373 -8.37217,-68.50277 -9.8311,-99.2071z"></path><path  id="路径 39" style="fill:#362F2F; opacity:1;" d="M18.7214,25.7573M18.7214,25.7573c1.75027,29.01093 5.36923,60.31917 10.8569,93.9247c10.9486,67.048 25.69487,111.954 44.2388,134.718c26.04593,31.968 76.33657,67.434 150.8719,106.398c7.75667,4.066 18.26033,10.31833 31.511,18.757c14.81933,9.438 25.85033,15.69233 33.093,18.763c11.666,4.946 23.10633,6.89467 34.321,5.846c14.86733,-1.38667 30.993,-6.64233 48.377,-15.767c17.784,-9.336 35.502,-22.008 53.154,-38.016c39.51467,-35.83333 71.75633,-81.006 96.725,-135.518l2.728,1.249c-25.14,54.88333 -57.61933,100.38067 -97.438,136.492c-17.84,16.17867 -35.765,28.995 -53.775,38.449c-17.73333,9.30867 -34.23033,14.67467 -49.491,16.098c-11.71733,1.096 -23.64133,-0.92767 -35.772,-6.071c-7.39533,-3.13533 -18.57333,-9.46667 -33.534,-18.994c-13.17933,-8.39333 -23.609,-14.603 -31.289,-18.629c-74.89933,-39.15467 -125.50197,-74.87533 -151.8079,-107.162c-18.881,-23.178 -33.83887,-68.55433 -44.8736,-136.129c-5.50407,-33.7062 -9.1343,-65.11557 -10.8907,-94.2281z"></path><path  id="路径 40" style="fill:#362F2F; opacity:1;" d="M21.5901,25.1302M21.5901,25.1302c2.03933,27.401 6.00407,57.03527 11.8942,88.9028c11.7508,63.57467 27.1792,106.424 46.2852,128.548c16.00033,18.50933 40.87483,38.39833 74.6235,59.667c22.68067,14.29333 46.798,27.71233 72.352,40.257c7.572,3.72 17.86633,9.467 30.883,17.241c14.70067,8.78067 25.63767,14.589 32.811,17.425c11.564,4.57133 22.845,6.294 33.843,5.168c15.578,-1.584 32.24733,-6.92767 50.008,-16.031c17.97933,-9.21533 35.771,-21.619 53.375,-37.211c38.87467,-34.43133 70.06333,-77.298 93.566,-128.6l2.727,1.249c-23.67733,51.686 -55.112,94.885 -94.304,129.597c-17.79267,15.75867 -35.791,28.30367 -53.995,37.635c-18.09667,9.27533 -35.12067,14.724 -51.072,16.346c-11.48267,1.17533 -23.233,-0.61233 -35.251,-5.363c-7.324,-2.89533 -18.40633,-8.775 -33.247,-17.639c-12.946,-7.73267 -23.168,-13.44067 -30.666,-17.124c-25.64933,-12.592 -49.85933,-26.06267 -72.63,-40.412c-34.00067,-21.42733 -59.09867,-41.50867 -75.294,-60.244c-19.46053,-22.534 -35.11547,-65.85533 -46.9648,-129.964c-5.90987,-31.97413 -9.88847,-61.71583 -11.9358,-89.2251z"></path><path  id="路径 41" style="fill:#362F2F; opacity:1;" d="M24.4076,24.4913M24.4076,24.4913c2.3048,25.79693 6.59833,53.76117 12.8806,83.8927c12.53207,60.10667 28.66527,100.892 48.3996,122.356c15.97147,17.38467 40.12653,35.95167 72.4652,55.701c23.65067,14.444 47.21533,27.034 70.694,37.77c7.37667,3.376 17.446,8.617 30.208,15.723c14.584,8.12067 25.42867,13.48033 32.534,16.079c11.46733,4.19533 22.60067,5.69567 33.4,4.501c16.28533,-1.802 33.501,-7.246 51.647,-16.332c18.17667,-9.10133 36.044,-21.23467 53.602,-36.4c38.26067,-33.04467 68.398,-73.59533 90.412,-121.652l2.727,1.25c-22.19667,48.45133 -52.58933,89.342 -91.178,122.672c-17.74733,15.32867 -35.82067,27.59967 -54.22,36.813c-18.466,9.246 -36.01933,14.78967 -52.66,16.631c-11.266,1.246 -22.853,-0.309 -34.761,-4.665c-7.25333,-2.654 -18.24067,-8.07933 -32.962,-16.276c-12.69333,-7.06733 -22.692,-12.27267 -29.996,-15.616c-23.58733,-10.786 -47.25767,-23.432 -71.011,-37.938c-32.57867,-19.896 -56.94853,-38.63967 -73.1096,-56.231c-20.10747,-21.87 -36.48347,-63.128 -49.128,-123.774c-6.30607,-30.2454 -10.6167,-58.32463 -12.9319,-84.2377z"></path><path  id="路径 42" style="fill:#362F2F; opacity:1;" d="M27.3164,23.861M27.3164,23.861c2.56173,24.19433 7.17627,50.48967 13.8436,78.886c13.29953,56.64333 30.13503,95.36733 50.5065,116.172c15.935,16.26933 39.34683,33.51733 70.2355,51.744c24.12,14.23333 47.106,25.985 68.958,35.255c7.12333,3.02467 16.90367,7.73867 29.341,14.142c14.52867,7.48 25.322,12.40467 32.38,14.774c11.40533,3.828 22.40733,5.10967 33.006,3.845c16.98533,-2.02 34.74733,-7.56533 53.286,-16.636c18.36733,-8.98667 36.31067,-20.84933 53.83,-35.588c37.654,-31.67867 66.73667,-69.909 87.248,-114.691l2.727,1.249c-20.69933,45.19067 -50.04733,83.76967 -88.044,115.737c-17.70667,14.89733 -35.854,26.89333 -54.442,35.988c-18.844,9.22 -36.92733,14.86 -54.25,16.92c-11.04467,1.318 -22.48333,-0.00867 -34.316,-3.98c-7.202,-2.41733 -18.135,-7.401 -32.799,-14.951c-12.37067,-6.36933 -22.08333,-11.05167 -29.138,-14.047c-21.974,-9.322 -45.078,-21.133 -69.312,-35.433c-31.11533,-18.36133 -54.73337,-35.771 -70.8541,-52.229c-20.76187,-21.20333 -37.85637,-60.39833 -51.2835,-117.585c-6.696,-28.51847 -11.33147,-54.93717 -13.9064,-79.2561z"></path><path  id="路径 43" style="fill:#362F2F; opacity:1;" d="M30.1839,23.2812M30.1839,23.2812c2.80333,22.59787 7.72803,47.22833 14.7741,73.8914c14.0546,53.1836 31.60917,89.8364 52.6637,109.9584c15.87953,15.18467 38.53797,31.12933 67.9753,47.834c24.25333,13.76267 46.688,24.667 67.304,32.713c6.862,2.67933 16.33567,6.86967 28.421,12.571c14.48067,6.83133 25.232,11.31567 32.254,13.453c11.36,3.45733 22.25333,4.52267 32.68,3.196c17.67267,-2.244 35.97667,-7.89467 54.912,-16.952c18.55467,-8.87467 36.57233,-20.46567 54.053,-34.773c37.06,-30.33267 65.09033,-66.24 84.091,-107.722l2.727,1.25c-19.19267,41.90333 -47.49833,78.16767 -84.917,108.793c-17.668,14.46067 -35.888,26.18033 -54.66,35.159c-19.226,9.196 -37.835,14.93633 -55.827,17.221c-10.852,1.38067 -22.16267,0.28 -33.932,-3.302c-7.16133,-2.18 -18.04833,-6.71667 -32.661,-13.61c-12.02333,-5.672 -21.434,-9.835 -28.232,-12.489c-20.75,-8.09867 -43.31467,-19.065 -67.694,-32.899c-29.65333,-16.82667 -52.50903,-32.918 -68.5671,-48.274c-21.4622,-20.51133 -39.29263,-57.63163 -53.4913,-111.3609c-7.0806,-26.79373 -12.0309,-51.5566 -14.8509,-74.2886z"></path><path  id="路径 44" style="fill:#362F2F; opacity:1;" d="M33.0506,22.5926M33.0506,22.5926c3.0312,21.01593 8.25473,43.9927 15.6706,68.9303c14.79233,49.74273 33.06993,84.31743 54.8328,103.7241c15.81267,14.13133 37.71233,28.78533 65.699,43.962c24.10867,13.07333 46.00733,23.115 65.696,30.125c6.55933,2.33533 15.67233,5.99867 27.339,10.99c14.47,6.18933 25.20533,10.23733 32.206,12.144c11.338,3.08867 22.145,3.93933 32.421,2.552c18.354,-2.47733 37.20033,-8.23833 56.539,-17.283c18.74067,-8.76467 36.835,-20.08233 54.283,-33.953c17.39933,-13.83267 33.00067,-29.28467 46.804,-46.356c14.17733,-17.53467 25.55767,-35.68 34.141,-54.436l2.728,1.249c-8.688,18.98467 -20.2,37.34267 -34.536,55.074c-13.942,17.242 -29.69867,32.84767 -47.27,46.817c-17.63133,14.01667 -35.92433,25.45767 -54.879,34.323c-19.61467,9.17333 -38.751,15.01933 -57.409,17.538c-10.67733,1.44133 -21.88067,0.56467 -33.61,-2.63c-7.13467,-1.94333 -18.00033,-6.037 -32.597,-12.281c-11.61,-4.966 -20.66533,-8.60667 -27.166,-10.922c-19.83533,-7.06133 -41.87533,-17.16567 -66.12,-30.313c-28.192,-15.28867 -50.28033,-30.07567 -66.265,-44.361c-22.18727,-19.78467 -40.75807,-54.82067 -55.7124,-105.108c-7.45747,-25.07747 -12.71223,-48.19653 -15.7643,-69.3572z"></path><path  id="路径 45" style="fill:#362F2F; opacity:1;" d="M35.9156,21.9539M35.9156,21.9539c3.242,19.43527 8.75207,40.75907 16.5302,63.9714c15.51633,46.30513 34.53573,78.80203 57.0582,97.4907c15.74533,13.074 36.86967,26.44 63.373,40.098c23.83933,12.28467 45.215,21.46067 64.127,27.528c6.22,1.99667 14.92333,5.13567 26.11,9.417c14.488,5.54533 25.23033,9.15533 32.227,10.83c11.34667,2.71533 22.09433,3.34767 32.243,1.897c38.30267,-5.474 75.85867,-22.40267 112.668,-50.786c17.158,-13.23 32.41767,-27.862 45.779,-43.896c13.58133,-16.298 24.24833,-32.91067 32.001,-49.838l2.728,1.249c-7.86467,17.17 -18.673,34.00667 -32.425,50.51c-13.502,16.20267 -28.919,30.98633 -46.251,44.351c-37.22667,28.70467 -75.252,45.83133 -114.076,51.38c-10.526,1.50467 -21.64767,0.855 -33.365,-1.949c-7.12467,-1.70533 -17.992,-5.354 -32.602,-10.946c-11.13467,-4.262 -19.78567,-7.38267 -25.953,-9.362c-19.07067,-6.118 -40.599,-15.35767 -64.585,-27.719c-26.69733,-13.75733 -48.00233,-27.24233 -63.915,-40.455c-22.9606,-19.05267 -42.2895,-52.0015 -57.9867,-98.8465c-7.82853,-23.36247 -13.3768,-44.83947 -16.6448,-64.431z"></path><path  id="路径 46" style="fill:#362F2F; opacity:1;" d="M38.7801,21.3113M38.7801,21.3113c3.4388,17.8772 9.2238,37.5652 17.355,59.064c16.22267,42.89247 35.98797,73.2957 59.2959,91.2097c15.67733,12.044 36.02267,24.13867 61.036,36.284c23.382,11.35267 44.24267,19.647 62.582,24.883c5.82667,1.66333 14.03933,4.27867 24.638,7.846c14.56933,4.904 25.36433,8.07733 32.385,9.52c11.39867,2.342 22.12267,2.75633 32.172,1.243c39.33467,-5.92667 77.51,-22.71033 114.526,-50.351c16.91667,-12.632 31.837,-26.448 44.761,-41.448c12.98933,-15.07667 22.94333,-30.17067 29.862,-45.282l2.728,1.249c-7.03667,15.36933 -17.14233,30.69967 -30.317,45.991c-13.06733,15.166 -28.147,29.13067 -45.239,41.894c-37.41867,27.94067 -76.04367,44.912 -115.875,50.914c-10.40133,1.566 -21.47533,1.142 -33.222,-1.272c-7.14,-1.46667 -18.05267,-4.67167 -32.738,-9.615c-10.55467,-3.55267 -18.723,-6.154 -24.505,-7.804c-18.50667,-5.284 -39.52933,-13.64033 -63.068,-25.069c-25.19667,-12.23467 -45.71467,-24.436 -61.554,-36.604c-23.7588,-18.26133 -43.8501,-49.1038 -60.2739,-92.5274c-8.19207,-21.65967 -14.02373,-41.51253 -17.495,-59.5586z"></path><path  id="路径 47" style="fill:#362F2F; opacity:1;" d="M41.6418,20.6647M41.6418,20.6647c3.6148,16.34347 9.6596,34.41383 18.1344,54.2111c16.91213,39.5068 37.4444,67.79953 61.5968,84.8782c15.58133,11.02267 35.13333,21.86067 58.656,32.514c22.804,10.32867 43.15767,17.727 61.061,22.195c5.372,1.33667 13.008,3.43833 22.908,6.305c14.71133,4.25867 25.603,6.991 32.675,8.197c11.49867,1.96 22.24167,2.14733 32.229,0.562c40.31533,-6.39067 79.10633,-23.03033 116.373,-49.919c16.668,-12.026 31.249,-25.01733 43.743,-38.974c12.40133,-13.85267 21.643,-27.41933 27.725,-40.7l2.728,1.249c-6.208,13.556 -15.614,27.37333 -28.218,41.452c-12.63867,14.118 -27.37967,27.25333 -44.223,39.406c-37.65267,27.16667 -76.872,43.983 -117.658,50.449c-10.312,1.63733 -21.37967,1.448 -33.203,-0.568c-7.18333,-1.22467 -18.185,-3.98233 -33.005,-8.273c-9.864,-2.85533 -17.464,-4.947 -22.8,-6.275c-18.07933,-4.51267 -38.60367,-11.97033 -61.573,-22.373c-23.696,-10.732 -43.41267,-21.66467 -59.15,-32.798c-24.61393,-17.40467 -45.48817,-46.1202 -62.6227,-86.1466c-8.54853,-19.96947 -14.65043,-38.21743 -18.3057,-54.7439z"></path><path  id="路径 48" style="fill:#362F2F; opacity:1;" d="M44.5006,20.002M44.5006,20.002c3.7748,14.83767 10.06613,31.31183 18.874,49.4225c17.5828,36.15367 38.88827,62.3195 63.9164,78.4975c15.506,10.014 34.26333,19.61233 56.272,28.795c22.14533,9.24 42.00033,15.72233 59.565,19.447c4.79267,1.01733 11.669,2.609 20.629,4.775c14.98667,3.62333 26.07233,5.91933 33.257,6.888c11.69533,1.57733 22.544,1.53233 32.546,-0.135c41.23667,-6.86533 80.64667,-23.37 118.23,-49.514c16.41133,-11.416 30.65667,-23.58033 42.736,-36.493c11.81733,-12.63267 20.34633,-24.66863 25.587,-36.1079l2.728,1.2495c-5.37667,11.73493 -14.08467,24.03773 -26.124,36.9084c-12.224,13.06667 -26.62867,25.36867 -43.214,36.906c-37.95333,26.40067 -77.76967,43.07067 -119.449,50.01c-10.29933,1.71733 -21.44633,1.767 -33.441,0.149c-7.28667,-0.98267 -18.47367,-3.29767 -33.561,-6.945c-8.93267,-2.15933 -15.78133,-3.74467 -20.546,-4.756c-17.748,-3.764 -37.78067,-10.30167 -60.098,-19.613c-22.17333,-9.25133 -41.08833,-18.93267 -56.745,-29.044c-25.49713,-16.48067 -47.15923,-43.04913 -64.9863,-79.7054c-8.8972,-18.29433 -15.25837,-34.9593 -19.0835,-49.9949z"></path><path  id="路径 49" style="fill:#362F2F; opacity:1;" d="M47.3569,19.3438M47.3569,19.3438c3.9186,13.3614 10.4442,28.26137 19.5768,44.6999c18.24047,32.8322 40.33457,56.8483 66.2823,72.0483c15.366,8.98733 33.32033,17.36233 53.863,25.125c21.38,8.07867 40.74233,13.63233 58.087,16.661c4.07733,0.71067 9.985,1.813 17.723,3.307c15.42467,2.97867 26.81867,4.83033 34.182,5.555c12,1.18067 23.04967,0.89 33.149,-0.872c42.07533,-7.34267 82.101,-23.71967 120.077,-49.131c16.14,-10.80067 30.05133,-22.13667 41.734,-34.008c11.238,-11.41953 19.05567,-21.92557 23.453,-31.5181l2.727,1.2501c-4.54333,9.91173 -12.557,20.7024 -24.041,32.372c-11.82667,12.01733 -25.895,23.483 -42.205,34.397c-38.32733,25.64733 -78.73733,42.17867 -121.23,49.594c-10.36733,1.80867 -21.68633,2.109 -33.957,0.901c-7.456,-0.73333 -18.94167,-2.598 -34.457,-5.594c-7.72,-1.49067 -13.61067,-2.58967 -17.672,-3.297c-17.53067,-3.062 -37.074,-8.66567 -58.63,-16.811c-20.70067,-7.822 -38.80733,-16.26967 -54.32,-25.343c-26.41913,-15.476 -48.88173,-39.86913 -67.3878,-73.1794c-9.24073,-16.6332 -15.85177,-31.73737 -19.8331,-45.3125z"></path><path  id="路径 50" style="fill:#362F2F; opacity:1;" d="M50.2081,18.7312M50.2081,18.7312c4.04773,11.93513 10.796,25.29863 20.2448,40.0905c18.88533,29.5642 41.77903,51.39497 68.6811,65.4923c15.20467,7.948 32.35133,15.117 51.44,21.507c20.54467,6.87667 39.42333,11.48533 56.636,13.826c3.038,0.41267 7.49433,1.04433 13.369,1.895c16.19333,2.344 28.14267,3.75467 35.848,4.232c12.57467,0.77867 24.05833,0.21967 34.451,-1.677c42.82267,-7.826 83.46267,-24.08433 121.92,-48.775c15.842,-10.17133 29.42,-20.67477 40.734,-31.5103c10.658,-10.20813 17.75867,-19.1793 21.302,-26.9135l2.727,1.2495c-3.70267,8.08147 -11.02067,17.35833 -21.954,27.8306c-11.454,10.9698 -25.18333,21.59237 -41.188,31.8677c-38.79,24.90467 -79.79067,41.30567 -123.002,49.203c-10.63267,1.94 -22.358,2.513 -35.176,1.719c-7.78733,-0.48267 -19.818,-1.90167 -36.092,-4.257c-5.86533,-0.84933 -10.31333,-1.48 -13.344,-1.892c-17.39867,-2.36533 -36.46,-7.01667 -57.184,-13.954c-19.23933,-6.44 -36.53267,-13.671 -51.88,-21.693c-27.3726,-14.34467 -50.6447,-36.5231 -69.8163,-66.5353c-9.5794,-14.99633 -16.43193,-28.577 -20.5576,-40.742z"></path><path  id="路径 51" style="fill:#362F2F; opacity:1;" d="M53.0531,18.0045M53.0531,18.0045c4.16,10.5722 11.1199,22.44943 20.8797,35.6317c19.52413,26.37067 43.24487,45.9856 71.1622,58.8448c14.93867,6.87533 31.29033,12.86133 49.055,17.958c19.626,5.63133 38.00633,9.272 55.141,10.922c1.38667,0.134 3.44533,0.33467 6.176,0.602c17.676,1.732 30.69433,2.708 39.055,2.928c13.65267,0.35867 26.014,-0.51833 37.084,-2.631c43.442,-8.3 84.69333,-24.44233 123.754,-48.427c15.50133,-9.51853 28.74967,-19.18637 39.745,-29.0035c10.082,-9.00193 16.46467,-16.4384 19.148,-22.3094l2.729,1.2473c-2.858,6.25213 -9.48433,14.0188 -19.879,23.3c-11.12867,9.93613 -24.51967,19.71017 -40.173,29.3221c-39.37267,24.17633 -80.96,40.44883 -124.762,48.8175c-11.28133,2.15333 -23.856,3.04767 -37.724,2.683c-8.43267,-0.222 -21.52267,-1.20233 -39.27,-2.941c-2.73067,-0.268 -4.78767,-0.46867 -6.171,-0.602c-17.31733,-1.668 -35.87767,-5.34267 -55.681,-11.024c-17.91067,-5.13867 -34.40467,-11.17767 -49.482,-18.117c-28.38267,-13.07373 -52.48877,-33.00197 -72.3183,-59.7847c-9.91687,-13.3944 -17.00363,-25.5005 -21.2603,-36.3183z"></path><path  id="路径 52" style="fill:#362F2F; opacity:1;" d="M55.9421,17.3202M55.9421,17.3202c4.26533,9.2622 11.42717,19.6895 21.4855,31.2819c20.1436,23.2156 44.6684,40.54923 73.5744,52.0009c33.00533,13.05867 66.44233,20.53433 100.311,22.427c17.61467,0.98 31.50067,1.38633 41.658,1.219c14.42133,-0.238 27.51667,-1.52867 39.286,-3.872c43.88133,-8.76267 85.74367,-24.80647 125.587,-48.1314c15.06533,-8.81947 27.98967,-17.6472 38.773,-26.4832c9.50667,-7.7906 15.173,-13.67723 16.999,-17.6599l2.727,1.2503c-2.01867,4.403 -7.96033,10.64633 -17.825,18.73c-10.904,8.93567 -23.95667,17.85293 -39.158,26.7518c-40.13333,23.49427 -82.30567,39.65573 -126.517,48.4844c-11.94667,2.37933 -25.22067,3.68933 -39.822,3.93c-10.23,0.16867 -24.18833,-0.23933 -41.875,-1.224c-34.192,-1.91067 -67.94167,-9.455 -101.249,-22.633c-29.36,-11.6314 -54.2718,-29.23933 -74.7354,-52.8238c-10.24507,-11.80767 -17.5599,-22.47203 -21.9445,-31.9931z"></path><path  id="路径 53" style="fill:#362F2F; opacity:1;" d="M58.7174,16.6283M58.7174,16.6283c4.36547,8.0326 11.7272,17.0729 22.0852,27.1209c20.77027,20.14833 46.11907,35.15527 76.0464,45.0208c31.173,10.0896 63.684,15.486 96.453,15.985c31.13933,0.42867 57.66333,-1.63763 79.572,-6.1989c44.09667,-9.19993 86.565,-25.15287 127.405,-47.8588c14.42933,-8.02207 27.032,-16.006 37.808,-23.9518c8.93,-6.584 13.873,-10.91923 14.829,-13.0057l2.727,1.2495c-1.17067,2.5564 -6.429,7.28003 -15.775,14.1709c-10.88,8.02193 -23.59033,16.07497 -38.131,24.1591c-41.106,22.8536 -83.85667,38.9115 -128.252,48.1737c-22.12333,4.606 -48.866,6.693 -80.228,6.261c-33.068,-0.503 -65.875,-5.948 -97.347,-16.1348c-30.364,-10.0094 -56.0961,-25.2483 -77.1963,-45.7167c-10.57693,-10.2604 -18.121,-19.54097 -22.6322,-27.8417z"></path><path  id="路径 54" style="fill:#362F2F; opacity:1;" d="M61.527,15.923M61.527,15.923c1.98827,3.06127 5.24027,6.893 9.756,11.4952c9.08247,9.2564 19.92647,17.6726 32.532,25.2486c40.43733,24.3022 90.94067,35.57013 151.51,33.8038c60.65733,-1.76493 121.76567,-16.9117 183.325,-45.4403c19.24,-8.9166 37.36867,-18.6361 54.386,-29.1585c8.49733,-5.25367 15.066,-9.61167 19.706,-13.07401l1.794,2.40442c-4.71,3.51459 -11.35067,7.92168 -19.922,13.22129c-17.11933,10.5854 -35.35367,20.36163 -54.703,29.3287c-61.932,28.70133 -123.43133,43.94037 -184.498,45.7171c-61.156,1.78347 -112.20367,-9.6269 -153.143,-34.2311c-12.82447,-7.70747 -23.86727,-16.28043 -33.1284,-25.7189c-4.65613,-4.74533 -8.03297,-8.73277 -10.1305,-11.9623z"></path></g><g opacity="1"  transform="translate(-136 168)  rotate(0)"><path  id="路径 21" style="fill:#362F2F; opacity:1;" d="M131.451,20.7367M131.451,20.7367c18.128,15.2346 36.254,32.39687 54.378,51.4868c36.44467,38.38767 54.667,67.40817 54.667,87.0615c0,13.10733 -5.55,29.16267 -16.65,48.166c-6.55133,11.21533 -18.306,28.20167 -35.264,50.959c-2.90667,3.90133 -5.07667,6.82033 -6.51,8.757l-57.49,77.72l-2.412,-1.784l57.49,-77.72c1.434,-1.938 3.60633,-4.85967 6.517,-8.765c16.89133,-22.668 28.584,-39.56133 35.078,-50.68c10.82733,-18.536 16.241,-34.087 16.241,-46.653c0,-18.85533 -17.94767,-47.18733 -53.843,-84.996c-18.046,-19.00827 -36.09,-36.0935 -54.132,-51.2557z"></path><path  id="路径 22" style="fill:#362F2F; opacity:1;" d="M122.16,18.7006M122.16,18.7006c18.22667,15.14107 36.45133,32.20997 54.674,51.2067c36.64533,38.2018 54.968,67.1307 54.968,86.7867c0,13.332 -5.80033,29.57933 -17.401,48.742c-6.838,11.296 -19.079,28.33567 -36.723,51.119c-2.39933,3.098 -4.192,5.41633 -5.378,6.955l-58.946,77.165l-2.384,-1.821l58.954,-77.176c1.188,-1.54067 2.982,-3.86067 5.382,-6.96c17.57333,-22.69267 29.74933,-39.63767 36.528,-50.835c11.312,-18.68533 16.968,-34.415 16.968,-47.189c0,-18.852 -18.04433,-47.08867 -54.133,-84.71c-18.144,-18.9148 -36.286,-35.9067 -54.426,-50.9757z"></path><path  id="路径 23" style="fill:#362F2F; opacity:1;" d="M112.881,16.7384M112.881,16.7384c18.32467,15.0514 36.64633,32.02983 54.965,50.9353c36.842,38.02087 55.263,66.85897 55.263,86.5143c0,13.52533 -6.03233,29.91333 -18.097,49.164c-7.10467,11.336 -19.801,28.37533 -38.089,51.118c-1.95667,2.43333 -3.418,4.252 -4.384,5.456c-21.48933,26.82533 -41.624,52.352 -60.404,76.58v0l-2.3714,-1.837l0.0002,-0.001c18.78947,-24.24067 38.93453,-49.78033 60.4352,-76.619c0.96667,-1.20533 2.42867,-3.025 4.386,-5.459c18.214,-22.65067 30.84233,-39.59433 37.885,-50.831c11.75933,-18.764 17.639,-34.621 17.639,-47.571c0,-18.84533 -18.139,-46.98753 -54.417,-84.4266c-18.24,-18.82393 -36.47833,-35.7255 -54.715,-50.7047z"></path><path  id="路径 24" style="fill:#362F2F; opacity:1;" d="M103.562,14.7506M103.562,14.7506c18.426,14.9576 36.84967,31.84263 55.271,50.6551c37.04867,37.83487 55.573,66.5813 55.573,86.2393c0,13.736 -6.28933,30.28567 -18.868,49.649c-7.4,11.39067 -20.596,28.44367 -39.588,51.159c-1.432,1.71267 -2.50267,2.994 -3.212,3.844c-21.99,26.40067 -42.61197,51.754 -61.8659,76.06l-2.3516,-1.863c19.26967,-24.32533 39.90783,-49.69867 61.9145,-76.12c0.712,-0.85267 1.783,-2.13433 3.213,-3.845c18.91467,-22.62267 32.03933,-39.57933 39.374,-50.87c12.256,-18.866 18.384,-34.87067 18.384,-48.014c0,-18.842 -18.23867,-46.88877 -54.716,-84.1403c-18.342,-18.73093 -36.68167,-35.53923 -55.019,-50.4249z"></path><path  id="路径 25" style="fill:#362F2F; opacity:1;" d="M94.3016,12.7517M94.3016,12.7517c18.5236,14.8662 37.0444,31.65953 55.5624,50.38c37.246,37.6522 55.869,66.30897 55.869,85.9703c0,13.948 -6.551,30.65667 -19.653,50.126c-7.7,11.442 -21.40133,28.50133 -41.104,51.178c-0.86867,1.00067 -1.52567,1.757 -1.971,2.269c-22.44067,25.872 -43.5289,51.038 -63.2647,75.498h-0.0001l-2.3349,-1.883l0.0002,-0.001c19.75767,-24.488 40.86917,-49.68167 63.3345,-75.581c0.45667,-0.52533 1.114,-1.282 1.972,-2.27c19.62133,-22.584 33.24767,-39.54567 40.879,-50.885c12.76133,-18.96267 19.142,-35.113 19.142,-48.451c0,-18.83933 -18.334,-46.79283 -55.002,-83.8605c-18.43733,-18.639 -36.87303,-35.3557 -55.3071,-50.1501z"></path><path  id="路径 26" style="fill:#362F2F; opacity:1;" d="M85.0172,10.7522M85.0172,10.7522c18.62187,14.77413 37.24147,31.47613 55.8588,50.106c37.446,37.4712 56.169,66.0408 56.169,85.7088c0,14.14267 -6.81067,30.983 -20.432,50.521c-7.99667,11.47067 -22.199,28.50533 -42.607,51.104c-0.26933,0.29867 -0.52533,0.58233 -0.768,0.851c-22.96433,25.46933 -44.5598,50.45233 -64.7864,74.949l-2.3133,-1.91c20.2532,-24.52933 41.87777,-49.546 64.8737,-75.05c0.308,-0.34133 0.564,-0.625 0.768,-0.851c20.32333,-22.50533 34.44733,-39.44167 42.372,-50.809c13.262,-19.022 19.893,-35.29033 19.893,-48.805c0,-18.84 -18.43033,-46.7027 -55.291,-83.5881c-18.536,-18.54847 -37.0698,-35.17397 -55.6014,-49.8765z"></path><path  id="路径 27" style="fill:#362F2F; opacity:1;" d="M75.7431,8.76504M75.7431,8.76504c18.71927,14.68077 37.4359,31.28939 56.1499,49.82586c37.64267,37.2854 56.464,65.76343 56.464,85.4341c0,14.28067 -7.00933,31.16 -21.028,50.638c-8.33,11.57267 -22.94933,28.49233 -43.858,50.759c-23.42547,24.99067 -45.49753,49.78733 -66.2162,74.39l-2.2947,-1.933c20.753,-24.64267 42.86097,-49.47933 66.3239,-74.51c20.82,-22.172 35.35667,-38.99167 43.61,-50.459c13.642,-18.95467 20.463,-35.24967 20.463,-48.885c0,-18.83667 -18.525,-46.60423 -55.575,-83.3027c-18.632,-18.455 -37.2621,-34.98723 -55.8903,-49.5967z"></path><path  id="路径 28" style="fill:#362F2F; opacity:1;" d="M66.4556,6.76434M66.4556,6.76434c18.81753,14.58391 37.633,31.09536 56.4464,49.53436c37.84333,37.09087 56.765,65.4713 56.765,85.1413c0,14.31667 -7.105,31.08633 -21.315,50.309c-8.674,11.73333 -23.558,28.403 -44.652,50.009c-23.8472,24.55267 -46.41283,49.17967 -67.6969,73.881v0l-2.2728,-1.958h0.0001c21.3228,-24.74667 43.93033,-49.41967 67.8226,-74.019c20.99867,-21.508 35.794,-38.07333 44.386,-49.696c13.81867,-18.69333 20.728,-34.86867 20.728,-48.526c0,-18.83 -18.62167,-46.49627 -55.865,-82.9988c-18.73033,-18.35767 -37.4584,-34.79288 -56.1842,-49.30564z"></path><path  id="路径 29" style="fill:#362F2F; opacity:1;" d="M57.1636,4.76678M57.1636,4.76678c18.91633,14.49881 37.83047,30.92519 56.7424,49.27912c38.04333,36.9214 57.065,65.21843 57.065,84.8911c0,14.348 -7.201,31.00667 -21.603,49.976c-8.972,11.81733 -24.11333,28.23467 -45.424,49.252c-24.3746,24.05533 -47.43287,48.48567 -69.1748,73.291v0l-2.2561,-1.977h0.0001c21.78973,-24.86 44.898,-49.34333 69.3248,-73.45c21.20867,-20.91667 36.25567,-37.22667 45.141,-48.93c13.99467,-18.43333 20.992,-34.48733 20.992,-48.162c0,-18.82667 -18.71833,-46.4061 -56.155,-82.7383c-18.8278,-18.27267 -37.6536,-34.62296 -56.4774,-49.05088z"></path><path  id="路径 30" style="fill:#362F2F; opacity:1;" d="M47.8763,2.77963M47.8763,2.77963c19.00987,14.40525 38.01777,30.7382 57.0237,48.99887c38.23333,36.735 57.35,64.9405 57.35,84.6165c0,14.38267 -7.29567,30.93067 -21.887,49.644c-9.28533,11.90867 -24.6954,28.07667 -46.2302,48.504c-24.82127,23.56467 -48.35907,47.80833 -70.6134,72.731v0l-2.2379,-1.998h0.0001c22.30907,-24.984 45.90457,-49.287 70.7865,-72.909c21.42593,-20.32467 36.7359,-36.38233 45.9299,-48.173c14.16867,-18.17133 21.25267,-34.10433 21.252,-47.799c0,-18.824 -18.80967,-46.3084 -56.429,-82.4532c-18.92113,-18.17953 -37.84,-34.43657 -56.7566,-48.77112z"></path><path  id="路径 31" style="fill:#362F2F; opacity:1;" d="M38.5925,0.78183M38.5925,0.78183c19.1136,14.31345 38.2251,30.55507 57.3345,48.72487c38.444,36.5542 57.666,64.67263 57.666,84.3553c0,14.41133 -7.393,30.84767 -22.179,49.309c-9.59133,11.976 -25.26793,27.88933 -47.0298,47.74c-25.29827,23.10933 -49.31857,47.16967 -72.0609,72.181h-0.0001l-2.2197,-2.019h0.0002c22.8046,-25.07933 46.89087,-49.20567 72.2588,-72.379c21.64633,-19.74533 37.2165,-35.54467 46.7105,-47.398c14.34667,-17.91333 21.52,-33.72467 21.52,-47.434c0,-18.82467 -18.91107,-46.2184 -56.7332,-82.1812c-19.02427,-18.0888 -38.0461,-34.25469 -57.0655,-48.49766z"></path><path  id="路径 32" style="fill:#362F2F; opacity:1;" d="M29.3124,-1.20564M29.3124,-1.20564c19.21053,14.21989 38.41907,30.36807 57.6256,48.44454c38.64133,36.36807 57.962,64.3951 57.962,84.0811c0,14.43867 -7.48933,30.76433 -22.468,48.977c-9.848,11.974 -25.78193,27.63733 -47.8018,46.99c-25.7754,22.636 -50.28518,46.51 -73.52935,71.622h0.00006l-2.20181,-2.038h0.00015c23.31443,-25.18733 47.89795,-49.13333 73.75055,-71.838c21.8988,-19.24533 37.72053,-34.79267 47.4652,-46.642c14.52333,-17.65867 21.785,-33.349 21.785,-47.071c0,-18.822 -19.006,-46.12083 -57.018,-81.8965c-19.12067,-17.99553 -38.2388,-34.06815 -57.3544,-48.21786z"></path></g><g opacity="1"  transform="translate(728 -227)  rotate(0)"><path  id="路径 55" style="fill:#362F2F; opacity:1;" d="M365.638,310.362M365.638,310.362c-49.42667,41.90067 -94.78933,84.433 -136.088,127.597c-39.878,41.67867 -73.24167,81.07433 -100.091,118.187c-26.80487,37.05133 -45.02663,68.93333 -54.6653,95.646c-9.83327,27.252 -9.9564,47.00433 -0.3694,59.257c9.58547,12.25133 28.1927,16.123 55.8217,11.615c27.082,-4.418 60.765,-16.53867 101.049,-36.362c40.35267,-19.858 84.17033,-45.892 131.453,-78.102c48.97067,-33.36067 98.16933,-70.991 147.596,-112.891c49.42467,-41.89933 94.78733,-84.43167 136.088,-127.597c39.878,-41.67867 73.24167,-81.074 100.091,-118.186c26.80733,-37.05333 45.03,-68.93433 54.668,-95.643c9.834,-27.25133 9.95833,-47.0024 0.373,-59.2532c-9.58733,-12.2532 -28.19567,-16.1265 -55.825,-11.6199c-27.082,4.41753 -60.76567,16.53757 -101.051,36.3601c-40.34933,19.85467 -84.16733,45.88833 -131.454,78.101c-48.96933,33.35867 -98.168,70.989 -147.596,112.891zM363.79,307.999c49.50533,-41.96733 98.787,-79.661 147.845,-113.081c47.4,-32.29 91.337,-58.393 131.811,-78.309c40.54333,-19.94967 74.49633,-32.15603 101.859,-36.6191c28.73933,-4.68767 48.255,-0.45437 58.547,12.6999c10.29,13.15213 10.32067,33.90087 0.092,62.2462c-9.74,26.98867 -28.098,59.12667 -55.074,96.414c-26.93333,37.22733 -60.38667,76.73 -100.36,118.508c-41.372,43.24133 -86.81133,85.846 -136.318,127.814c-49.50533,41.96733 -98.787,79.661 -147.845,113.081c-47.39667,32.288 -91.33367,58.39133 -131.811,78.31c-40.54133,19.95 -74.49367,32.157 -101.857,36.621c-28.73827,4.68867 -48.25263,0.457 -58.5431,-12.695c-10.29207,-13.154 -10.32397,-33.90433 -0.0957,-62.251c9.73867,-26.98933 28.09627,-59.128 55.0728,-96.416c26.932,-37.22667 60.385,-76.72967 100.359,-118.509c41.372,-43.24067 86.81133,-85.84533 136.318,-127.814z"></path><path  id="路径 56" style="fill:#362F2F; opacity:1;" d="M369.971,314.807M369.971,314.807c-47.576,40.332 -91.23167,81.28167 -130.967,122.849c-38.36667,40.13533 -70.45733,78.08167 -96.272,113.839c-25.77,35.694 -43.27473,66.41767 -52.5142,92.171c-9.42147,26.25933 -9.50393,45.30433 -0.2474,57.135c9.2564,11.83067 27.19093,15.602 53.8036,11.314c26.09867,-4.20467 58.54733,-15.828 97.346,-34.87c38.866,-19.07533 81.063,-44.105 126.591,-75.089c47.15,-32.088 94.51367,-68.29833 142.091,-108.631c47.576,-40.332 91.23167,-81.28133 130.967,-122.848c38.36867,-40.138 70.45933,-78.08433 96.272,-113.839c25.77,-35.69533 43.27467,-66.419 52.514,-92.171c9.42133,-26.26067 9.50367,-45.306 0.247,-57.136c-9.25667,-11.83013 -27.191,-15.60147 -53.803,-11.314c-26.098,4.204 -58.547,15.82733 -97.347,34.87c-38.866,19.07533 -81.063,44.105 -126.591,75.089c-47.15133,32.09 -94.51467,68.30033 -142.09,108.631zM368.122,312.445c47.65467,-40.39867 95.10167,-76.67267 142.341,-108.822c45.64467,-31.064 87.96133,-56.16333 126.95,-75.298c39.058,-19.169 71.777,-30.87863 98.157,-35.1289c27.72067,-4.46587 46.56067,-0.33423 56.52,12.3949c9.96067,12.72933 10.034,32.77067 0.22,60.124c-9.34067,26.03067 -26.981,57.01233 -52.921,92.945c-25.89533,35.86867 -58.076,73.92267 -96.542,114.162c-39.80733,41.64333 -83.53967,82.66533 -131.197,123.066c-47.65733,40.40067 -95.10433,76.67467 -142.341,108.822c-45.64333,31.062 -87.96,56.16133 -126.95,75.298c-39.05667,19.16867 -71.77567,30.878 -98.157,35.128c-27.72,4.466 -46.56,0.33433 -56.52,-12.395c-9.95993,-12.73 -10.03317,-32.771 -0.2197,-60.123c9.3398,-26.03133 26.98003,-57.01333 52.9207,-92.946c25.898,-35.87133 58.07867,-73.92533 96.542,-114.162c39.80933,-41.64467 83.54167,-82.66633 131.197,-123.065z"></path><path  id="路径 57" style="fill:#362F2F; opacity:1;" d="M374.303,319.253M374.303,319.253c-45.72267,38.76133 -87.67,78.127 -125.842,118.097c-36.856,38.59267 -67.674,75.08967 -92.454,109.491c-24.73467,34.33867 -41.52267,63.90467 -50.364,88.698c-9.0102,25.268 -9.05253,43.606 -0.127,55.014c8.92733,11.41 26.18933,15.08067 51.786,11.012c25.116,-3.99267 56.33067,-15.12 93.644,-33.382c37.37933,-18.29467 77.95467,-42.32133 121.726,-72.08c45.33,-30.818 90.85733,-65.608 136.582,-104.37c45.72267,-38.76067 87.67,-78.12567 125.842,-118.095c36.85733,-38.59333 67.676,-75.08967 92.456,-109.489c24.73467,-34.33867 41.52267,-63.90467 50.364,-88.698c9.01,-25.26867 9.05133,-43.60767 0.124,-55.017c-8.92533,-11.40867 -26.18633,-15.07833 -51.783,-11.009c-25.11533,3.992 -56.33,15.11933 -93.644,33.382c-37.382,18.29533 -77.958,42.321 -121.728,72.077c-45.334,30.82067 -90.86133,65.61033 -136.582,104.369zM372.454,316.891c45.80267,-38.828 91.41433,-73.68167 136.835,-104.561c43.88467,-29.83467 84.58067,-53.93033 122.088,-72.287c37.57267,-18.38867 69.05867,-29.602 94.458,-33.64c26.70067,-4.244 44.865,-0.21367 54.493,12.091c9.63,12.30667 9.74533,31.63967 0.346,57.999c-8.94133,25.07333 -25.86533,54.89833 -50.772,89.475c-24.86267,34.51533 -55.77133,71.12033 -92.726,109.815c-38.24467,40.04533 -80.26933,79.483 -126.074,118.313c-45.80533,38.83067 -91.41633,73.68467 -136.833,104.562c-43.88667,29.83667 -84.58233,53.933 -122.087,72.289c-37.57333,18.38933 -69.059,29.60267 -94.457,33.64c-26.702,4.24467 -44.86767,0.21333 -54.497,-12.094c-9.62753,-12.30467 -9.74187,-31.63667 -0.343,-57.996c8.94133,-25.07267 25.86533,-54.89767 50.772,-89.475c24.862,-34.51533 55.77,-71.121 92.724,-109.817c38.24533,-40.04733 80.26967,-79.48533 126.073,-118.314z"></path><path  id="路径 58" style="fill:#362F2F; opacity:1;" d="M378.633,323.693M378.633,323.693c-43.87067,37.19067 -84.111,74.97267 -120.721,113.346c-35.346,37.04933 -64.892,72.096 -88.638,105.14c-23.70067,32.98133 -39.772,61.38833 -48.214,85.221c-8.59867,24.27467 -8.60067,41.905 -0.006,52.891c8.59733,10.98733 25.18567,14.556 49.765,10.706c24.13133,-3.77933 54.11133,-14.41 89.94,-31.892c35.896,-17.51533 74.85,-40.53767 116.862,-69.067c43.514,-29.55067 87.206,-62.921 131.076,-100.111c43.87267,-37.192 84.112,-74.97333 120.718,-113.344c35.34867,-37.05267 64.89467,-72.09967 88.638,-105.141c23.69933,-32.98133 39.77067,-61.38967 48.214,-85.225c8.59867,-24.276 8.59967,-41.908 0.003,-52.896c-8.59467,-10.986 -25.182,-14.553 -49.762,-10.701c-24.132,3.78133 -54.11167,14.41333 -89.939,31.896c-35.89467,17.51533 -74.84867,40.53833 -116.862,69.069c-43.512,29.548 -87.20333,62.91733 -131.074,100.108zM376.785,321.33c43.95133,-37.25933 87.72667,-70.69267 131.326,-100.3c42.12933,-28.60933 81.20433,-51.70233 117.225,-69.279c36.088,-17.60933 66.34,-28.32733 90.756,-32.154c25.68267,-4.024 43.17133,-0.096 52.466,11.784c9.29667,11.88267 9.453,30.50667 0.469,55.872c-8.542,24.11533 -24.74933,52.784 -48.622,86.006c-23.82667,33.15733 -53.463,68.31333 -88.909,105.468c-36.67933,38.44733 -76.996,76.30167 -120.95,113.563c-43.952,37.25867 -87.72867,70.693 -131.33,100.303c-42.128,28.60867 -81.20267,51.701 -117.224,69.277c-36.08933,17.60933 -66.34167,28.326 -90.757,32.15c-25.68267,4.02267 -43.17233,0.093 -52.469,-11.789c-9.29533,-11.88067 -9.45067,-30.503 -0.466,-55.867c8.542,-24.11333 24.74933,-52.78067 48.622,-86.002c23.828,-33.15867 53.46433,-68.31433 88.909,-105.467c36.684,-38.45067 77.002,-76.30567 120.954,-113.565z"></path><path  id="路径 59" style="fill:#362F2F; opacity:1;" d="M382.965,328.139M382.965,328.139c-42.01867,35.62 -80.55033,71.818 -115.595,108.594c-33.83667,35.50733 -62.11,69.105 -84.82,100.793c-22.66533,31.626 -38.01933,58.87633 -46.062,81.751c-8.18733,23.284 -8.148,40.20867 0.118,50.774c8.26667,10.56533 24.18133,14.03167 47.744,10.399c23.14867,-3.56867 51.89367,-13.70433 86.235,-30.407c34.40933,-16.73533 71.74133,-38.75467 111.996,-66.058c41.692,-28.278 83.548,-60.22767 125.568,-95.849c42.01933,-35.622 80.551,-71.81933 115.595,-108.592c33.83667,-35.50667 62.10967,-69.103 84.819,-100.789c22.66533,-31.624 38.01933,-58.87233 46.062,-81.745c8.18667,-23.28267 8.147,-40.20667 -0.119,-50.772c-8.266,-10.566 -24.18067,-14.033 -47.744,-10.401c-23.14733,3.56733 -51.892,13.701 -86.234,30.401c-34.40867,16.73267 -71.74067,38.75067 -111.996,66.054c-41.69267,28.27733 -83.54833,60.22633 -125.567,95.847zM381.117,325.776c42.1,-35.69 84.04033,-67.70367 125.821,-96.041c40.37133,-27.38067 77.825,-49.46867 112.361,-66.264c34.604,-16.828 63.622,-27.04733 87.054,-30.658c24.66333,-3.80067 41.47733,0.02767 50.442,11.485c8.96333,11.458 9.16067,29.37167 0.592,53.741c-8.14133,23.154 -23.631,50.664 -46.469,82.53c-22.79333,31.802 -51.15733,65.50767 -85.092,101.117c-35.118,36.85067 -73.72767,73.12133 -115.829,108.812c-42.10133,35.69067 -84.04167,67.705 -125.821,96.043c-40.37267,27.38267 -77.82633,49.47233 -112.361,66.269c-34.60333,16.83 -63.622,27.05133 -87.056,30.664c-24.66267,3.802 -41.47633,-0.02567 -50.441,-11.483c-8.96467,-11.45733 -9.16233,-29.372 -0.593,-53.744c8.142,-23.156 23.63233,-50.66733 46.471,-82.534c22.79267,-31.80467 51.15633,-65.512 85.091,-101.122c35.11867,-36.85333 73.72867,-73.125 115.83,-108.815z"></path><path  id="路径 60" style="fill:#362F2F; opacity:1;" d="M387.298,332.585M387.298,332.585c-40.16733,34.05067 -76.992,68.66567 -110.474,103.845c-32.326,33.964 -59.32633,66.112 -81.001,96.444c-21.63,30.26933 -36.267,56.36133 -43.911,78.276c-7.776,22.29267 -7.696,38.51033 0.24,48.653c7.936,10.14333 23.17767,13.50833 45.725,10.095c22.16533,-3.35533 49.676,-12.99333 82.532,-28.914c32.92533,-15.954 68.637,-36.96867 107.135,-63.044c39.87467,-27.008 79.89567,-57.53733 120.063,-91.588c40.16533,-34.04933 76.98833,-68.66333 110.469,-103.842c32.32467,-33.962 59.32433,-66.10967 80.999,-96.443c21.62867,-30.268 36.26533,-56.35933 43.91,-78.274c7.776,-22.29267 7.696,-38.51033 -0.24,-48.653c-7.936,-10.14333 -23.17767,-13.50833 -45.725,-10.095c-22.16533,3.35533 -49.67567,12.993 -82.531,28.913c-32.92533,15.954 -68.63633,36.968 -107.133,63.042c-39.87267,27.006 -79.892,57.53433 -120.058,91.585zM385.449,330.222c40.24867,-34.12 80.35367,-64.713 120.315,-91.779c38.61333,-26.15333 74.44633,-47.238 107.499,-63.254c33.11867,-16.04733 60.904,-25.77033 83.356,-29.169c23.644,-3.57933 39.782,0.14733 48.414,11.18c8.632,11.032 8.871,28.23667 0.717,51.614c-7.74267,22.198 -22.51533,48.55233 -44.318,79.063c-21.758,30.45 -48.84867,62.708 -81.272,96.774c-33.556,35.25733 -70.45733,69.945 -110.704,104.063c-40.25,34.12133 -80.35667,64.71567 -120.32,91.783c-38.61467,26.15467 -74.44833,47.24 -107.501,63.256c-33.11933,16.048 -60.905,25.77133 -83.357,29.17c-23.644,3.57933 -39.782,-0.14733 -48.414,-11.18c-8.632,-11.03267 -8.871,-28.23767 -0.717,-51.615c7.74333,-22.19733 22.51633,-48.552 44.319,-79.064c21.75867,-30.44933 48.85,-62.70767 81.274,-96.775c33.55733,-35.258 70.46033,-69.947 110.709,-104.067z"></path><path  id="路径 61" style="fill:#362F2F; opacity:1;" d="M391.638,337.049M391.638,337.049c-38.31467,32.48067 -73.43133,65.51133 -105.35,99.092c-30.81533,32.42 -56.54367,63.118 -77.185,92.094c-20.596,28.91267 -34.517,53.846 -41.763,74.8c-7.36533,21.3 -7.24533,36.81033 0.36,46.531c7.606,9.72133 22.17467,12.98433 43.706,9.789c21.18067,-3.14333 47.457,-12.28533 78.829,-27.426c31.44,-15.17333 65.53033,-35.184 102.271,-60.032c38.056,-25.73733 76.241,-54.846 114.555,-87.326c38.314,-32.48067 73.42867,-65.51033 105.344,-99.089c30.81467,-32.422 56.54133,-63.12033 77.18,-92.095c20.59467,-28.91267 34.51467,-53.84667 41.76,-74.802c7.36533,-21.30067 7.245,-36.81167 -0.361,-46.533c-7.60533,-9.72067 -22.17333,-12.983 -43.704,-9.787c-21.18,3.144 -47.45533,12.28667 -78.826,27.428c-31.43733,15.17333 -65.52633,35.18433 -102.267,60.033c-38.05267,25.736 -76.23567,54.84367 -114.549,87.323zM389.789,334.686c38.396,-32.54933 76.665,-61.72233 114.807,-87.519c36.85933,-24.92867 71.07133,-45.01033 102.636,-60.245c31.63533,-15.26867 58.187,-24.49633 79.655,-27.683c22.62467,-3.35867 38.08667,0.26567 46.386,10.873c8.29867,10.608 8.57867,27.10367 0.84,49.487c-7.34333,21.23933 -21.39933,46.43733 -42.168,75.594c-20.722,29.092 -46.54067,59.90133 -77.456,92.428c-31.98933,33.658 -67.18267,66.76233 -105.58,99.313c-38.396,32.54933 -76.66667,61.723 -114.812,87.521c-36.85933,24.928 -71.073,45.00967 -102.641,60.245c-31.636,15.268 -58.18833,24.495 -79.657,27.681c-22.62533,3.35733 -38.08767,-0.26767 -46.387,-10.875c-8.29933,-10.60733 -8.579,-27.10233 -0.839,-49.485c7.344,-21.23867 21.401,-46.436 42.171,-75.592c20.72467,-29.09333 46.54433,-59.90267 77.459,-92.428c31.994,-33.65933 67.18933,-66.764 105.586,-99.314z"></path><path  id="路径 62" style="fill:#362F2F; opacity:1;" d="M395.96,341.495M395.96,341.495c-36.462,30.91 -69.86967,62.35633 -100.223,94.339c-29.30467,30.87733 -53.75933,60.12533 -73.364,87.744c-19.56,27.556 -32.763,51.33133 -39.609,71.326c-6.95333,20.31 -6.79133,35.11533 0.486,44.416c7.27533,9.29867 21.17,12.459 41.684,9.481c20.19667,-2.93133 45.237,-11.577 75.121,-25.937c29.95467,-14.394 62.42233,-33.401 97.403,-57.021c36.236,-24.468 72.584,-52.156 109.044,-83.064c36.46133,-30.90933 69.86933,-62.35567 100.224,-94.339c29.30467,-30.87733 53.76033,-60.126 73.367,-87.746c19.56133,-27.556 32.76567,-51.33133 39.613,-71.326c6.95533,-20.30933 6.79533,-35.11333 -0.48,-44.412c-7.27733,-9.30067 -21.174,-12.46267 -41.69,-9.486c-20.19733,2.93133 -45.239,11.57733 -75.125,25.938c-29.95333,14.39267 -62.422,33.4 -97.406,57.022c-36.236,24.46733 -72.58433,52.15567 -109.045,83.065zM394.111,339.132c36.54467,-30.98 72.97967,-58.73367 109.305,-83.261c35.102,-23.70133 67.69467,-42.78 97.778,-57.236c30.152,-14.48867 55.47133,-23.21933 75.958,-26.192c21.60667,-3.13533 36.394,0.389 44.362,10.573c7.96733,10.182 8.28833,25.96733 0.963,47.356c-6.946,20.28133 -20.28633,44.32267 -40.021,72.124c-19.69067,27.73867 -44.23867,57.09933 -73.644,88.082c-30.43,32.062 -63.917,63.58333 -100.461,94.564c-36.544,30.97867 -72.97867,58.732 -109.304,83.26c-35.1,23.70067 -67.69167,42.779 -97.775,57.235c-30.15,14.488 -55.46767,23.21867 -75.953,26.192c-21.60533,3.136 -36.39133,-0.387 -44.358,-10.569c-7.968,-10.18467 -8.29033,-25.97133 -0.967,-47.36c6.944,-20.282 20.28267,-44.32333 40.016,-72.124c19.68933,-27.738 44.236,-57.098 73.64,-88.08c30.42933,-32.06267 63.91633,-63.584 100.461,-94.564z"></path><path  id="路径 63" style="fill:#362F2F; opacity:1;" d="M400.292,345.941M400.292,345.941c-34.60867,29.33867 -66.308,59.20067 -95.098,89.586c-27.794,29.33467 -50.97567,57.13333 -69.545,83.396c-18.52533,26.2 -31.01167,48.81767 -37.459,67.853c-6.54333,19.318 -6.34133,33.41667 0.606,42.296c6.94667,8.87867 20.17,11.93867 39.67,9.18c19.21333,-2.71867 43.01967,-10.86767 71.419,-24.447c28.46667,-13.612 59.313,-31.615 92.539,-54.009c34.41467,-23.19467 68.92667,-49.46167 103.536,-78.801c34.61,-29.34 66.31067,-59.20333 95.102,-89.59c27.794,-29.33467 50.97667,-57.134 69.548,-83.398c18.52533,-26.20067 31.01167,-48.81833 37.459,-67.853c6.544,-19.31867 6.34233,-33.41733 -0.605,-42.296c-6.94733,-8.87867 -20.171,-11.93867 -39.671,-9.18c-19.21267,2.718 -43.01933,10.86733 -71.42,24.448c-28.46667,13.61133 -59.31367,31.61467 -92.541,54.01c-34.416,23.196 -68.92933,49.46433 -103.54,78.805zM398.443,343.578c34.69533,-29.412 69.296,-55.74633 103.802,-79.003c33.34733,-22.476 64.31933,-40.551 92.916,-54.225c28.668,-13.708 52.754,-21.94167 72.258,-24.701c20.58667,-2.91267 34.69767,0.51033 42.333,10.269c7.63533,9.75867 7.999,24.83567 1.091,45.231c-6.54533,19.32333 -19.168,42.20833 -37.868,68.655c-18.65467,26.38333 -41.92967,54.29567 -69.825,83.737c-28.86733,30.46667 -60.64767,60.40567 -95.341,89.817c-34.69333,29.41067 -69.29267,55.74367 -103.798,78.999c-33.346,22.47533 -64.31733,40.54967 -92.914,54.223c-28.66667,13.70733 -52.75233,21.941 -72.257,24.701c-20.58667,2.91267 -34.69767,-0.51033 -42.333,-10.269c-7.63533,-9.75867 -7.999,-24.83567 -1.091,-45.231c6.54533,-19.32333 19.16767,-42.20833 37.867,-68.655c18.65467,-26.38267 41.929,-54.29433 69.823,-83.735c28.866,-30.46533 60.645,-60.403 95.337,-89.813z"></path><path  id="路径 64" style="fill:#362F2F; opacity:1;" d="M404.625,350.387M404.625,350.387c-32.75533,27.76733 -62.74567,56.04467 -89.971,84.832c-26.282,27.79067 -48.19033,54.13933 -65.725,79.046c-17.48867,24.842 -29.25733,46.30067 -35.306,64.376c-6.13267,18.32667 -5.89033,31.71867 0.727,40.176c6.61867,8.45933 19.17,11.41867 37.654,8.878c18.22933,-2.506 40.80033,-10.15833 67.713,-22.957c26.98133,-12.832 56.205,-29.83067 87.671,-50.996c32.594,-21.92467 65.269,-46.771 98.025,-74.539c32.75733,-27.76933 62.748,-56.047 89.972,-84.833c26.284,-27.79067 48.19367,-54.13933 65.729,-79.046c17.49133,-24.842 29.261,-46.301 35.309,-64.377c6.13333,-18.328 5.89067,-31.72167 -0.728,-40.181c-6.61733,-8.45733 -19.168,-11.415 -37.652,-8.873c-18.22933,2.506 -40.80133,10.159 -67.716,22.959c-26.982,12.83133 -56.207,29.83 -87.675,50.996c-32.596,21.92467 -65.27167,46.771 -98.027,74.539zM402.776,348.024c32.84,-27.83933 65.60367,-52.75233 98.291,-74.739c31.58933,-21.24667 60.94033,-38.31733 88.053,-51.212c27.184,-12.92733 50.037,-20.66433 68.559,-23.211c19.56733,-2.69067 33.00233,0.63067 40.305,9.964c7.304,9.33467 7.70967,23.70267 1.217,43.104c-6.14667,18.36733 -18.05233,40.09633 -35.717,65.187c-17.62067,25.02733 -39.62367,51.48967 -66.009,79.387c-27.30133,28.86733 -57.37267,57.22133 -90.214,85.062c-32.84,27.84 -65.603,52.75267 -98.289,74.738c-31.58667,21.24733 -60.93633,38.318 -88.049,51.212c-27.18133,12.92733 -50.03333,20.664 -68.556,23.21c-19.566,2.68933 -33.001,-0.63367 -40.305,-9.969c-7.30267,-9.33333 -7.708,-23.7 -1.216,-43.1c6.14533,-18.36533 18.05,-40.09333 35.714,-65.184c17.61933,-25.028 39.62067,-51.49067 66.004,-79.388c27.30133,-28.868 57.372,-57.22167 90.212,-85.061z"></path><path  id="路径 65" style="fill:#362F2F; opacity:1;" d="M408.962,354.834M408.962,354.834c-30.90333,26.19733 -59.18533,52.89033 -84.846,80.079c-24.77267,26.24733 -45.40867,51.14567 -61.908,74.695c-16.45467,23.486 -27.507,43.78633 -33.157,60.901c-5.72267,17.33667 -5.43933,30.024 0.85,38.062c6.28733,8.036 18.165,10.89167 35.633,8.567c17.24533,-2.29533 38.581,-9.45267 64.007,-21.472c25.49467,-12.05133 53.09667,-28.04633 82.806,-47.985c30.774,-20.65267 61.61267,-44.078 92.516,-70.276c30.90333,-26.19733 59.18633,-52.89133 84.849,-80.082c24.772,-26.24667 45.408,-51.14433 61.908,-74.693c16.454,-23.484 27.50633,-43.78333 33.157,-60.898c5.72267,-17.33467 5.44033,-30.02 -0.847,-38.056c-6.28867,-8.038 -18.16733,-10.89533 -35.636,-8.572c-17.24533,2.29333 -38.581,9.44933 -64.007,21.468c-25.49533,12.05067 -53.09733,28.045 -82.806,47.983c-30.77467,20.654 -61.61433,44.08033 -92.519,70.279zM407.113,352.471c63.106,-53.49667 121.764,-93.057 175.974,-118.681c25.69667,-12.14533 47.31533,-19.38467 64.856,-21.718c18.546,-2.46667 31.30433,0.75467 38.275,9.664c6.97,8.908 7.417,22.564 1.341,40.968c-5.74667,17.40667 -16.935,37.97733 -33.565,61.712c-35.08333,50.072 -84.17767,101.856 -147.283,155.352c-63.10133,53.49333 -121.758,93.053 -175.97,118.679c-25.69733,12.148 -47.316,19.389 -64.856,21.723c-18.546,2.468 -31.30367,-0.75167 -38.273,-9.659c-6.97067,-8.90933 -7.418,-22.567 -1.342,-40.973c5.746,-17.408 16.934,-37.98 33.564,-61.716c35.08267,-50.072 84.17567,-101.85567 147.279,-155.351z"></path><path  id="路径 66" style="fill:#362F2F; opacity:1;" d="M413.294,359.28M413.294,359.28c-59.134,50.12933 -105.07133,98.68767 -137.812,145.675c-15.41933,22.12867 -25.75433,41.27033 -31.005,57.425c-5.31267,16.34533 -4.98933,28.32633 0.97,35.943c5.95933,7.61667 17.16567,10.372 33.619,8.266c16.262,-2.082 36.363,-8.742 60.303,-19.98c50.83333,-23.862 105.81733,-60.858 164.952,-110.988c59.13467,-50.13067 105.072,-98.689 137.812,-145.675c15.41867,-22.128 25.75367,-41.26933 31.005,-57.424c5.31267,-16.346 4.98933,-28.32733 -0.97,-35.944c-5.95933,-7.61667 -17.166,-10.37167 -33.62,-8.265c-16.262,2.082 -36.36267,8.74167 -60.302,19.979c-50.834,23.86267 -105.818,60.85867 -164.952,110.988zM411.445,356.917c59.33467,-50.29933 114.53733,-87.43567 165.608,-111.409c24.21267,-11.366 44.599,-18.109 61.159,-20.229c17.52533,-2.244 29.60667,0.87567 36.244,9.359c6.638,8.48333 7.12733,21.43033 1.468,38.841c-5.34667,16.45067 -15.81767,35.86633 -31.413,58.247c-32.89333,47.20533 -79.007,95.958 -138.341,146.258c-59.33467,50.29933 -114.53733,87.436 -165.608,111.41c-24.21333,11.366 -44.59967,18.109 -61.159,20.229c-17.52533,2.24333 -29.607,-0.87667 -36.245,-9.36c-6.63733,-8.48333 -7.12667,-21.43033 -1.468,-38.841c5.34667,-16.45 15.818,-35.86567 31.414,-58.247c32.892,-47.20467 79.00567,-95.95733 138.341,-146.258z"></path><path  id="路径 67" style="fill:#362F2F; opacity:1;" d="M417.626,363.726M417.626,363.726c-55.36,46.93 -98.316,92.45433 -128.868,136.573c-14.38467,20.77133 -24.003,38.75433 -28.855,53.949c-4.904,15.356 -4.541,26.63167 1.089,33.827c5.632,7.198 16.16767,9.852 31.607,7.962c15.27733,-1.86933 34.14333,-8.03333 56.598,-18.492c47.68667,-22.21067 99.21167,-56.78267 154.575,-103.716c55.36333,-46.93333 98.32033,-92.45667 128.871,-136.57c14.38467,-20.77133 24.003,-38.75433 28.855,-53.949c4.90333,-15.356 4.53933,-26.63267 -1.092,-33.83c-5.63067,-7.196 -16.16533,-9.849 -31.604,-7.959c-15.278,1.87067 -34.144,8.03467 -56.598,18.492c-47.692,22.21133 -99.218,56.78233 -154.578,103.713zM415.777,361.363c55.564,-47.10333 107.31133,-81.816 155.242,-104.138c22.73,-10.586 41.88367,-16.83267 57.461,-18.74c16.50533,-2.02 27.91,0.99833 34.214,9.055c6.30533,8.05867 6.837,20.29633 1.595,36.713c-4.94733,15.49267 -14.70167,33.75233 -29.263,54.779c-30.70333,44.334 -73.83833,90.054 -129.405,137.16c-55.56667,47.10533 -107.313,81.819 -155.239,104.141c-22.73067,10.58733 -41.88433,16.834 -57.461,18.74c-16.506,2.02067 -27.91167,-0.99867 -34.217,-9.058c-6.304,-8.05667 -6.83467,-20.293 -1.592,-36.709c4.94733,-15.49267 14.70167,-33.75267 29.263,-54.78c30.70467,-44.33933 73.83867,-90.06033 129.402,-137.163z"></path><path  id="路径 68" style="fill:#362F2F; opacity:1;" d="M421.959,368.165M421.959,368.165c-51.58867,43.73333 -91.564,86.22433 -119.926,127.473c-13.34867,19.414 -22.25,36.238 -26.704,50.472c-4.49467,14.36533 -4.09133,24.93567 1.21,31.711c5.30267,6.77733 15.167,9.32967 29.593,7.657c14.29333,-1.65733 31.924,-7.324 52.892,-17c44.54733,-20.558 92.61633,-52.70433 144.207,-96.439c51.59133,-43.73533 91.56633,-86.22667 119.925,-127.474c13.348,-19.41467 22.24867,-36.23933 26.702,-50.474c4.494,-14.36667 4.08967,-24.93867 -1.213,-31.716c-5.30133,-6.77533 -15.16433,-9.32633 -29.589,-7.653c-14.29333,1.65867 -31.92367,7.32633 -52.891,17.003c-44.54867,20.56 -92.61733,52.70667 -144.206,96.44zM420.11,365.802c51.79467,-43.90733 100.08767,-76.19733 144.879,-96.87c21.246,-9.80533 39.167,-15.55467 53.763,-17.248c15.484,-1.79667 26.211,1.12033 32.181,8.751c5.97133,7.63267 6.54533,19.15933 1.722,34.58c-4.54733,14.53667 -13.584,31.64133 -27.11,51.314c-28.51267,41.47133 -68.66767,84.16233 -120.465,128.073c-51.79667,43.90933 -100.09,76.19867 -144.88,96.868c-21.24667,9.80533 -39.16833,15.554 -53.765,17.246c-15.48467,1.79533 -26.21267,-1.123 -32.184,-8.755c-5.97067,-7.63067 -6.54367,-19.15567 -1.719,-34.575c4.548,-14.536 13.58533,-31.64 27.112,-51.312c28.51533,-41.47267 68.67067,-84.16333 120.466,-128.072z"></path><path  id="路径 69" style="fill:#362F2F; opacity:1;" d="M426.294,372.619M426.294,372.619c-47.818,40.53733 -84.812,79.993 -110.982,118.367c-12.31467,18.05667 -20.49967,33.72167 -24.555,46.995c-4.086,13.376 -3.642,23.24267 1.332,29.6c4.972,6.35533 14.16333,8.80367 27.574,7.345c13.308,-1.44733 29.70233,-6.62 49.183,-15.518c41.40133,-18.90933 86.01067,-48.632 133.828,-89.168c47.81733,-40.53667 84.812,-79.992 110.984,-118.366c12.31467,-18.05667 20.5,-33.721 24.556,-46.993c4.08667,-13.37467 3.644,-23.23967 -1.328,-29.595c-4.974,-6.35733 -14.167,-8.80733 -27.579,-7.35c-13.30867,1.44667 -29.70333,6.61867 -49.184,15.516c-41.40067,18.908 -86.01033,48.63033 -133.829,89.167zM424.446,370.257c48.02667,-40.714 92.86367,-70.58133 134.511,-89.602c19.76333,-9.026 36.45233,-14.279 50.067,-15.759c14.46267,-1.572 24.51267,1.24467 30.15,8.45c5.636,7.20333 6.25033,18.01633 1.843,32.439c-4.14933,13.578 -12.47067,29.52567 -24.964,47.843c-26.32733,38.60267 -63.504,78.261 -111.53,118.975c-48.026,40.71333 -92.863,70.581 -134.511,89.603c-19.76333,9.026 -36.45167,14.27967 -50.065,15.761c-14.462,1.57267 -24.511,-1.24267 -30.147,-8.446c-5.63733,-7.20467 -6.25267,-18.01933 -1.846,-32.444c4.14867,-13.57867 12.46933,-29.527 24.962,-47.845c26.32667,-38.60333 63.50333,-78.26167 111.53,-118.975z"></path><path  id="路径 70" style="fill:#362F2F; opacity:1;" d="M430.628,377.065M430.628,377.065c-44.04733,37.34 -78.06067,73.76167 -102.04,109.265c-11.278,16.69867 -18.74533,31.204 -22.402,43.516c-3.67933,12.38733 -3.196,21.54967 1.45,27.487c4.646,5.938 13.168,8.286 25.566,7.044c12.324,-1.23533 27.48267,-5.911 45.476,-14.027c38.25667,-17.256 79.40867,-44.554 123.456,-81.894c44.04333,-37.33733 78.05567,-73.75833 102.037,-109.263c11.27867,-16.69867 18.74667,-31.20467 22.404,-43.518c3.67933,-12.38733 3.19633,-21.55 -1.449,-27.488c-4.646,-5.93733 -13.16867,-8.28467 -25.568,-7.042c-12.324,1.23533 -27.483,5.91133 -45.477,14.028c-38.258,17.25733 -79.409,44.55467 -123.453,81.892zM428.78,374.702c44.256,-37.51733 85.63833,-64.961 124.147,-82.331c18.28067,-8.246 33.738,-13.00233 46.372,-14.269c13.44067,-1.34733 22.81233,1.368 28.115,8.146c5.30267,6.77733 5.95967,16.88 1.971,30.308c-3.74867,12.622 -11.35233,27.41533 -22.811,44.38c-24.13867,35.73733 -58.336,72.36467 -102.592,109.882c-44.25933,37.52067 -85.643,64.96567 -124.151,82.335c-18.27933,8.24533 -33.73567,13.001 -46.369,14.267c-13.44,1.34667 -22.81133,-1.369 -28.114,-8.147c-5.30333,-6.77733 -5.961,-16.87967 -1.973,-30.307c3.74867,-12.62133 11.352,-27.41433 22.81,-44.379c24.13667,-35.736 58.335,-72.36433 102.595,-109.885z"></path><path  id="路径 71" style="fill:#362F2F; opacity:1;" d="M434.96,381.522M434.96,381.522c-40.27267,34.14 -71.304,67.52667 -93.094,100.16c-10.24333,15.34067 -16.99433,28.68667 -20.253,40.038c-3.27267,11.39867 -2.75,19.85733 1.568,25.376c4.32,5.52133 12.17367,7.76833 23.561,6.741c11.33933,-1.02267 25.26267,-5.202 41.77,-12.538c35.112,-15.60333 72.805,-40.47533 113.079,-74.616c40.27,-34.13867 71.29833,-67.524 93.085,-100.156c10.24333,-15.34133 16.99367,-28.68767 20.251,-40.039c3.272,-11.4 2.748,-19.86033 -1.572,-25.381c-4.318,-5.51933 -12.17033,-7.765 -23.557,-6.737c-11.33867,1.024 -25.261,5.20367 -41.767,12.539c-35.112,15.60467 -72.80233,40.47567 -113.071,74.613zM433.111,379.159c40.48533,-34.32067 78.41233,-59.34033 113.781,-75.059c16.79733,-7.46467 31.02233,-11.723 42.675,-12.775c12.41667,-1.12133 21.10867,1.49267 26.076,7.842c4.96933,6.35067 5.67033,15.74167 2.103,28.173c-3.348,11.666 -10.23367,25.30467 -20.657,40.916c-21.94667,32.87133 -53.16333,66.46767 -93.65,100.789c-40.49,34.32533 -78.41967,59.34667 -113.789,75.064c-16.79733,7.46467 -31.023,11.72267 -42.677,12.774c-12.41733,1.12 -21.11067,-1.49567 -26.08,-7.847c-4.968,-6.34933 -5.66767,-15.739 -2.099,-28.169c3.34933,-11.66533 10.236,-25.30333 20.66,-40.914c21.94867,-32.872 53.16767,-66.47 93.657,-100.794z"></path><path  id="路径 72" style="fill:#362F2F; opacity:1;" d="M439.299,385.969M439.299,385.969c-36.5,30.942 -64.548,61.291 -84.144,91.047c-9.208,13.982 -15.24233,26.16733 -18.103,36.556c-2.866,10.41133 -2.30267,18.16833 1.69,23.271c3.99133,5.10133 11.174,7.24433 21.548,6.429c10.352,-0.81333 23.037,-4.498 38.055,-11.054c31.96267,-13.95333 66.19333,-36.40067 102.692,-67.342c36.49533,-30.938 64.54167,-61.28467 84.139,-91.04c9.20733,-13.98067 15.24167,-26.165 18.103,-36.553c2.86667,-10.41 2.30467,-18.16567 -1.686,-23.267c-3.99267,-5.10267 -11.17667,-7.247 -21.552,-6.433c-10.35333,0.812 -23.03867,4.49567 -38.056,11.051c-31.96133,13.95067 -66.19,36.39567 -102.686,67.335zM437.45,383.606c36.71867,-31.12733 71.19,-53.72367 103.414,-67.789c15.314,-6.68467 28.307,-10.44567 38.979,-11.283c11.392,-0.89333 19.40467,1.62067 24.038,7.542c4.632,5.92 5.374,14.59533 2.226,26.026c-2.94933,10.70867 -9.11867,23.191 -18.508,37.447c-19.75867,30.00067 -47.99633,60.564 -84.713,91.69c-36.72067,31.12867 -71.194,53.72733 -103.42,67.796c-15.31333,6.68533 -28.30567,10.447 -38.977,11.285c-11.392,0.89533 -19.40367,-1.617 -24.035,-7.537c-4.63333,-5.92133 -5.37633,-14.598 -2.229,-26.03c2.948,-10.70933 9.11667,-23.19267 18.506,-37.45c19.758,-30.00133 47.99767,-60.567 84.719,-91.697z"></path><path  id="路径 73" style="fill:#362F2F; opacity:1;" d="M443.622,390.421M443.622,390.421c-32.72133,27.73867 -57.78433,55.05 -75.189,81.934c-8.17267,12.62267 -13.49033,23.647 -15.953,33.073c-2.46267,9.42533 -1.86067,16.48133 1.806,21.168c3.66667,4.686 10.183,6.728 19.549,6.126c9.36667,-0.602 20.815,-3.79067 34.345,-9.566c28.81667,-12.29933 59.58533,-32.31833 92.306,-60.057c32.724,-27.74133 57.78933,-55.05433 75.196,-81.939c8.17267,-12.62267 13.49033,-23.64733 15.953,-33.074c2.46267,-9.42533 1.86067,-16.481 -1.806,-21.167c-3.66667,-4.68667 -10.183,-6.729 -19.549,-6.127c-9.36733,0.60267 -20.816,3.79167 -34.346,9.567c-28.81733,12.3 -59.588,32.32067 -92.312,60.062zM441.773,388.059c32.952,-27.93467 63.97267,-48.11033 93.062,-60.527c13.832,-5.904 25.59433,-9.16767 35.287,-9.791c10.36667,-0.666 17.69833,1.74667 21.995,7.238c4.29667,5.49133 5.08233,13.45333 2.357,23.886c-2.54867,9.754 -8.00067,21.08333 -16.356,33.988c-17.57,27.138 -42.831,54.67433 -75.783,82.609c-32.94867,27.93133 -63.967,48.105 -93.055,60.521c-13.832,5.904 -25.59433,9.16733 -35.287,9.79c-10.36667,0.66667 -17.69833,-1.746 -21.995,-7.238c-4.29667,-5.49133 -5.08233,-13.45333 -2.357,-23.886c2.54867,-9.75333 8.00033,-21.08233 16.355,-33.987c17.56933,-27.13733 42.82833,-54.67167 75.777,-82.603z"></path><path  id="路径 74" style="fill:#362F2F; opacity:1;" d="M447.956,394.867M447.956,394.867c-28.94733,24.54 -51.028,48.815 -66.242,72.825c-7.13667,11.26267 -11.73767,21.12567 -13.803,29.589c-2.05933,8.44 -1.41833,14.79567 1.923,19.067c3.34333,4.27267 9.194,6.21367 17.552,5.823c8.38067,-0.39133 18.591,-3.08467 30.631,-8.08c25.66533,-10.64733 52.973,-28.24167 81.923,-52.783c28.95333,-24.54533 51.037,-48.82133 66.251,-72.828c7.13733,-11.26267 11.73833,-21.12567 13.803,-29.589c2.06,-8.44067 1.41833,-14.79733 -1.925,-19.07c-3.342,-4.27133 -9.19167,-6.21133 -17.549,-5.82c-8.38067,0.392 -18.59167,3.08533 -30.633,8.08c-25.67,10.64867 -52.98033,28.244 -81.931,52.786zM446.107,392.505c29.18667,-24.74267 56.756,-42.49667 82.708,-53.262c26.47867,-10.984 43.65933,-11.438 51.542,-1.362c7.886,10.07867 3.98167,27.50067 -11.713,52.266c-15.38133,24.27133 -37.66667,48.779 -66.856,73.523c-29.18533,24.742 -56.75167,42.495 -82.699,53.259c-26.47667,10.984 -43.65767,11.437 -51.543,1.359c-7.88333,-10.07533 -3.97833,-27.49633 11.715,-52.263c15.38133,-24.27467 37.66333,-48.78133 66.846,-73.52z"></path></g></g></g><defs><filter id="filter_0" x="-6622" y="-489" width="920" height="754" filterUnits="userSpaceOnUse" color-interpolation-filters="sRGB"><feFlood flood-opacity="0" result="feFloodId"/>
          <feColorMatrix in="SourceAlpha" type="matrix" values="0 0 0 0 0 0 0 0 0 0 0 0 0 0 0 0 0 0 127 0" result="hardAlpha"/>

          <feOffset dx="0" dy="2"/>
          <feComposite in2="hardAlpha" operator="out"/>
          <feGaussianBlur stdDeviation="5"/>
          <feColorMatrix type="matrix" values="0 0 0 0 0 0 0 0 0 0 0 0 0 0 0 0 0 0 0.25 0"/>
          <feBlend mode="normal" in2="filter_feFlood" result="filter_feFlood_1"/>
          <feBlend mode="normal" in="SourceGraphic" in2="filter_0" result="shape"/></filter><rect id="path_0" x="0" y="0" width="900" height="730" /></defs></svg>
