<svg xmlns="http://www.w3.org/2000/svg" xmlns:xlink="http://www.w3.org/1999/xlink" width="25.740234375" height="27.80999755859375" viewBox="0 0 25.740234375 27.80999755859375" fill="none"><g opacity="1"  transform="translate(0 0)  rotate(0)"><mask id="bg-mask-0" fill="white"><use transform="translate(0 0)  rotate(0)" xlink:href="#path_0"></use></mask><g mask="url(#bg-mask-0)" ><g opacity="1"  transform="translate(0 0)  rotate(0)"><g opacity="1"  transform="translate(0.513671875 0.01663970947265625)  rotate(0)"><path id="路径 1" fill-rule="evenodd" style="fill:#FFFFFF" opacity="1" d="M0 6.78C0 7.05 0.14 7.3 0.37 7.43L8.91 13.43C9.14 13.59 9.44 13.61 9.69 13.48C9.94 13.35 10.09 13.09 10.1 12.81L10.1 11.29C10.1 10.87 10.44 10.53 10.86 10.53L24.13 10.53C24.33 10.53 24.52 10.45 24.66 10.31C24.8 10.17 24.88 9.97 24.88 9.77L24.88 3.77C24.88 3.57 24.8 3.38 24.66 3.24C24.52 3.09 24.33 3.01 24.13 3.01L10.86 3.01C10.44 3.01 10.1 2.67 10.1 2.25L10.1 0.75C10.09 0.47 9.94 0.22 9.69 0.09C9.44 -0.04 9.14 -0.03 8.91 0.13L0.37 6.13C0.14 6.27 0 6.52 0 6.78Z"></path><path  id="路径 2" style="fill:#FFFFFF; opacity:1;" d="M23.2263,20.3281M23.2263,20.3281c0,0.09607 0.04833,0.17553 0.145,0.2384l-0.0153,-0.01l-8.175,-5.7505c0.0618,0.0451 0.1648,0.0635 0.2481,0.0236l-0.4328,-0.9015l0.4763,0.8792l-0.4763,-0.8792l0.4763,0.8792c0.09953,-0.05387 0.14723,-0.13883 0.1431,-0.2549l0.0006,0.0178v1.4807l-0.0003,0.0128l0.0003,-0.0128l-0.0003,0.0128c-0.02893,1.1296 -0.6055,1.6944 -1.7297,1.6944h-12.66997c0.18,0 0.27,-0.09 0.27,-0.27v5.69c0,-0.0608 -0.01585,-0.126 -0.05721,-0.1705l-0.73279,0.6805l0.68045,-0.7328c-0.04362,-0.0405 -0.10093,-0.0572 -0.16045,-0.0572h12.66997c1.15333,0 1.73,0.57667 1.73,1.73v1.45c0,-0.1099 -0.0645,-0.2054 -0.1628,-0.2545c-0.0837,-0.0418 -0.1832,-0.0345 -0.2605,0.0182l8.148,-5.7317c-0.07647,0.05353 -0.1147,0.1262 -0.1147,0.218zM25.2263,20.3281c0,0.6024 -0.24487,1.07503 -0.7346,1.4179l-8.172,5.7483c-0.5218,0.3557 -1.1957,0.4006 -1.7606,0.1182c-0.5793,-0.2897 -0.9428,-0.8867 -0.9428,-1.5344v-1.45c0,0.07413 0.0271,0.13803 0.0813,0.1917c0.05267,0.0522 0.11557,0.0783 0.1887,0.0783h-12.66997c-0.44531,0 -0.87414,-0.1742 -1.20045,-0.4773l-0.02714,-0.0252l-0.0252,-0.0271c-0.30215,-0.3254 -0.47721,-0.7464 -0.47721,-1.1904v-5.69c0,-1.15333 0.57667,-1.73 1.73,-1.73h12.66997c-0.1754,0 -0.26527,0.08477 -0.2696,0.2543l0.9996,0.0257l-0.9996,-0.0257l0.9996,0.0257h-1v-1.45h1l-0.9993,0.0356c-0.0254,-0.71013 0.2756,-1.2351 0.903,-1.5749l0.0215,-0.0117l-0.0215,0.0117l0.0215,-0.0117l0.0221,-0.0106c0.5797,-0.2782 1.2608,-0.2254 1.7681,0.1436l8.16,5.74l-0.5754,0.818l0.545,-0.8385c0.51,0.33153 0.765,0.81103 0.765,1.4385z"></path></g></g></g></g><defs><rect id="path_0" x="0" y="0" width="25.74" height="27.81" /></defs></svg>