<svg xmlns="http://www.w3.org/2000/svg" xmlns:xlink="http://www.w3.org/1999/xlink" width="22" height="25" viewBox="0 0 22 25" fill="none"><g opacity="1"  transform="translate(0 0)  rotate(0)"><mask id="bg-mask-0" fill="white"><use transform="translate(0 0)  rotate(0)" xlink:href="#path_0"></use></mask><g mask="url(#bg-mask-0)" ><g opacity="1"  transform="translate(0.95654296875 0.95068359375)  rotate(0)"><g opacity="1"  transform="translate(0 0)  rotate(0)"><path  id="路径 1" style="fill:#FFFFFF; opacity:1;" d="M8.11746,21.8999c1.4633,-0.3659 2.71974,-1.2994 3.49454,-2.5936l7.4506,-12.411c0.0163,-0.02631 0.0204,-0.04016 0.0173,-0.05276c-0.0056,-0.02228 -0.0247,-0.03324 -0.0444,-0.04505l-9.64213,-5.77727l-0.01242,-0.00795c-0.02283,-0.01461 -0.04997,-0.01655 -0.07631,-0.01019c-0.0132,0.00319 -0.02773,0.01006 -0.03417,0.02202l-0.01093,0.02031l-7.45186,12.42979c-0.78226,1.2924 -1.00224,2.8384 -0.62888,4.298c0.36836,1.4733 1.31181,2.7248 2.61239,3.4983c1.30111,0.779 2.85545,1.0034 4.32232,0.6304zM8.60649,23.8391c-1.98303,0.5044 -4.08457,0.1999 -5.83768,-0.8496c-1.75876,-1.0461 -3.03264,-2.7417 -3.52761,-4.7217c-0.50643,-1.9796 -0.20479,-4.0775 0.85113,-5.822l7.44,-12.40999l0.85768,0.51419l-0.88047,-0.4741c0.27591,-0.5124 0.76011,-0.88143 1.32583,-1.01798c0.55597,-0.1342 1.14197,-0.03849 1.62374,0.26981l-0.5391,0.84227l0.514,-0.85781l9.6305,5.77032c0.4745,0.28471 0.8214,0.73809 0.9556,1.27495c0.1349,0.53943 0.0426,1.11102 -0.2427,1.56724l-7.4494,12.409c-1.0476,1.7498 -2.7469,3.0118 -4.72546,3.5064z"></path><path id="路径 2" fill-rule="evenodd" style="fill:#FFFFFF" opacity="1" d="M7.04609 3.70283C6.78609 3.58283 6.48609 3.69283 6.36609 3.94283L1.09609 12.7428C1.01609 12.8428 0.986094 12.9828 1.00609 13.1128C1.02609 13.2428 1.09609 13.3628 1.20609 13.4428L11.9361 19.8528C12.1861 19.9628 12.4761 19.8628 12.6061 19.6128L17.8761 10.8328C18.0361 10.6028 17.9861 10.2928 17.7661 10.1228L7.04609 3.70283Z"></path></g></g></g></g><defs><rect id="path_0" x="0" y="0" width="22" height="25" /></defs></svg>