<svg xmlns="http://www.w3.org/2000/svg" xmlns:xlink="http://www.w3.org/1999/xlink" width="28" height="24" viewBox="0 0 28 24" fill="none"><g opacity="1"  transform="translate(0 0)  rotate(0)"><mask id="bg-mask-0" fill="white"><use transform="translate(0 0)  rotate(0)" xlink:href="#path_0"></use></mask><g mask="url(#bg-mask-0)" ><g opacity="1"  transform="translate(0 0)  rotate(0)"><g opacity="1"  transform="translate(0 0)  rotate(0)"><path id="路径 1" fill-rule="evenodd" style="fill:#FFFFFF" opacity="1" d="M28.0265 12.977C28.0365 12.787 27.9465 12.607 27.7965 12.497L21.4065 7.98695C21.2365 7.85695 21.0065 7.84695 20.8265 7.93695C20.6365 8.03695 20.5165 8.23695 20.5165 8.44695L20.5165 9.59695C20.5165 9.90695 20.2565 10.167 19.9465 10.167L13.2165 10.167C12.8965 10.167 12.6465 10.417 12.6465 10.737L12.6465 15.217C12.6465 15.527 12.8965 15.787 13.2165 15.787L19.9065 15.787C20.2265 15.787 20.4765 16.037 20.4765 16.357L20.4765 17.487C20.4765 17.697 20.5965 17.897 20.7865 17.997C20.9765 18.087 21.1965 18.077 21.3765 17.947L27.7565 13.437C27.9165 13.337 28.0165 13.167 28.0265 12.977Z"></path><path id="路径 2" fill-rule="evenodd" style="fill:#FFFFFF" opacity="1" d="M18.88 23.07C19.48 22.46 19.82 21.65 19.82 20.79L19.82 17.39L17.95 17.39L17.95 20.79C17.95 21.15 17.81 21.48 17.57 21.73C17.32 21.98 16.99 22.12 16.64 22.12L3.18 22.12C2.45 22.11 1.87 21.52 1.87 20.79L1.87 3.2C1.87 2.47 2.46 1.88 3.18 1.88L13.26 1.88L17.95 6.35L17.95 8.61L19.8 8.61L19.8 5.51L14 0L3.18 0C1.42 0 0 1.43 0 3.2L0 20.79C0 22.56 1.41 23.99 3.16 24L16.62 24C17.47 24 18.29 23.67 18.88 23.07Z"></path><path id="路径 3" fill-rule="evenodd" style="fill:#FFFFFF" opacity="1" d="M18.5548 5.31148L15.5648 5.31148C14.8348 5.31148 14.2548 4.71148 14.2548 3.99148L14.2548 1.27148L12.3848 1.27148L12.3848 3.99148C12.3848 5.76148 13.8148 7.19148 15.5748 7.19148L18.5648 7.19148L18.5548 5.31148Z"></path></g></g></g></g><defs><rect id="path_0" x="0" y="0" width="28" height="24" /></defs></svg>