<svg xmlns="http://www.w3.org/2000/svg" xmlns:xlink="http://www.w3.org/1999/xlink" width="22.533203125" height="22.51971435546875" viewBox="0 0 22.533203125 22.51971435546875" fill="none"><g opacity="1"  transform="translate(0 0)  rotate(0)"><mask id="bg-mask-0" fill="white"><use transform="translate(0 0)  rotate(0)" xlink:href="#path_0"></use></mask><g mask="url(#bg-mask-0)" ><g opacity="1"  transform="translate(0.0009765625 -0.00006103515625)  rotate(0)"><g opacity="1"  transform="translate(-0.00048828125 0.000030517578125)  rotate(0)"><path id="路径 1" fill-rule="evenodd" style="fill:#2F3133" opacity="1" d="M11.2651,18.603c-4.06004,0 -7.35006,-3.29 -7.35006,-7.34c0,-4.05998 3.29002,-7.34998 7.35006,-7.34998c4.06,0 7.35,3.29 7.35,7.34998c0,4.05 -3.29,7.34 -7.35,7.34zM6.31505,11.263c0,2.73 2.22001,4.95 4.95005,4.95c2.74,0 4.96,-2.22 4.96,-4.95c-0.01,-2.73998 -2.22,-4.94998 -4.96,-4.94998c-2.73004,0 -4.95005,2.21 -4.95005,4.94998z"></path><path id="路径 2" fill-rule="evenodd" style="fill:#2F3133" opacity="1" d="M11.2696,22.52c-6.22006,0 -11.27009,-5.05 -11.27009,-11.26c0,-6.20997 5.05003,-11.25997 11.27009,-11.25997c6.21,0 11.26,5.05 11.26,11.25997c-0.01,6.21 -5.04,11.25 -11.26,11.26zM1.59952,11.26c0,5.33 4.33003,9.66 9.67008,9.66c5.33,0 9.67,-4.33 9.67,-9.66c-0.01,-5.32997 -4.34,-9.64997 -9.67,-9.65997c-5.34005,0 -9.67008,4.33 -9.67008,9.65997z"></path></g></g></g></g><defs><rect id="path_0" x="0" y="0" width="22.533203125" height="22.51971435546875" /></defs></svg>
