<svg xmlns="http://www.w3.org/2000/svg" xmlns:xlink="http://www.w3.org/1999/xlink" width="22.533203125" height="22.51971435546875" viewBox="0 0 22.533203125 22.51971435546875" fill="none"><g opacity="1"  transform="translate(0 0)  rotate(0)"><mask id="bg-mask-0" fill="white"><use transform="translate(0 0)  rotate(0)" xlink:href="#path_0"></use></mask><g mask="url(#bg-mask-0)" ><g opacity="1"  transform="translate(-0.0009765625 0)  rotate(0)"><g opacity="1"  transform="translate(0.00048828125 0)  rotate(0)"><path id="路径 1" fill-rule="evenodd" style="fill:#FFFFFF" opacity="1" d="M11.2661,18.603c-4.06007,0 -7.35008,-3.29 -7.35008,-7.34c0,-4.06004 3.29001,-7.35004 7.35008,-7.35004c4.06,0 7.35,3.29 7.35,7.35004c0,4.05 -3.29,7.34 -7.35,7.34zM6.31603,11.263c0,2.73 2.22001,4.95 4.95007,4.95c2.74,0 4.96,-2.22 4.96,-4.95c-0.01,-2.74004 -2.22,-4.95004 -4.96,-4.95004c-2.73006,0 -4.95007,2.21 -4.95007,4.95004z"></path><path id="路径 2" fill-rule="evenodd" style="fill:#FFFFFF" opacity="1" d="M11.2706,22.52c-6.22008,0 -11.27011,-5.05 -11.27011,-11.26c0,-6.21 5.05003,-11.26 11.27011,-11.26c6.21,0 11.26,5.05 11.26,11.26c-0.01,6.21 -5.04,11.25 -11.26,11.26zM1.6005,11.26c0,5.33 4.33002,9.66 9.6701,9.66c5.33,0 9.67,-4.33 9.67,-9.66c-0.01,-5.33 -4.34,-9.65 -9.67,-9.66c-5.34008,0 -9.6701,4.33 -9.6701,9.66z"></path></g></g></g></g><defs><rect id="path_0" x="0" y="0" width="22.533203125" height="22.51971435546875" /></defs></svg>
