<svg xmlns="http://www.w3.org/2000/svg" viewBox="0 0 25.74 27.81"><defs><style>.cls-1{fill:#5e6267;}.cls-2{fill:none;stroke:#5e6267;stroke-miterlimit:10;stroke-width:2px;}</style></defs><g id="图层_2" data-name="图层 2"><g id="图层_1-2" data-name="图层 1"><path class="cls-1" d="M.88,6.15l8.54-6a.76.76,0,0,1,1.19.62V2.27a.76.76,0,0,0,.76.76H24.64a.75.75,0,0,1,.75.76v6a.75.75,0,0,1-.75.76H11.37a.76.76,0,0,0-.76.76v1.52a.76.76,0,0,1-1.19.62l-8.54-6A.76.76,0,0,1,.88,6.15Z"/><path class="cls-2" d="M24.43,20.94l-8.16,5.74a.72.72,0,0,1-1.14-.59V24.64a.73.73,0,0,0-.73-.73H1.73A.72.72,0,0,1,1,23.19V17.5a.73.73,0,0,1,.73-.73H14.4a.73.73,0,0,0,.73-.72V14.6A.72.72,0,0,1,16.27,14l8.16,5.74A.73.73,0,0,1,24.43,20.94Z"/></g></g></svg>