<svg xmlns="http://www.w3.org/2000/svg" xmlns:xlink="http://www.w3.org/1999/xlink" width="24.2666015625" height="20.78741455078125" viewBox="0 0 24.2666015625 20.78741455078125" fill="none"><g opacity="1"  transform="translate(0 0)  rotate(0)"><mask id="bg-mask-0" fill="white"><use transform="translate(0 0)  rotate(0)" xlink:href="#path_0"></use></mask><g mask="url(#bg-mask-0)" ><path id="路径 1" fill-rule="evenodd" style="fill:#FFFFFF" opacity="1" d="M24.29 11.2424C24.29 11.0724 24.22 10.9224 24.09 10.8224L18.56 6.91245C18.41 6.80245 18.21 6.79245 18.04 6.88245C17.88 6.96245 17.78 7.13245 17.78 7.32245L17.78 8.31245C17.78 8.58245 17.56 8.80245 17.29 8.80245L11.45 8.80245C11.18 8.80245 10.96 9.02245 10.96 9.30245L10.96 13.1724C10.96 13.4524 11.18 13.6724 11.45 13.6724L17.25 13.6724C17.53 13.6724 17.75 13.8924 17.75 14.1624L17.75 15.1424C17.75 15.3324 17.85 15.5024 18.01 15.5824C18.18 15.6724 18.37 15.6524 18.52 15.5524L24.06 11.6424C24.2 11.5524 24.28 11.4024 24.29 11.2424Z"></path><path id="路径 2" fill-rule="evenodd" style="fill:#FFFFFF" opacity="1" d="M16.37 19.98C16.89 19.46 17.18 18.75 17.18 18.01L17.18 15.06L15.56 15.06L15.56 18.01C15.56 18.31 15.44 18.61 15.23 18.82C15.01 19.04 14.72 19.16 14.42 19.16L2.75001 19.16C2.13001 19.15 1.62 18.64 1.62 18.01L1.62 2.76997C1.62 2.13997 2.13001 1.62997 2.75001 1.62997L11.49 1.62997L15.56 5.49997L15.56 7.44997L17.16 7.44997L17.16 4.77997L12.13 -3.05176e-05L2.75001 -3.05176e-05C1.23 -3.05176e-05 0 1.23997 0 2.76997L0 18.01C0 19.54 1.22 20.78 2.74001 20.79L14.41 20.79C15.14 20.79 15.85 20.5 16.37 19.98Z"></path><path id="路径 3" fill-rule="evenodd" style="fill:#FFFFFF" opacity="1" d="M16.0834 4.60126L13.4834 4.60126C12.8634 4.60126 12.3534 4.08126 12.3534 3.45126L12.3534 1.10126L10.7334 1.10126L10.7334 3.45126C10.7334 4.99126 11.9734 6.23126 13.4934 6.23126L16.0834 6.23126L16.0834 4.60126Z"></path></g></g><defs><rect id="path_0" x="0" y="0" width="24.2666015625" height="20.78741455078125" /></defs></svg>
