<svg xmlns="http://www.w3.org/2000/svg" xmlns:xlink="http://www.w3.org/1999/xlink" width="24" height="26" viewBox="0 0 24 26" fill="none"><g opacity="1"  transform="translate(0 0)  rotate(0)"><mask id="bg-mask-0" fill="white"><use transform="translate(0 0)  rotate(0)" xlink:href="#path_0"></use></mask><g mask="url(#bg-mask-0)" ><g opacity="1"  transform="translate(-0.0001220703125 0)  rotate(0)"><g opacity="1"  transform="translate(0 0)  rotate(0)"><path id="路径 1" fill-rule="evenodd" style="fill:#7D7D7D" opacity="1" d="M6.26868 15.2141C6.26868 18.8341 6.29868 22.3241 6.29868 25.9541C6.50868 25.9741 10.8387 26.0041 12.8587 25.9841C14.4687 25.9741 15.5387 24.9341 15.5387 23.3641C15.5387 21.5241 15.5387 19.6841 15.5387 17.8341C15.5387 16.0941 14.4187 15.2241 12.6187 15.2241L6.26868 15.2141Z"></path><path id="路径 2" fill-rule="evenodd" style="fill:#7D7D7D" opacity="1" d="M19 21.6233C20.5 21.5133 21.88 20.7633 22.81 19.5733C23.87 18.1933 24.1 16.5833 23.96 14.8733C23.88 13.5333 23.26 12.2833 22.26 11.4033C21.49 10.7333 20.44 10.3633 19.46 9.99329C18.9 9.79329 18.24 9.83329 17.62 9.83329C13.37 9.82329 9.13 9.81329 4.88 9.83329C2.92 9.85329 1.81 8.50329 1.89 6.89329C1.96 5.53329 3.03 3.94329 4.87 4.00329C7.37 4.07329 9.88 4.01329 12.39 4.01329L13.24 4.01329L13.24 2.16329C12.98 2.15329 12.75 2.13329 12.53 2.13329C10.03 2.13329 7.52 2.10329 5.01 2.13329C2.04 2.17329 0.96 3.47329 0.22 5.67329C-0.52 7.87329 0.63 10.9833 3.42 11.5133C3.98 11.6133 4.55 11.6733 5.12 11.6733C9.49 11.6933 13.86 11.6933 18.23 11.6733C19.87 11.6633 21.19 12.4533 21.77 13.8333C23 16.7633 21.44 19.8433 18.11 19.8233C17.55 19.8233 16.98 19.8233 16.44 19.8233L16.44 21.6333C17.32 21.6333 18.16 21.7033 19 21.6233Z"></path><path id="路径 3" fill-rule="evenodd" style="fill:#7D7D7D" opacity="1" d="M1.77256 22.6815L1.77256 18.6015L5.21256 18.6015L5.21256 16.9915L0.122559 16.9915L0.122559 24.3215L5.21256 24.3215L5.21256 22.6815L1.77256 22.6815Z"></path><path id="路径 4" fill-rule="evenodd" style="fill:#7D7D7D" opacity="1" d="M14.8605 0C14.1505 0 13.8505 0.38 13.8505 1.11C13.8705 2.42 13.8705 3.73 13.8505 5.03C13.8405 5.76 14.1605 6.13 14.8605 6.13C16.1005 6.16 17.3405 6.16 18.5805 6.13C18.7505 6.13 19.0505 5.89 19.0505 5.76C19.0705 3.87 19.0705 1.98 19.0705 0C17.5905 0 16.2205 0 14.8605 0Z"></path><path id="路径 5" fill-rule="evenodd" style="fill:#7D7D7D" opacity="1" d="M20.0731 5.24773L22.1131 5.24773L22.1131 0.917725L20.0731 0.917725L20.0731 5.24773Z"></path></g></g></g></g><defs><rect id="path_0" x="0" y="0" width="24" height="26" /></defs></svg>
