<svg xmlns="http://www.w3.org/2000/svg" xmlns:xlink="http://www.w3.org/1999/xlink" width="29.7099609375" height="29.1199951171875" viewBox="0 0 29.7099609375 29.1199951171875" fill="none"><g opacity="1"  transform="translate(0 0)  rotate(0)"><mask id="bg-mask-0" fill="white"><use transform="translate(0 0)  rotate(0)" xlink:href="#path_0"></use></mask><g mask="url(#bg-mask-0)" ><g opacity="1"  transform="translate(0 0)  rotate(0)"><g opacity="1"  transform="translate(0 0)  rotate(0)"><path id="路径 1" fill-rule="evenodd" style="fill:#E3E3E3" opacity="1" d="M14.15,17.21zM14.85,17.39c-0.24,0 -0.49,-0.06 -0.7,-0.18l-13.36,-7.21c-0.48,-0.25 -0.78,-0.74 -0.79,-1.28c0,-0.55 0.3,-1.06 0.78,-1.32l13.36,-7.22c0.45,-0.24 0.98,-0.24 1.43,0l13.36,7.22c0.49,0.26 0.79,0.76 0.79,1.32c0,0.55 -0.3,1.05 -0.79,1.31l-13.37,7.18c-0.22,0.12 -0.46,0.18 -0.71,0.18z"></path><path id="路径 2" fill-rule="evenodd" style="fill:#E3E3E3" opacity="1" d="M0.45301,14.3819zM29.263,14.4119zM0.86301,15.7319c-0.49,-0.26 -0.67,-0.87 -0.41,-1.35c0.27,-0.48 0.88,-0.65 1.36,-0.38l12.56999,6.76c0.29,0.16 0.65,0.16 0.95,0l12.57,-6.76c0.23,-0.13 0.51,-0.16 0.76,-0.08c0.26,0.08 0.47,0.25 0.6,0.49c0.26,0.48 0.07,1.09 -0.41,1.35l-13.52,7.24c-0.3,0.16 -0.66,0.16 -0.95,0z"></path><path id="路径 3" fill-rule="evenodd" style="fill:#E3E3E3" opacity="1" d="M0.45301,20.3819zM29.263,20.4119zM0.86301,21.7319c-0.49,-0.26 -0.67,-0.87 -0.41,-1.35c0.27,-0.48 0.88,-0.65 1.36,-0.38l12.56999,6.76c0.29,0.16 0.65,0.16 0.95,0l12.57,-6.76c0.23,-0.13 0.51,-0.16 0.76,-0.08c0.26,0.08 0.47,0.25 0.6,0.49c0.26,0.48 0.07,1.09 -0.41,1.35l-13.52,7.24c-0.3,0.16 -0.66,0.16 -0.95,0z"></path></g></g></g></g><defs><rect id="path_0" x="0" y="0" width="29.71" height="29.12" /></defs></svg>