<svg xmlns="http://www.w3.org/2000/svg" xmlns:xlink="http://www.w3.org/1999/xlink" width="21" height="23" viewBox="0 0 21 23" fill="none"><g opacity="1"  transform="translate(0 0)  rotate(0)"><mask id="bg-mask-0" fill="white"><use transform="translate(0 0)  rotate(0)" xlink:href="#path_0"></use></mask><g mask="url(#bg-mask-0)" ><g opacity="1"  transform="translate(0 -0.00146484375)  rotate(0)"><g opacity="1"  transform="translate(0 0)  rotate(0)"><path id="路径 1" fill-rule="evenodd" style="fill:#E60012" opacity="1" d="M20.9564 2.34C20.9864 2.29 21.0064 2.23 20.9964 2.16C20.9864 2.1 20.9464 2.05 20.8964 2.01L18.1964 0.04C18.0964 -0.03 17.9464 -0.01 17.8764 0.1L9.42645 12.29C9.40645 12.33 9.38645 12.37 9.38645 12.41L9.10645 15.77C9.09645 15.86 9.13645 15.94 9.20645 15.99C9.26645 16.04 9.35645 16.04 9.43645 16.01L12.4164 14.64C12.4564 14.61 12.4864 14.58 12.5064 14.54L20.9564 2.34Z"></path><path id="路径 2" fill-rule="evenodd" style="fill:#E60012" opacity="1" d="M12.66,3.85057zM18.64,9.88057zM3.55,23.0006c-1.96,0 -3.55,-1.63 -3.55,-3.65v-12.85003c-0.01,-0.97 0.37,-1.9 1.03,-2.59c0.67,-0.69 1.58,-1.08 2.52,-1.08h8.11c0.26,0 0.52,0.1 0.7,0.29c0.19,0.19 0.3,0.45 0.3,0.73c0,0.27 -0.1,0.54 -0.29,0.73c-0.19,0.2 -0.45,0.3 -0.71,0.3h-8.11c-0.87,0 -1.58,0.73 -1.58,1.62v12.85003c0,0.9 0.71,1.63 1.58,1.63h12.52c0.87,0 1.58,-0.73 1.58,-1.63v-8.45c0,-0.57 0.45,-1.02003 0.99,-1.02003c0.26,0 0.51,0.11 0.7,0.30003c0.18,0.19 0.29,0.45 0.28,0.72v8.45c0,2.02 -1.59,3.65 -3.55,3.65z"></path></g></g></g></g><defs><rect id="path_0" x="0" y="0" width="21" height="23" /></defs></svg>
