<svg xmlns="http://www.w3.org/2000/svg" xmlns:xlink="http://www.w3.org/1999/xlink" width="140" height="32" viewBox="0 0 140 32" fill="none"><g opacity="1"  transform="translate(0 0)  rotate(0)"><mask id="mask-0" fill="white"><path d="M16 32L124 32C132.84 32 140 24.84 140 16L140 16C140 7.16 132.84 0 124 0L16 0C7.16 0 0 7.16 0 16L0 16C0 24.84 7.16 32 16 32Z"  ></path></mask><g mask="url(#mask-0)"><path id="矩形 1" fill-rule="evenodd" style="fill:#DCDEE0" opacity="1" d="M16 32L124 32C132.84 32 140 24.84 140 16L140 16C140 7.16 132.84 0 124 0L16 0C7.16 0 0 7.16 0 16L0 16C0 24.84 7.16 32 16 32Z"></path></g><g mask="url(#mask-0)"><g id="矩形 1" filter="url(#filter_2)"><path id="矩形 1" fill-rule="evenodd" style="fill:#F1F3F4" opacity="1" d="M16.02 31.04L31.98 31.04C40.28 31.04 47 24.32 47 16.02L47 16.02C47 7.72 40.28 1 31.98 1L16.02 1C7.72 1 1 7.72 1 16.02L1 16.02C1 24.32 7.72 31.04 16.02 31.04Z"></path></g></g><g mask="url(#mask-0)"><g opacity="1" transform="translate(8 6)  rotate(0)"><text><tspan x="6.570999999999998" y="15.288" font-size="14" line-height="0" fill="#000000" opacity="1" font-family="HarmonyOSSansTC-Medium" font-weight="Medium" letter-spacing="0" >EN</tspan></text></g></g><g mask="url(#mask-0)"><g opacity="1" transform="translate(54 6)  rotate(0)"><text><tspan x="6.143999999999998" y="15.288" font-size="14" line-height="0" fill="#000000" opacity="1" font-family="HarmonyOSSansTC-Medium" font-weight="Medium" letter-spacing="0" >CN</tspan></text></g></g><g mask="url(#mask-0)"><g opacity="1" transform="translate(100 6)  rotate(0)"><text><tspan x="8.391" y="15.288" font-size="14" line-height="0" fill="#000000" opacity="1" font-family="HarmonyOSSansTC-Medium" font-weight="Medium" letter-spacing="0" >JP</tspan></text></g></g></g><defs><filter id="filter_2" x="-3" y="-5" width="54" height="42.04081632653061" filterUnits="userSpaceOnUse" color-interpolation-filters="sRGB"><feFlood flood-opacity="0" result="feFloodId"/>
          <feColorMatrix in="SourceAlpha" type="matrix" values="0 0 0 0 0 0 0 0 0 0 0 0 0 0 0 0 0 0 127 0" result="hardAlpha"/>

          <feOffset dx="0" dy="2"/>
          <feComposite in2="hardAlpha" operator="out"/>
          <feGaussianBlur stdDeviation="2"/>
          <feColorMatrix type="matrix" values="0 0 0 0 0 0 0 0 0 0 0 0 0 0 0 0 0 0 0.25 0"/>
          <feBlend mode="normal" in2="filter_feFlood" result="filter_feFlood_1"/>
          <feBlend mode="normal" in="SourceGraphic" in2="filter_2" result="shape"/></filter></defs></svg>
