<svg xmlns="http://www.w3.org/2000/svg" xmlns:xlink="http://www.w3.org/1999/xlink" width="26" height="26" viewBox="0 0 26 26" fill="none"><g opacity="1"  transform="translate(0 0)  rotate(0)"><mask id="bg-mask-0" fill="white"><use transform="translate(0 0)  rotate(0)" xlink:href="#path_0"></use></mask><g mask="url(#bg-mask-0)" ><g opacity="1"  transform="translate(0 0)  rotate(0)"><g opacity="1"  transform="translate(0 0)  rotate(0)"><path id="路径 1" fill-rule="evenodd" style="fill:#E60012" opacity="1" d="M13,26c-7.17,0 -13,-5.83 -13,-13c0,-7.17 5.83,-13 13,-13c7.17,0 13,5.83 13,13c-0.01,7.18 -5.82,12.99 -13,13zM2.26,13c0,5.92 4.82,10.74 10.74,10.74c5.92,0 10.74,-4.82 10.74,-10.74c-0.01,-5.92 -4.82,-10.73 -10.74,-10.74c-5.92,0 -10.74,4.82 -10.74,10.74z"></path><path id="路径 2" fill-rule="evenodd" style="fill:#E60012" opacity="1" d="M13.1412 16.8514L13.2812 16.8514C14.1112 16.8514 14.7812 16.1814 14.7812 15.3514L14.7812 7.07141C14.7812 6.24141 14.1112 5.57141 13.2812 5.57141L13.1412 5.57141C12.3112 5.57141 11.6412 6.24141 11.6412 7.07141L11.6412 15.3514C11.6412 16.1814 12.3112 16.8514 13.1412 16.8514Z"></path><path id="路径 3" fill-rule="evenodd" style="fill:#E60012" opacity="1" d="M13.1321 20.8871L13.2721 20.8871C14.1021 20.8871 14.7721 20.2171 14.7721 19.3871L14.7721 19.2471C14.7721 18.4171 14.1021 17.7471 13.2721 17.7471L13.1321 17.7471C12.3021 17.7471 11.6321 18.4171 11.6321 19.2471L11.6321 19.3871C11.6321 20.2171 12.3021 20.8871 13.1321 20.8871Z"></path></g></g></g></g><defs><rect id="path_0" x="0" y="0" width="26" height="26" /></defs></svg>
