<svg xmlns="http://www.w3.org/2000/svg" xmlns:xlink="http://www.w3.org/1999/xlink" width="23" height="16" viewBox="0 0 23 16" fill="none"><g opacity="1"  transform="translate(1 1)  rotate(0)"><path id="Vector" fill-rule="evenodd" style="fill:#FFFFFF" opacity="1" d="M5.66001,6.95285h-0.65v-1.03h0.65zM9.91001,5.92285h0.64999v1.03h-0.64999zM14.81,5.92285h0.65v1.03h-0.65z"></path><path  id="Vector" style="fill:#FFFFFF; opacity:1;" d="M5.66001,7.95285h-1.65v-3.03h2.65v3.03zM5.01001,5.95285v1h1v-1.03h-1v1h0.65v-1h-1v1.03h1v-1zM9.91001,6.95285h0.99999v-1.03h-0.99999v1h0.64999v-1h-0.99999v1.03h0.99999v-1h-0.64999zM8.91001,7.95285v-3.03h2.64999v3.03h-1.64999zM14.81,6.95285h1v-1.03h-1v1h0.65v-1h-1v1.03h1v-1h-0.65zM13.81,7.95285v-3.03h2.65v3.03h-1.65z"></path><path  id="矩形 1" style="fill:#FFFFFF; opacity:1;" d="M2,13h17c0.5523,0 1,-0.4477 1,-1v-10c0,-0.55228 -0.4477,-1 -1,-1h-17c-0.55228,0 -1,0.44772 -1,1v10c0,0.5523 0.44772,1 1,1zM2,15c-1.65685,0 -3,-1.3431 -3,-3v-10c0,-1.65685 1.34315,-3 3,-3h17c1.6569,0 3,1.34315 3,3v10c0,1.6569 -1.3431,3 -3,3z"></path></g></svg>