<svg xmlns="http://www.w3.org/2000/svg" xmlns:xlink="http://www.w3.org/1999/xlink" width="24.2666015625" height="20.78741455078125" viewBox="0 0 24.2666015625 20.78741455078125" fill="none"><g opacity="1"  transform="translate(0 0)  rotate(0)"><mask id="bg-mask-0" fill="white"><use transform="translate(0 0)  rotate(0)" xlink:href="#path_0"></use></mask><g mask="url(#bg-mask-0)" ><g opacity="1"  transform="translate(0 0)  rotate(0)"><g opacity="1"  transform="translate(0 0)  rotate(0)"><path id="路径 1" fill-rule="evenodd" style="fill:#2F3133" opacity="1" d="M24.29 11.2425C24.29 11.0725 24.22 10.9225 24.09 10.8225L18.56 6.91249C18.41 6.80249 18.21 6.79249 18.04 6.88249C17.88 6.96249 17.78 7.13249 17.78 7.32249L17.78 8.31249C17.78 8.58249 17.56 8.80249 17.29 8.80249L11.45 8.80249C11.18 8.80249 10.96 9.02249 10.96 9.30249L10.96 13.1725C10.96 13.4525 11.18 13.6725 11.45 13.6725L17.25 13.6725C17.53 13.6725 17.75 13.8925 17.75 14.1625L17.75 15.1425C17.75 15.3325 17.85 15.5025 18.01 15.5825C18.18 15.6725 18.37 15.6525 18.52 15.5525L24.06 11.6425C24.2 11.5525 24.28 11.4025 24.29 11.2425Z"></path><path id="路径 2" fill-rule="evenodd" style="fill:#2F3133" opacity="1" d="M16.37 19.98C16.89 19.46 17.18 18.75 17.18 18.01L17.18 15.06L15.56 15.06L15.56 18.01C15.56 18.31 15.44 18.61 15.23 18.82C15.01 19.04 14.72 19.16 14.42 19.16L2.75001 19.16C2.13001 19.15 1.62 18.64 1.62 18.01L1.62 2.77C1.62 2.14 2.13001 1.63 2.75001 1.63L11.49 1.63L15.56 5.5L15.56 7.45L17.16 7.45L17.16 4.78L12.13 0L2.75001 0C1.23 0 0 1.24 0 2.77L0 18.01C0 19.54 1.22 20.78 2.74001 20.79L14.41 20.79C15.14 20.79 15.85 20.5 16.37 19.98Z"></path><path id="路径 3" fill-rule="evenodd" style="fill:#2F3133" opacity="1" d="M16.0834 4.60127L13.4834 4.60127C12.8634 4.60127 12.3534 4.08127 12.3534 3.45127L12.3534 1.10127L10.7334 1.10127L10.7334 3.45127C10.7334 4.99127 11.9734 6.23127 13.4934 6.23127L16.0834 6.23127L16.0834 4.60127Z"></path></g></g></g></g><defs><rect id="path_0" x="0" y="0" width="24.2666015625" height="20.78741455078125" /></defs></svg>
