<svg xmlns="http://www.w3.org/2000/svg" xmlns:xlink="http://www.w3.org/1999/xlink" width="18.2001953125" height="21.653564453125" viewBox="0 0 18.2001953125 21.653564453125" fill="none"><g opacity="1"  transform="translate(0 0)  rotate(0)"><mask id="bg-mask-0" fill="white"><use transform="translate(0 0)  rotate(0)" xlink:href="#path_0"></use></mask><g mask="url(#bg-mask-0)" ><g opacity="1"  transform="translate(0.0009765625 0)  rotate(0)"><g opacity="1"  transform="translate(-0.00048828125 0)  rotate(0)"><path id="路径 1" fill-rule="evenodd" style="fill:#FFFFFF" opacity="1" d="M15.2793,21.65h-12.36982c-1.60998,-0.01 -2.90997,-1.3 -2.90997,-2.89v-15.88c0,-1.59 1.30999,-2.88 2.91997,-2.88h9.94992l5.3299,4.98v13.78c0,0.77 -0.3,1.5 -0.85,2.05c-0.55,0.54 -1.29,0.84 -2.07,0.84zM1.71949,2.88v15.88c0,0.66 0.54,1.19 1.19999,1.2h12.36982c0.32,0 0.63,-0.13 0.86,-0.35c0.22,-0.23 0.35,-0.53 0.35,-0.85v-13.06l-4.3099,-4h-9.26992c-0.65999,0 -1.19999,0.53 -1.19999,1.18z"></path><path id="路径 2" fill-rule="evenodd" style="fill:#FFFFFF" opacity="1" d="M17.0513 4.79716L14.3013 4.79716C13.6413 4.78716 13.1013 4.25716 13.1013 3.59716L13.1013 1.14716L11.3813 1.14716L11.3813 3.59716C11.3813 5.19716 12.6913 6.48716 14.3113 6.48716L17.0613 6.48716L17.0513 4.79716Z"></path><path id="路径 3" fill-rule="evenodd" style="fill:#FFFFFF" opacity="1" d="M4.04102,14.3384zM13.7409,14.3384zM5.231,15.3184c-0.59999,0.05 -1.12998,-0.39 -1.18998,-0.98c0.06,-0.6 0.58999,-1.03 1.18998,-0.99h7.3299c0.6,-0.04 1.12,0.4 1.18,0.99c-0.06,0.59 -0.58,1.03 -1.18,0.98z"></path><path id="路径 4" fill-rule="evenodd" style="fill:#FFFFFF" opacity="1" d="M4.03857,8.33138zM10.0885,8.33138zM4.88857,9.32138c-0.5,-0.04 -0.88,-0.48 -0.85,-0.99c-0.03,-0.5 0.35,-0.94 0.85,-0.98h4.34995c0.50999,0.04 0.88998,0.48 0.84998,0.98c0.04,0.51 -0.33999,0.95 -0.84998,0.99z"></path></g></g></g></g><defs><rect id="path_0" x="0" y="0" width="18.2001953125" height="21.653549194335938" /></defs></svg>
