<svg xmlns="http://www.w3.org/2000/svg" xmlns:xlink="http://www.w3.org/1999/xlink" width="17.33349609375" height="22.519683837890625" viewBox="0 0 17.33349609375 22.519683837890625" fill="none"><g opacity="1"  transform="translate(0 0)  rotate(0)"><mask id="bg-mask-0" fill="white"><use transform="translate(0 0)  rotate(0)" xlink:href="#path_0"></use></mask><g mask="url(#bg-mask-0)" ><path id="路径 1" fill-rule="evenodd" style="fill:#FFFFFF" opacity="1" d="M13.1637,22.337h-8.98987c-2.31998,0 -4.20996,-1.89 -4.20996,-4.23v-5.2c0,-2.34 1.88998,-4.23998 4.20996,-4.23998h8.98987c2.32,0 4.2,1.89998 4.21,4.23998v5.2c-0.01,2.33 -1.89,4.23 -4.21,4.23zM1.77385,12.907v5.2c0,1.33 1.06999,2.42 2.39998,2.42h8.98987c1.32,-0.01 2.4,-1.09 2.4,-2.42v-5.2c0,-1.34 -1.08,-2.42 -2.4,-2.42h-8.98987c-1.32999,0 -2.39998,1.08 -2.39998,2.42z"></path><path id="路径 2" fill-rule="evenodd" style="fill:#FFFFFF" opacity="1" d="M13.6834 6.22097C13.8934 4.28097 12.9834 2.40097 11.3434 1.36097C9.70346 0.330973 7.61348 0.330973 5.97349 1.36097C4.33351 2.40097 3.42352 4.28097 3.63352 6.22097L3.63352 8.75097L5.80349 8.75097L5.80349 6.22097C5.6435 5.09097 6.14349 3.98097 7.09348 3.36097C8.05347 2.75097 9.27346 2.75097 10.2235 3.36097C11.1734 3.98097 11.6834 5.09097 11.5234 6.22097L11.5234 8.72097L13.6834 8.72097L13.6834 6.22097Z"></path></g></g><defs><rect id="path_0" x="0" y="0" width="17.33349609375" height="22.519699096679688" /></defs></svg>
