<svg xmlns="http://www.w3.org/2000/svg" xmlns:xlink="http://www.w3.org/1999/xlink" width="20" height="26" viewBox="0 0 20 26" fill="none"><g opacity="1"  transform="translate(0 0)  rotate(0)"><mask id="bg-mask-0" fill="white"><use transform="translate(0 0)  rotate(0)" xlink:href="#path_0"></use></mask><g mask="url(#bg-mask-0)" ><path id="路径 1" fill-rule="evenodd" style="fill:#E3E3E3" opacity="1" d="M15.1783,25.7865h-10.36005c-2.68,0 -4.86,-2.18 -4.86,-4.89v-6c0,-2.7 2.18,-4.89 4.86,-4.89h10.36005c2.69,0 4.86,2.19 4.86,4.89v6c0,2.7 -2.17,4.89 -4.86,4.89zM2.03825,14.8965v6c0,1.55 1.25,2.8 2.78,2.8h10.36005c1.54,-0.01 2.78,-1.25 2.78,-2.8v-6c0,-1.54 -1.24,-2.79 -2.78,-2.79h-10.36005c-1.53,0 -2.77,1.25 -2.78,2.79z"></path><path id="路径 2" fill-rule="evenodd" style="fill:#E3E3E3" opacity="1" d="M15.7882 7.18231C16.0282 4.94231 14.9782 2.77231 13.0882 1.57231C11.1982 0.382312 8.7882 0.382312 6.8982 1.57231C5.0082 2.77231 3.9582 4.94231 4.1882 7.18231L4.1882 10.1023L6.6882 10.1023L6.6882 7.18231C6.5082 5.88231 7.0982 4.59231 8.1882 3.88231C9.2882 3.17231 10.6982 3.17231 11.7882 3.88231C12.8882 4.59231 13.4782 5.88231 13.2882 7.18231L13.2882 10.0723L15.7882 10.0723L15.7882 7.18231Z"></path></g></g><defs><rect id="path_0" x="0" y="0" width="20" height="26" /></defs></svg>