<svg xmlns="http://www.w3.org/2000/svg" xmlns:xlink="http://www.w3.org/1999/xlink" width="127" height="41.99998474121094" viewBox="0 0 127 41.99998474121094" fill="none"><g id="矩形 2" filter="url(#filter_0)"><path id="矩形 2" fill-rule="evenodd" style="fill:#FFFFFF" opacity="1" d="M21 36.5L106 36.5C115.11 36.5 122.5 29.11 122.5 20L122.5 20C122.5 10.89 115.11 3.5 106 3.5L21 3.5C11.89 3.5 4.5 10.89 4.5 20L4.5 20C4.5 29.11 11.89 36.5 21 36.5Z"></path><path  id="矩形 2" style="fill:#FFFFFF; opacity:1;" d="M21,36h85c2.16933,0 4.245,-0.41917 6.227,-1.2575c1.914,-0.80987 3.60933,-1.95313 5.086,-3.4298c1.47667,-1.47667 2.61967,-3.17203 3.429,-5.0861c0.83867,-1.9814 1.258,-4.05693 1.258,-6.2266c0,-2.16967 -0.41933,-4.2452 -1.258,-6.2266c-0.80933,-1.91407 -1.95233,-3.60943 -3.429,-5.0861c-1.47667,-1.47669 -3.172,-2.61996 -5.086,-3.42979c-1.982,-0.83834 -4.05767,-1.25751 -6.227,-1.25751h-85c-2.1696,0 -4.24513,0.41917 -6.2266,1.25751c-1.91407,0.80983 -3.60943,1.9531 -5.0861,3.42979c-1.47669,1.47667 -2.61996,3.17203 -3.42979,5.0861c-0.83834,1.98147 -1.25751,4.057 -1.25751,6.2266c0,2.1696 0.41917,4.24513 1.25751,6.2266c0.80983,1.914 1.95309,3.60937 3.42979,5.0861c1.47667,1.47667 3.17203,2.61993 5.0861,3.4298c1.98147,0.83833 4.057,1.2575 6.2266,1.2575zM21,37c-2.30487,0 -4.51027,-0.44553 -6.6162,-1.3366c-2.0338,-0.86047 -3.835,-2.075 -5.40361,-3.6436c-1.56861,-1.5686 -2.78316,-3.3698 -3.64364,-5.4036c-0.89103,-2.10593 -1.33655,-4.31133 -1.33655,-6.6162c0,-2.30487 0.44552,-4.51027 1.33655,-6.6162c0.86048,-2.0338 2.07503,-3.835 3.64364,-5.40361c1.56861,-1.56861 3.36981,-2.78316 5.40361,-3.64364c2.10593,-0.89103 4.31133,-1.33655 6.6162,-1.33655h85c2.30467,0 4.51,0.44552 6.616,1.33655c2.034,0.86048 3.83533,2.07503 5.404,3.64364c1.56867,1.56861 2.783,3.36981 3.643,5.40361c0.89133,2.10593 1.337,4.31133 1.337,6.6162c0,2.30487 -0.44567,4.51027 -1.337,6.6162c-0.86,2.0338 -2.07433,3.835 -3.643,5.4036c-1.56867,1.5686 -3.37,2.78313 -5.404,3.6436c-2.106,0.89107 -4.31133,1.3366 -6.616,1.3366z"></path></g><defs><filter id="filter_0" x="0.5" y="-1.5" width="126" height="43" filterUnits="userSpaceOnUse" color-interpolation-filters="sRGB"><feFlood flood-opacity="0" result="feFloodId"/>
          <feColorMatrix in="SourceAlpha" type="matrix" values="0 0 0 0 0 0 0 0 0 0 0 0 0 0 0 0 0 0 127 0" result="hardAlpha"/>

          <feOffset dx="0" dy="1"/>
          <feComposite in2="hardAlpha" operator="out"/>
          <feGaussianBlur stdDeviation="2"/>
          <feColorMatrix type="matrix" values="0 0 0 0 0 0 0 0 0 0 0 0 0 0 0 0 0 0 0.25 0"/>
          <feBlend mode="normal" in2="filter_feFlood" result="filter_feFlood_1"/>
          <feBlend mode="normal" in="SourceGraphic" in2="filter_0" result="shape"/></filter></defs></svg>
