<svg xmlns="http://www.w3.org/2000/svg" xmlns:xlink="http://www.w3.org/1999/xlink" width="26" height="26" viewBox="0 0 26 26" fill="none"><g opacity="1"  transform="translate(0 0)  rotate(0)"><mask id="bg-mask-0" fill="white"><use transform="translate(0 0)  rotate(0)" xlink:href="#path_0"></use></mask><g mask="url(#bg-mask-0)" ><g opacity="1"  transform="translate(-0.053466796875 -0.00927734375)  rotate(0)"><g opacity="1"  transform="translate(0 0)  rotate(0)"><path id="路径 1" fill-rule="evenodd" style="fill:#E60012" opacity="1" d="M7.4328,10.2132zM24.3728,3.28321zM7.4328,12.0432c-0.24,-0.24 -0.38,-0.57 -0.38,-0.91c0,-0.35 0.14,-0.68 0.38,-0.92c0.24,-0.23999 0.57,-0.37999 0.92,-0.37999c0.34,0 0.67,0.14 0.91,0.37999l3.18,3.18l10.1,-10.10999c0.51,-0.49 1.32,-0.49 1.83,0c0.5,0.51 0.5,1.33 0,1.83l-11.93,11.92999z"></path><path id="路径 2" fill-rule="evenodd" style="fill:#E60012" opacity="1" d="M18.7499,3.3zM17.4199,24.08c-5.36,2.27 -11.56996,0.55 -14.99996,-4.15c-3.44,-4.69 -3.19,-11.13 0.59,-15.55c3.79,-4.42 10.10996,-5.65 15.27996,-2.98c0.33,0.18 0.57,0.48 0.66,0.85c0.08,0.36 0.01,0.74 -0.2,1.05c-0.36,0.53 -1.06,0.71 -1.63,0.41c-2.97,-1.51 -6.49,-1.48 -9.42996,0.07c-1.9,0.97 -3.39,2.58 -4.2,4.56c-1.7,3.69 -0.98,8.04 1.82,10.99c2.79,2.95 7.09996,3.9 10.87996,2.39c3.77,-1.5 6.26,-5.15 6.26,-9.21c0.01,-0.48 -0.03,-0.95 -0.09,-1.43c-0.1,-0.6 0.28,-1.18 0.87,-1.33h0.15c0.34,-0.09 0.7,-0.03 1,0.16c0.29,0.19 0.49,0.5 0.55,0.85c0.54,3.92 -0.75,7.88 -3.5,10.72c-1.13,1.15 -2.5,2.04 -4.01,2.6z"></path></g></g></g></g><defs><rect id="path_0" x="0" y="0" width="26" height="26" /></defs></svg>
