<svg xmlns="http://www.w3.org/2000/svg" xmlns:xlink="http://www.w3.org/1999/xlink" width="24.9974365234375" height="25" viewBox="0 0 24.9974365234375 25" fill="none"><g opacity="1"  transform="translate(0 0)  rotate(0)"><path id="路径 1" fill-rule="evenodd" style="fill:#1C5CFF" opacity="1" d="M20.344,12.4621c0,1.88 0,3.77 0,5.65c-0.01,1.6 -0.76,2.38 -2.35,2.39c-3.67,0.02 -7.34,0.02 -10.99999,0c-1.62,0 -2.37,-0.82 -2.38,-2.48c0,-3.7 0,-7.4 0,-11.11003c0,-1.69 0.79,-2.48 2.46,-2.48c3.63999,0 7.27999,0 10.91999,0c1.56,0 2.35,0.79 2.36,2.38c0.01,1.88 -0.01,3.77003 -0.01,5.65003zM7.56401,6.48207c-0.71,-0.01 -0.96,0.27 -0.96,0.98c0.02,3.36003 0.02,6.72003 0,10.08003c0,0.66 0.29,0.94 0.93,0.94c3.29999,0 6.60999,0 9.90999,0c0.65,0 0.93,-0.32 0.93,-0.97c0,-3.36 0,-6.72 0,-10.07003c0,-0.72 -0.29,-0.99 -0.99,-0.97c-1.61,0.05 -3.21,0.01 -4.82,0.01v0c-1.67,0 -3.32999,0.02 -4.99999,0z"></path><path id="路径 2" fill-rule="evenodd" style="fill:#1C5CFF" opacity="1" d="M7.90747 17.1508L17.0475 17.1508L17.0475 7.79077L7.90747 7.79077L7.90747 17.1508Z"></path><path id="路径 3" fill-rule="evenodd" style="fill:#1C5CFF" opacity="1" d="M22.2649 17.5887L24.3849 17.5887C24.7249 17.5887 24.9949 17.3187 24.9949 16.9787L24.9949 16.9787C24.9949 16.6387 24.7249 16.3587 24.3849 16.3587L22.2649 16.3587C21.9249 16.3587 21.6449 16.6387 21.6449 16.9787L21.6449 16.9787C21.6449 17.3187 21.9249 17.5887 22.2649 17.5887Z"></path><path id="路径 4" fill-rule="evenodd" style="fill:#1C5CFF" opacity="1" d="M22.2649 15.4284L24.3849 15.4284C24.7249 15.4284 24.9949 15.1584 24.9949 14.8184L24.9949 14.8184C24.9949 14.4784 24.7249 14.1984 24.3849 14.1984L22.2649 14.1984C21.9249 14.1984 21.6449 14.4784 21.6449 14.8184L21.6449 14.8184C21.6449 15.1584 21.9249 15.4284 22.2649 15.4284Z"></path><path id="路径 5" fill-rule="evenodd" style="fill:#1C5CFF" opacity="1" d="M22.2649 13.268L24.3849 13.268C24.7249 13.268 24.9949 12.998 24.9949 12.658L24.9949 12.658C24.9949 12.318 24.7249 12.038 24.3849 12.038L22.2649 12.038C21.9249 12.038 21.6449 12.318 21.6449 12.658L21.6449 12.658C21.6449 12.998 21.9249 13.268 22.2649 13.268Z"></path><path id="路径 6" fill-rule="evenodd" style="fill:#1C5CFF" opacity="1" d="M22.2649 11.1077L24.3849 11.1077C24.7249 11.1077 24.9949 10.8377 24.9949 10.4977L24.9949 10.4977C24.9949 10.1577 24.7249 9.87769 24.3849 9.87769L22.2649 9.87769C21.9249 9.87769 21.6449 10.1577 21.6449 10.4977L21.6449 10.4977C21.6449 10.8377 21.9249 11.1077 22.2649 11.1077Z"></path><path id="路径 7" fill-rule="evenodd" style="fill:#1C5CFF" opacity="1" d="M22.2649 8.94741L24.3849 8.94741C24.7249 8.94741 24.9949 8.67741 24.9949 8.33741L24.9949 8.33741C24.9949 7.99741 24.7249 7.71741 24.3849 7.71741L22.2649 7.71741C21.9249 7.71741 21.6449 7.99741 21.6449 8.33741L21.6449 8.33741C21.6449 8.67741 21.9249 8.94741 22.2649 8.94741Z"></path><path id="路径 8" fill-rule="evenodd" style="fill:#1C5CFF" opacity="1" d="M0.62 17.5887L2.74 17.5887C3.08 17.5887 3.35 17.3187 3.35 16.9787L3.35 16.9787C3.35 16.6387 3.08 16.3587 2.74 16.3587L0.62 16.3587C0.28 16.3587 0 16.6387 0 16.9787L0 16.9787C0 17.3187 0.28 17.5887 0.62 17.5887Z"></path><path id="路径 9" fill-rule="evenodd" style="fill:#1C5CFF" opacity="1" d="M0.62 15.4284L2.74 15.4284C3.08 15.4284 3.35 15.1584 3.35 14.8184L3.35 14.8184C3.35 14.4784 3.08 14.1984 2.74 14.1984L0.62 14.1984C0.28 14.1984 0 14.4784 0 14.8184L0 14.8184C0 15.1584 0.28 15.4284 0.62 15.4284Z"></path><path id="路径 10" fill-rule="evenodd" style="fill:#1C5CFF" opacity="1" d="M0.62 13.268L2.74 13.268C3.08 13.268 3.35 12.998 3.35 12.658L3.35 12.658C3.35 12.318 3.08 12.038 2.74 12.038L0.62 12.038C0.28 12.038 0 12.318 0 12.658L0 12.658C0 12.998 0.28 13.268 0.62 13.268Z"></path><path id="路径 11" fill-rule="evenodd" style="fill:#1C5CFF" opacity="1" d="M0.62 11.1077L2.74 11.1077C3.08 11.1077 3.35 10.8377 3.35 10.4977L3.35 10.4977C3.35 10.1577 3.08 9.87769 2.74 9.87769L0.62 9.87769C0.28 9.87769 0 10.1577 0 10.4977L0 10.4977C0 10.8377 0.28 11.1077 0.62 11.1077Z"></path><path id="路径 12" fill-rule="evenodd" style="fill:#1C5CFF" opacity="1" d="M0.62 8.94741L2.74 8.94741C3.08 8.94741 3.35 8.67741 3.35 8.33741L3.35 8.33741C3.35 7.99741 3.08 7.71741 2.74 7.71741L0.62 7.71741C0.28 7.71741 0 7.99741 0 8.33741L0 8.33741C0 8.67741 0.28 8.94741 0.62 8.94741Z"></path><path id="路径 13" fill-rule="evenodd" style="fill:#1C5CFF" opacity="1" d="M17.3784 2.78673L17.3784 0.616729C17.3784 0.276729 17.1084 0.00672841 16.7684 0.00672841L16.7684 0.00672841C16.4284 0.00672841 16.1584 0.276729 16.1584 0.616729L16.1584 2.78673C16.1584 3.12673 16.4284 3.39673 16.7684 3.39673L16.7684 3.39673C17.1084 3.39673 17.3784 3.12673 17.3784 2.78673Z"></path><path id="路径 14" fill-rule="evenodd" style="fill:#1C5CFF" opacity="1" d="M15.2445 2.78673L15.2445 0.616729C15.2445 0.276729 14.9745 0.00672841 14.6345 0.00672841L14.6345 0.00672841C14.2945 0.00672841 14.0245 0.276729 14.0245 0.616729L14.0245 2.78673C14.0245 3.12673 14.2945 3.39673 14.6345 3.39673L14.6345 3.39673C14.9745 3.39673 15.2445 3.12673 15.2445 2.78673Z"></path><path id="路径 15" fill-rule="evenodd" style="fill:#1C5CFF" opacity="1" d="M13.1107 2.78404L13.1107 0.614043C13.1107 0.274043 12.8407 0.00404286 12.5007 0.00404286L12.5007 0.00404286C12.1607 0.00404286 11.8907 0.274043 11.8907 0.614043L11.8907 2.78404C11.8907 3.12404 12.1607 3.39404 12.5007 3.39404L12.5007 3.39404C12.8407 3.39404 13.1107 3.12404 13.1107 2.78404Z"></path><path id="路径 16" fill-rule="evenodd" style="fill:#1C5CFF" opacity="1" d="M10.9768 2.78404L10.9768 0.614043C10.9768 0.274043 10.7068 0.00404286 10.3668 0.00404286L10.3668 0.00404286C10.0268 0.00404286 9.75684 0.274043 9.75684 0.614043L9.75684 2.78404C9.75684 3.12404 10.0268 3.39404 10.3668 3.39404L10.3668 3.39404C10.7068 3.39404 10.9768 3.12404 10.9768 2.78404Z"></path><path id="路径 17" fill-rule="evenodd" style="fill:#1C5CFF" opacity="1" d="M8.84293 2.78404L8.84293 0.614043C8.84293 0.274043 8.57292 0.00404286 8.23292 0.00404286L8.23292 0.00404286C7.89292 0.00404286 7.62292 0.274043 7.62292 0.614043L7.62292 2.78404C7.62292 3.12404 7.89292 3.39404 8.23292 3.39404L8.23292 3.39404C8.57292 3.39404 8.84293 3.12404 8.84293 2.78404Z"></path><path id="路径 18" fill-rule="evenodd" style="fill:#1C5CFF" opacity="1" d="M17.3784 24.39L17.3784 22.22C17.3784 21.88 17.1084 21.61 16.7684 21.61L16.7684 21.61C16.4284 21.61 16.1584 21.88 16.1584 22.22L16.1584 24.39C16.1584 24.73 16.4284 25 16.7684 25L16.7684 25C17.1084 25 17.3784 24.73 17.3784 24.39Z"></path><path id="路径 19" fill-rule="evenodd" style="fill:#1C5CFF" opacity="1" d="M15.2445 24.39L15.2445 22.22C15.2445 21.88 14.9745 21.61 14.6345 21.61L14.6345 21.61C14.2945 21.61 14.0245 21.88 14.0245 22.22L14.0245 24.39C14.0245 24.73 14.2945 25 14.6345 25L14.6345 25C14.9745 25 15.2445 24.73 15.2445 24.39Z"></path><path id="路径 20" fill-rule="evenodd" style="fill:#1C5CFF" opacity="1" d="M13.1081 24.39L13.1081 22.22C13.1081 21.88 12.8381 21.61 12.4981 21.61L12.4981 21.61C12.1581 21.61 11.8881 21.88 11.8881 22.22L11.8881 24.39C11.8881 24.73 12.1581 25 12.4981 25L12.4981 25C12.8381 25 13.1081 24.73 13.1081 24.39Z"></path><path id="路径 21" fill-rule="evenodd" style="fill:#1C5CFF" opacity="1" d="M10.9742 24.39L10.9742 22.22C10.9742 21.88 10.7042 21.61 10.3642 21.61L10.3642 21.61C10.0242 21.61 9.75415 21.88 9.75415 22.22L9.75415 24.39C9.75415 24.73 10.0242 25 10.3642 25L10.3642 25C10.7042 25 10.9742 24.73 10.9742 24.39Z"></path><path id="路径 22" fill-rule="evenodd" style="fill:#1C5CFF" opacity="1" d="M8.84024 24.39L8.84024 22.22C8.84024 21.88 8.57024 21.61 8.23024 21.61L8.23024 21.61C7.89024 21.61 7.62024 21.88 7.62024 22.22L7.62024 24.39C7.62024 24.73 7.89024 25 8.23024 25L8.23024 25C8.57024 25 8.84024 24.73 8.84024 24.39Z"></path></g></svg>
