<svg xmlns="http://www.w3.org/2000/svg" xmlns:xlink="http://www.w3.org/1999/xlink" width="21" height="21" viewBox="0 0 21 21" fill="none"><g opacity="1"  transform="translate(0 0)  rotate(0)"><mask id="bg-mask-0" fill="white"><use transform="translate(0 0)  rotate(0)" xlink:href="#path_0"></use></mask><g mask="url(#bg-mask-0)" ><g opacity="1"  transform="translate(-0.0140380859375 -0.006103515625)  rotate(0)"><g opacity="1"  transform="translate(0 0)  rotate(0)"><path id="路径 1" fill-rule="evenodd" style="fill:#7D7D7D" opacity="1" d="M9.85 15.416C9.48 15.246 9.04 15.366 8.8 15.706C8.1 16.446 7.37 17.156 6.64 17.866C5.51 18.996 3.95 19.036 2.96 18.016C1.96 16.986 2.01 15.486 3.12 14.366C4.58 12.886 6.06 11.426 7.51 9.956C8.64 8.836 9.91 8.776 11.16 9.776C11.74 10.256 12.35 10.246 12.79 9.756C13.23 9.276 13.16 8.616 12.6 8.096C10.88 6.476 8.09 6.386 6.37 8.006C4.59 9.676 2.87 11.416 1.19 13.186C0.21 14.206 -0.2 15.646 0.09 17.036C0.33 18.756 1.54 20.196 3.2 20.706C4.81 21.336 6.63 20.966 7.86 19.756C9.16 18.566 10.37 17.256 11.63 16.026C11.68 15.966 11.73 15.896 11.77 15.826C11.12 15.726 10.48 15.596 9.85 15.416Z"></path><path id="路径 2" fill-rule="evenodd" style="fill:#7D7D7D" opacity="1" d="M11.2965 5.58C11.5765 5.71 11.8965 5.64 12.0965 5.4C12.8765 4.58 13.6765 3.77 14.5065 2.98C15.1165 2.31 16.0565 2.03 16.9365 2.25C17.8165 2.48 18.5065 3.16 18.7365 4.04C18.9665 4.92 18.6865 5.86 18.0265 6.48C16.4965 8.03 14.9565 9.57 13.3965 11.1C12.3665 12.12 11.0565 12.16 9.92652 11.26C9.27652 10.74 8.64652 10.71 8.19652 11.24C7.75652 11.76 7.87652 12.43 8.52652 12.99C10.3565 14.56 13.0765 14.49 14.8165 12.82C16.4765 11.25 18.0865 9.63 19.6565 7.98C20.5465 7.09 21.0365 5.88 21.0165 4.62C20.9965 3.36 20.4565 2.16 19.5365 1.3C17.7065 -0.49 14.7765 -0.43 12.8865 1.44C11.7665 2.55 10.6565 3.66 9.55652 4.77C9.44652 4.88 9.35652 5.01 9.24652 5.14C9.95652 5.29 10.6365 5.38 11.2965 5.58Z"></path></g></g></g></g><defs><rect id="path_0" x="0" y="0" width="21" height="21" /></defs></svg>
