<svg xmlns="http://www.w3.org/2000/svg" xmlns:xlink="http://www.w3.org/1999/xlink" width="14.0009765625" height="14" viewBox="0 0 14.0009765625 14" fill="none"><path id="矩形 1" fill-rule="evenodd" style="fill:#FFFFFF" opacity="1" d="M3.50012 13.5L10.5004 13.5C12.1605 13.5 13.5005 12.16 13.5005 10.5L13.5005 3.5C13.5005 1.84 12.1605 0.5 10.5004 0.5L3.50012 0.5C1.84005 0.5 0.5 1.84 0.5 3.5L0.5 10.5C0.5 12.16 1.84005 13.5 3.50012 13.5Z"></path><path  id="矩形 1" style="fill:#000000; opacity:1;" d="M3.50012,13h7.00028c1.3808,0 2.5001,-1.1193 2.5001,-2.5v-7c0,-1.38071 -1.1193,-2.5 -2.5001,-2.5h-7.00028c-1.38077,0 -2.5001,1.11929 -2.5001,2.5v7c0,1.3807 1.11933,2.5 2.5001,2.5zM3.50012,14c-1.93307,0 -3.50014,-1.567 -3.50014,-3.5v-7c0,-1.933 1.56707,-3.5 3.50014,-3.5h7.00028c1.9331,0 3.5001,1.567 3.5001,3.5v7c0,1.933 -1.567,3.5 -3.5001,3.5z"></path></svg>
