<svg xmlns="http://www.w3.org/2000/svg" xmlns:xlink="http://www.w3.org/1999/xlink" width="26" height="26" viewBox="0 0 26 26" fill="none">
<path d="M21.1645 12.9604C21.1645 14.9189 21.1645 16.8774 21.1645 18.8359C21.1478 20.5033 20.3716 21.3115 18.7161 21.32C14.8988 21.3407 11.0834 21.3407 7.2698 21.32C5.59473 21.32 4.80466 20.4722 4.79907 18.7454C4.79907 14.8944 4.79907 11.0425 4.79907 7.18956C4.79907 5.42608 5.61706 4.61217 7.35635 4.60934C11.1457 4.60934 14.9332 4.60934 18.7189 4.60934C20.3409 4.60934 21.1589 5.43174 21.1729 7.08782C21.1757 9.04347 21.1645 11.002 21.1645 12.9604ZM13.0683 6.74304C11.3346 6.74304 9.60094 6.76565 7.86724 6.74304C7.133 6.72891 6.86499 7.02565 6.87057 7.76043C6.89291 11.2535 6.89291 14.7465 6.87057 18.2396C6.87337 18.9348 7.17209 19.2174 7.83374 19.2174C11.2695 19.2174 14.7071 19.2174 18.1466 19.2174C18.8166 19.2174 19.1153 18.8896 19.1153 18.2141C19.1153 14.7211 19.1153 11.228 19.1153 7.735C19.1153 6.99456 18.811 6.71478 18.0852 6.72891C16.4101 6.78261 14.7406 6.74587 13.0711 6.74587L13.0683 6.74304Z" fill-rule="evenodd"  fill="#E60012" >
</path>
<path d="M8.22461 17.8383L17.7362 17.8383L17.7362 8.1024L8.22461 8.1024L8.22461 17.8383Z"   fill="#E60012" >
</path>
<path     fill="#E60012"  d="M25.3584 18.2961C25.7127 18.2961 25.9999 18.0089 25.9999 17.6546C25.9999 17.3003 25.7127 17.013 25.3584 17.013L23.1545 17.013C22.8002 17.013 22.5129 17.3003 22.5129 17.6546C22.5129 18.0089 22.8002 18.2961 23.1545 18.2961L25.3584 18.2961Z">
</path>
<path     fill="#E60012"  d="M25.3584 16.0493C25.7127 16.0493 25.9999 15.7621 25.9999 15.4078C25.9999 15.0535 25.7127 14.7663 25.3584 14.7663L23.1545 14.7663C22.8002 14.7663 22.5129 15.0535 22.5129 15.4078C22.5129 15.7621 22.8002 16.0493 23.1545 16.0493L25.3584 16.0493Z">
</path>
<path     fill="#E60012"  d="M25.3584 13.8026C25.7127 13.8026 25.9999 13.5154 25.9999 13.1611C25.9999 12.8068 25.7127 12.5195 25.3584 12.5195L23.1545 12.5195C22.8002 12.5195 22.5129 12.8068 22.5129 13.1611C22.5129 13.5154 22.8002 13.8026 23.1545 13.8026L25.3584 13.8026Z">
</path>
<path     fill="#E60012"  d="M25.3584 11.5558C25.7127 11.5558 25.9999 11.2686 25.9999 10.9143C25.9999 10.56 25.7127 10.2728 25.3584 10.2728L23.1545 10.2728C22.8002 10.2728 22.5129 10.56 22.5129 10.9143C22.5129 11.2686 22.8002 11.5558 23.1545 11.5558L25.3584 11.5558Z">
</path>
<path     fill="#E60012"  d="M25.3584 9.30915C25.7127 9.30915 25.9999 9.02193 25.9999 8.66763C25.9999 8.31333 25.7127 8.02611 25.3584 8.02611L23.1545 8.02611C22.8002 8.02611 22.5129 8.31333 22.5129 8.66763C22.5129 9.02193 22.8002 9.30915 23.1545 9.30915L25.3584 9.30915Z">
</path>
<path     fill="#E60012"  d="M2.84541 18.2961C3.19972 18.2961 3.48694 18.0089 3.48694 17.6546C3.48694 17.3003 3.19972 17.013 2.84541 17.013L0.641525 17.013C0.28722 17.013 6.09769e-17 17.3003 3.92821e-17 17.6546C-2.58026e-17 18.0089 0.28722 18.2961 0.641525 18.2961L2.84541 18.2961Z">
</path>
<path     fill="#E60012"  d="M2.84542 16.0493C3.19972 16.0493 3.48694 15.7621 3.48694 15.4078C3.48694 15.0535 3.19972 14.7663 2.84542 14.7663L0.641517 14.7663C0.287217 14.7663 6.09762e-17 15.0535 3.92816e-17 15.4078C-2.58023e-17 15.7621 0.287217 16.0493 0.641517 16.0493L2.84542 16.0493Z">
</path>
<path     fill="#E60012"  d="M2.84542 13.8026C3.19972 13.8026 3.48694 13.5154 3.48694 13.1611C3.48694 12.8068 3.19972 12.5195 2.84542 12.5195L0.641517 12.5195C0.287217 12.5195 6.09762e-17 12.8068 3.92816e-17 13.1611C-2.58023e-17 13.5154 0.287217 13.8026 0.641517 13.8026L2.84542 13.8026Z">
</path>
<path     fill="#E60012"  d="M2.84541 11.5558C3.19972 11.5558 3.48694 11.2686 3.48694 10.9143C3.48694 10.56 3.19972 10.2728 2.84541 10.2728L0.641525 10.2728C0.28722 10.2728 6.09769e-17 10.56 3.92821e-17 10.9143C-2.58026e-17 11.2686 0.28722 11.5558 0.641525 11.5558L2.84541 11.5558Z">
</path>
<path     fill="#E60012"  d="M2.84542 9.30915C3.19972 9.30915 3.48694 9.02193 3.48694 8.66763C3.48694 8.31333 3.19972 8.02611 2.84542 8.02611L0.641517 8.02611C0.287217 8.02611 6.09762e-17 8.31333 3.92816e-17 8.66763C-2.58023e-17 9.02193 0.287217 9.30915 0.641517 9.30915L2.84542 9.30915Z">
</path>
<path     fill="#E60012"  d="M18.074 0.636539C18.074 0.286541 17.7903 0.00281191 17.4403 0.00281191C17.0903 0.00281191 16.8065 0.286541 16.8065 0.636539L16.8065 2.89887C16.8065 3.24886 17.0903 3.53259 17.4403 3.53259C17.7903 3.53259 18.074 3.24886 18.074 2.89887L18.074 0.636539Z">
</path>
<path     fill="#E60012"  d="M15.8545 0.636539C15.8545 0.286541 15.5708 0.00281191 15.2208 0.00281191C14.8708 0.00281191 14.587 0.286541 14.587 0.636539L14.587 2.89887C14.587 3.24886 14.8708 3.53259 15.2208 3.53259C15.5708 3.53259 15.8545 3.24886 15.8545 2.89887L15.8545 0.636539Z">
</path>
<path     fill="#E60012"  d="M13.6351 0.633747C13.6351 0.283749 13.3514 1.95503e-05 13.0014 1.95503e-05C12.6514 1.95503e-05 12.3677 0.283749 12.3677 0.633747L12.3677 2.89607C12.3677 3.24607 12.6514 3.5298 13.0014 3.5298C13.3514 3.5298 13.6351 3.24607 13.6351 2.89607L13.6351 0.633747Z">
</path>
<path     fill="#E60012"  d="M11.4157 0.633747C11.4157 0.283749 11.1319 1.95503e-05 10.7819 1.95503e-05C10.4319 1.95503e-05 10.1482 0.283749 10.1482 0.633747L10.1482 2.89607C10.1482 3.24607 10.4319 3.5298 10.7819 3.5298C11.1319 3.5298 11.4157 3.24607 11.4157 2.89607L11.4157 0.633747Z">
</path>
<path     fill="#E60012"  d="M9.19618 0.633747C9.19618 0.283749 8.91245 1.95503e-05 8.56245 1.95503e-05C8.21244 1.95503e-05 7.92871 0.283749 7.92871 0.633747L7.92871 2.89607C7.92871 3.24607 8.21244 3.5298 8.56245 3.5298C8.91245 3.5298 9.19618 3.24607 9.19618 2.89607L9.19618 0.633747Z">
</path>
<path     fill="#E60012"  d="M18.074 23.1039C18.074 22.7539 17.7903 22.4702 17.4403 22.4702C17.0903 22.4702 16.8065 22.7539 16.8065 23.1039L16.8065 25.3663C16.8065 25.7163 17.0903 26 17.4403 26C17.7903 26 18.074 25.7163 18.074 25.3663L18.074 23.1039Z">
</path>
<path     fill="#E60012"  d="M15.8545 23.1039C15.8545 22.7539 15.5708 22.4702 15.2208 22.4702C14.8708 22.4702 14.587 22.7539 14.587 23.1039L14.587 25.3663C14.587 25.7163 14.8708 26 15.2208 26C15.5708 26 15.8545 25.7163 15.8545 25.3663L15.8545 23.1039Z">
</path>
<path     fill="#E60012"  d="M13.6323 23.1039C13.6323 22.7539 13.3486 22.4702 12.9986 22.4702C12.6486 22.4702 12.3649 22.7539 12.3649 23.1039L12.3649 25.3663C12.3649 25.7163 12.6486 26 12.9986 26C13.3486 26 13.6323 25.7163 13.6323 25.3663L13.6323 23.1039Z">
</path>
<path     fill="#E60012"  d="M11.4129 23.1039C11.4129 22.7539 11.1291 22.4702 10.7791 22.4702C10.4291 22.4702 10.1454 22.7539 10.1454 23.1039L10.1454 25.3663C10.1454 25.7163 10.4291 26 10.7791 26C11.1291 26 11.4129 25.7163 11.4129 25.3663L11.4129 23.1039Z">
</path>
<path     fill="#E60012"  d="M9.19337 23.1039C9.19337 22.7539 8.90964 22.4702 8.55964 22.4702C8.20964 22.4702 7.9259 22.7539 7.9259 23.1039L7.9259 25.3663C7.9259 25.7163 8.20964 26 8.55964 26C8.90964 26 9.19337 25.7163 9.19337 25.3663L9.19337 23.1039Z">
</path>
</svg>
