<svg xmlns="http://www.w3.org/2000/svg" xmlns:xlink="http://www.w3.org/1999/xlink" width="22" height="25" viewBox="0 0 22 25" fill="none"><g opacity="1"  transform="translate(0 0)  rotate(0)"><mask id="bg-mask-0" fill="white"><use transform="translate(0 0)  rotate(0)" xlink:href="#path_0"></use></mask><g mask="url(#bg-mask-0)" ><g opacity="1"  transform="translate(0.95654296875 0.950927734375)  rotate(0)"><g opacity="1"  transform="translate(0 0)  rotate(0)"><path  id="路径 1" style="fill:#4D4D4D; opacity:1;" d="M8.11746,21.8999c0.73061,-0.18267 1.39903,-0.49903 2.00524,-0.9491c0.6058,-0.44973 1.10223,-0.9979 1.4893,-1.6445l7.4506,-12.411c0.01447,-0.02332 0.02023,-0.04091 0.0173,-0.05276c-0.00367,-0.01446 -0.01847,-0.02948 -0.0444,-0.04505l-9.64213,-5.77727l-0.01242,-0.00795c-0.02164,-0.01385 -0.04708,-0.01724 -0.07631,-0.01019c-0.0171,0.00413 -0.02849,0.01147 -0.03417,0.02202l-0.01093,0.02031l-7.45186,12.42979c-0.39049,0.64513 -0.63985,1.34 -0.74808,2.0846c-0.10797,0.74287 -0.06824,1.48067 0.1192,2.2134c0.18309,0.73227 0.50127,1.4015 0.95456,2.0077c0.45304,0.60587 1.00565,1.10273 1.65783,1.4906c0.64832,0.38813 1.34655,0.6369 2.09469,0.7463c0.75015,0.1096 1.4927,0.07097 2.22763,-0.1159zM8.60649,23.8391c-0.99297,0.2526 -1.99626,0.3048 -3.00987,0.1566c-1.01167,-0.14787 -1.95428,-0.48327 -2.82781,-1.0062c-0.87981,-0.52333 -1.62553,-1.19397 -2.23717,-2.0119c-0.61393,-0.821 -1.04408,-1.72427 -1.29044,-2.7098c-0.25352,-0.99107 -0.30712,-1.98993 -0.1608,-2.9966c0.1471,-1.01207 0.48441,-1.95387 1.01193,-2.8254l7.44,-12.40999l0.85768,0.51419l-0.88047,-0.4741c0.13803,-0.25634 0.32383,-0.47367 0.5574,-0.65199c0.23051,-0.17598 0.48665,-0.29797 0.76843,-0.36599c0.27641,-0.06672 0.55517,-0.07706 0.83628,-0.03102c0.28437,0.04658 0.54686,0.14685 0.78746,0.30083l-0.5391,0.84227l0.514,-0.85781l9.6305,5.77032c0.23567,0.14139 0.43487,0.31859 0.5976,0.53162c0.17067,0.22333 0.29,0.4711 0.358,0.74333c0.06813,0.2725 0.07957,0.54718 0.0343,0.82403c-0.0444,0.27121 -0.13673,0.51895 -0.277,0.74321l-7.4494,12.409c-0.52333,0.87413 -1.1944,1.61513 -2.0132,2.223c-0.8196,0.60847 -1.72369,1.03627 -2.71226,1.2834z"></path><path id="路径 2" fill-rule="evenodd" style="fill:#4D4D4D" opacity="1" d="M7.04609 3.70259C6.78609 3.58259 6.48609 3.69259 6.36609 3.94259L1.09609 12.7426C1.01609 12.8426 0.986094 12.9826 1.00609 13.1126C1.02609 13.2426 1.09609 13.3626 1.20609 13.4426L11.9361 19.8526C12.1861 19.9626 12.4761 19.8626 12.6061 19.6126L17.8761 10.8326C18.0361 10.6026 17.9861 10.2926 17.7661 10.1226L7.04609 3.70259Z"></path></g></g></g></g><defs><rect id="path_0" x="0" y="0" width="22" height="25" /></defs></svg>
