<svg xmlns="http://www.w3.org/2000/svg" xmlns:xlink="http://www.w3.org/1999/xlink" width="28" height="26" viewBox="0 0 28 26" fill="none"><g opacity="1"  transform="translate(0 0)  rotate(0)"><mask id="bg-mask-0" fill="white"><use transform="translate(0 0)  rotate(0)" xlink:href="#path_0"></use></mask><g mask="url(#bg-mask-0)" ><g opacity="1"  transform="translate(0 -2)  rotate(0)"><g opacity="1"  transform="translate(0 0)  rotate(0)"><path id="路径 1" fill-rule="evenodd" style="fill:#7D7D7D" opacity="1" d="M22.5925 27.9956L24.7425 27.9956L24.7425 15.5056L22.5925 15.5056L22.5925 27.9956Z"></path><path id="路径 2" fill-rule="evenodd" style="fill:#7D7D7D" opacity="1" d="M26.2211,3.76892zM26.2211,8.08892v-4.32h1.78v10.60998h-8.89v-10.60998h1.85v4.32z"></path><path id="路径 3" fill-rule="evenodd" style="fill:#7D7D7D" opacity="1" d="M21.5645 7.31L25.6345 7.31L25.6345 2L21.5645 2L21.5645 7.31Z"></path><path id="路径 4" fill-rule="evenodd" style="fill:#7D7D7D" opacity="1" d="M23.48 23.5652L22.59 22.3852C22.5 22.4552 22.4 22.4852 22.29 22.4852L2.01 22.4852C1.72 22.4852 1.48 22.2552 1.48 21.9652L1.48 7.68524C1.48 7.39524 1.72 7.15524 2.01 7.15524L19.74 7.15524L19.74 5.68524L2.01 5.68524C0.9 5.68524 0 6.57524 0 7.68524L0 21.9652C0 23.0652 0.9 23.9652 2.01 23.9652L22.29 23.9652C22.72 23.9652 23.13 23.8252 23.48 23.5652Z"></path><path id="路径 5" fill-rule="evenodd" style="fill:#7D7D7D" opacity="1" d="M22.2246 23.8817L22.2246 23.5217L20.7446 23.5217L20.7446 23.8817C20.7646 24.2717 20.4646 24.6117 20.0746 24.6317L4.50458 24.6317C4.37458 24.6117 4.28458 24.5017 4.29458 24.3717L4.29458 23.5217L2.81458 23.5217L2.81458 24.3717C2.80458 25.3117 3.55458 26.0917 4.50458 26.1117L20.0746 26.1117C21.2846 26.0817 22.2446 25.0917 22.2246 23.8817Z"></path><path id="路径 6" fill-rule="evenodd" style="fill:#7D7D7D" opacity="1" d="M4.54035 12.0219L6.36924 10.2021C6.60317 9.96933 6.60317 9.60256 6.36924 9.3698L6.36924 9.3698C6.13531 9.13704 5.7667 9.13704 5.53277 9.3698L3.70388 11.1896C3.46995 11.4223 3.46995 11.7891 3.70388 12.0219L3.70388 12.0219C3.93781 12.2546 4.30642 12.2546 4.54035 12.0219Z"></path><path id="路径 7" fill-rule="evenodd" style="fill:#7D7D7D" opacity="1" d="M4.98432 15.7075L10.074 10.6432C10.308 10.4104 10.308 10.0436 10.074 9.81086L10.074 9.81086C9.8401 9.5781 9.47148 9.5781 9.23756 9.81086L4.14785 14.8752C3.91392 15.1079 3.91392 15.4747 4.14785 15.7075L4.14785 15.7075C4.38178 15.9402 4.75039 15.9402 4.98432 15.7075Z"></path></g></g></g></g><defs><rect id="path_0" x="0" y="0" width="28" height="26" /></defs></svg>
