<svg xmlns="http://www.w3.org/2000/svg" xmlns:xlink="http://www.w3.org/1999/xlink" width="26" height="26" viewBox="0 0 26 26" fill="none"><g opacity="1"  transform="translate(0 0)  rotate(0)"><mask id="bg-mask-0" fill="white"><use transform="translate(0 0)  rotate(0)" xlink:href="#path_0"></use></mask><g mask="url(#bg-mask-0)" ><g opacity="1"  transform="translate(0 0)  rotate(0)"><g opacity="1"  transform="translate(0 0)  rotate(0)"><path id="路径 1" fill-rule="evenodd" style="fill:#7D7D7D" opacity="1" d="M13,26c-7.17,0 -13,-5.83 -13,-13c0,-7.17 5.83,-13 13,-13c7.17,0 13,5.83 13,13c-0.01,7.18 -5.82,12.99 -13,13zM2.26,13c0,5.92 4.82,10.74 10.74,10.74c5.92,0 10.74,-4.82 10.74,-10.74c-0.01,-5.92 -4.82,-10.73 -10.74,-10.74c-5.92,0 -10.74,4.82 -10.74,10.74z"></path><path id="路径 2" fill-rule="evenodd" style="fill:#7D7D7D" opacity="1" d="M13.1411 16.8514L13.2811 16.8514C14.1111 16.8514 14.7811 16.1814 14.7811 15.3514L14.7811 7.07143C14.7811 6.24143 14.1111 5.57143 13.2811 5.57143L13.1411 5.57143C12.3111 5.57143 11.6411 6.24143 11.6411 7.07143L11.6411 15.3514C11.6411 16.1814 12.3111 16.8514 13.1411 16.8514Z"></path><path id="路径 3" fill-rule="evenodd" style="fill:#7D7D7D" opacity="1" d="M13.1321 20.887L13.2721 20.887C14.1021 20.887 14.7721 20.217 14.7721 19.387L14.7721 19.247C14.7721 18.417 14.1021 17.747 13.2721 17.747L13.1321 17.747C12.3021 17.747 11.6321 18.417 11.6321 19.247L11.6321 19.387C11.6321 20.217 12.3021 20.887 13.1321 20.887Z"></path></g></g></g></g><defs><rect id="path_0" x="0" y="0" width="26" height="26" /></defs></svg>
