<svg xmlns="http://www.w3.org/2000/svg" xmlns:xlink="http://www.w3.org/1999/xlink" width="23" height="16" viewBox="0 0 23 16" fill="none"><g opacity="1"  transform="translate(1 1)  rotate(0)"><path id="Vector" fill-rule="evenodd" style="fill:#5F6368" opacity="1" d="M5.6583,6.95317h-0.65v-1.03h0.65zM9.9083,5.92317h0.65v1.03h-0.65zM14.8083,5.92317h0.65v1.03h-0.65z"></path><path  id="Vector" style="fill:#5F6368; opacity:1;" d="M5.6583,7.95317h-1.65v-3.03h2.65v3.03zM5.0083,5.95317v1h1v-1.03h-1v1h0.65v-1h-1v1.03h1v-1zM9.9083,6.95317h1v-1.03h-1v1h0.65v-1h-1v1.03h1v-1h-0.65zM8.9083,7.95317v-3.03h2.65v3.03h-1.65zM14.8083,6.95317h1v-1.03h-1v1h0.65v-1h-1v1.03h1v-1h-0.65zM13.8083,7.95317v-3.03h2.65v3.03h-1.65z"></path><path  id="矩形 1" style="fill:#5F6368; opacity:1;" d="M2,13h17c0.27387,0 0.509,-0.0982 0.7054,-0.2946c0.1964,-0.1964 0.2946,-0.43153 0.2946,-0.7054v-10c0,-0.27386 -0.0982,-0.50899 -0.2946,-0.70539c-0.1964,-0.19641 -0.43153,-0.29461 -0.7054,-0.29461h-17c-0.27386,0 -0.50899,0.0982 -0.70539,0.29461c-0.19641,0.1964 -0.29461,0.43153 -0.29461,0.70539v10c0,0.27387 0.0982,0.509 0.29461,0.7054c0.1964,0.1964 0.43153,0.2946 0.70539,0.2946zM2,15c-0.40581,0 -0.795,-0.07913 -1.16758,-0.2374c-0.35823,-0.1522 -0.67558,-0.36653 -0.95203,-0.643c-0.27645,-0.27647 -0.49077,-0.5938 -0.64297,-0.952c-0.15828,-0.3726 -0.23743,-0.7618 -0.23743,-1.1676v-10c0,-0.40581 0.07914,-0.795 0.23743,-1.16758c0.15219,-0.35823 0.36651,-0.67558 0.64297,-0.95203c0.27645,-0.27645 0.5938,-0.49077 0.95203,-0.64297c0.37258,-0.15828 0.76177,-0.23743 1.16758,-0.23743h17c0.4058,0 0.795,0.07914 1.1676,0.23743c0.3582,0.15219 0.67553,0.36651 0.952,0.64297c0.27647,0.27645 0.4908,0.5938 0.643,0.95203c0.15827,0.37258 0.2374,0.76177 0.2374,1.16758v10c0,0.4058 -0.07913,0.795 -0.2374,1.1676c-0.1522,0.3582 -0.36653,0.67553 -0.643,0.952c-0.27647,0.27647 -0.5938,0.4908 -0.952,0.643c-0.3726,0.15827 -0.7618,0.2374 -1.1676,0.2374z"></path></g></svg>
