<svg xmlns="http://www.w3.org/2000/svg" xmlns:xlink="http://www.w3.org/1999/xlink" width="28" height="24" viewBox="0 0 28 24" fill="none"><g opacity="1"  transform="translate(0 0)  rotate(0)"><mask id="bg-mask-0" fill="white"><use transform="translate(0 0)  rotate(0)" xlink:href="#path_0"></use></mask><g mask="url(#bg-mask-0)" ><g opacity="1"  transform="translate(0 0)  rotate(0)"><g opacity="1"  transform="translate(0 0)  rotate(0)"><path id="路径 1" fill-rule="evenodd" style="fill:#7D7D7D" opacity="1" d="M28.0262 12.9769C28.0362 12.7869 27.9462 12.6069 27.7962 12.4969L21.4062 7.98688C21.2362 7.85688 21.0062 7.84688 20.8262 7.93688C20.6362 8.03688 20.5162 8.23688 20.5162 8.44688L20.5162 9.59688C20.5162 9.90688 20.2562 10.1669 19.9462 10.1669L13.2162 10.1669C12.8962 10.1669 12.6462 10.4169 12.6462 10.7369L12.6462 15.2169C12.6462 15.5269 12.8962 15.7869 13.2162 15.7869L19.9062 15.7869C20.2262 15.7869 20.4762 16.0369 20.4762 16.3569L20.4762 17.4869C20.4762 17.6969 20.5962 17.8969 20.7862 17.9969C20.9762 18.0869 21.1962 18.0769 21.3762 17.9469L27.7562 13.4369C27.9162 13.3369 28.0162 13.1669 28.0262 12.9769Z"></path><path id="路径 2" fill-rule="evenodd" style="fill:#7D7D7D" opacity="1" d="M18.88 23.07C19.48 22.46 19.82 21.65 19.82 20.79L19.82 17.39L17.95 17.39L17.95 20.79C17.95 21.15 17.81 21.48 17.57 21.73C17.32 21.98 16.99 22.12 16.64 22.12L3.18 22.12C2.45 22.11 1.87 21.52 1.87 20.79L1.87 3.2C1.87 2.47 2.46 1.88 3.18 1.88L13.26 1.88L17.95 6.35L17.95 8.61L19.8 8.61L19.8 5.51L14 0L3.18 0C1.42 0 0 1.43 0 3.2L0 20.79C0 22.56 1.41 23.99 3.16 24L16.62 24C17.47 24 18.29 23.67 18.88 23.07Z"></path><path id="路径 3" fill-rule="evenodd" style="fill:#7D7D7D" opacity="1" d="M18.5548 5.31147L15.5648 5.31147C14.8348 5.31147 14.2548 4.71147 14.2548 3.99147L14.2548 1.27147L12.3848 1.27147L12.3848 3.99147C12.3848 5.76147 13.8148 7.19147 15.5748 7.19147L18.5648 7.19147L18.5548 5.31147Z"></path></g></g></g></g><defs><rect id="path_0" x="0" y="0" width="28" height="24" /></defs></svg>
