<svg xmlns="http://www.w3.org/2000/svg" xmlns:xlink="http://www.w3.org/1999/xlink" width="28" height="24" viewBox="0 0 28 24" fill="none"><g opacity="1"  transform="translate(0 0)  rotate(0)"><mask id="bg-mask-0" fill="white"><use transform="translate(0 0)  rotate(0)" xlink:href="#path_0"></use></mask><g mask="url(#bg-mask-0)" ><g opacity="1"  transform="translate(0 0)  rotate(0)"><g opacity="1"  transform="translate(0 0)  rotate(0)"><path id="路径 1" fill-rule="evenodd" style="fill:#E60012" opacity="1" d="M28.0263 12.9768C28.0363 12.7868 27.9463 12.6068 27.7963 12.4968L21.4063 7.98683C21.2363 7.85683 21.0063 7.84683 20.8263 7.93683C20.6363 8.03683 20.5163 8.23683 20.5163 8.44683L20.5163 9.59683C20.5163 9.90683 20.2563 10.1668 19.9463 10.1668L13.2163 10.1668C12.8963 10.1668 12.6463 10.4168 12.6463 10.7368L12.6463 15.2168C12.6463 15.5268 12.8963 15.7868 13.2163 15.7868L19.9063 15.7868C20.2263 15.7868 20.4763 16.0368 20.4763 16.3568L20.4763 17.4868C20.4763 17.6968 20.5963 17.8968 20.7863 17.9968C20.9763 18.0868 21.1963 18.0768 21.3763 17.9468L27.7563 13.4368C27.9163 13.3368 28.0163 13.1668 28.0263 12.9768Z"></path><path id="路径 2" fill-rule="evenodd" style="fill:#E60012" opacity="1" d="M18.88 23.07C19.48 22.46 19.82 21.65 19.82 20.79L19.82 17.39L17.95 17.39L17.95 20.79C17.95 21.15 17.81 21.48 17.57 21.73C17.32 21.98 16.99 22.12 16.64 22.12L3.18 22.12C2.45 22.11 1.87 21.52 1.87 20.79L1.87 3.2C1.87 2.47 2.46 1.88 3.18 1.88L13.26 1.88L17.95 6.35L17.95 8.61L19.8 8.61L19.8 5.51L14 0L3.18 0C1.42 0 0 1.43 0 3.2L0 20.79C0 22.56 1.41 23.99 3.16 24L16.62 24C17.47 24 18.29 23.67 18.88 23.07Z"></path><path id="路径 3" fill-rule="evenodd" style="fill:#E60012" opacity="1" d="M18.5546 5.31148L15.5646 5.31148C14.8346 5.31148 14.2546 4.71148 14.2546 3.99148L14.2546 1.27148L12.3846 1.27148L12.3846 3.99148C12.3846 5.76148 13.8146 7.19148 15.5746 7.19148L18.5646 7.19148L18.5546 5.31148Z"></path></g></g></g></g><defs><rect id="path_0" x="0" y="0" width="28" height="24" /></defs></svg>
