<svg xmlns="http://www.w3.org/2000/svg" viewBox="0 0 29.67 31.34"><defs><style>.cls-1{fill:#d71618;}</style></defs><g id="图层_2" data-name="图层 2"><g id="图层_1-2" data-name="图层 1"><path class="cls-1" d="M14.84,31.34a1.54,1.54,0,0,1-.6-.13,22.3,22.3,0,0,1-3.62-2.07C2.67,23.52.56,13.89,0,8.65A1.41,1.41,0,0,1,1,7.16,49.23,49.23,0,0,0,7.74,4.21,48.22,48.22,0,0,0,14,.28h0a1.41,1.41,0,0,1,1.68,0,49,49,0,0,0,6.26,3.93,49.23,49.23,0,0,0,6.79,3,1.42,1.42,0,0,1,.94,1.49C29.11,13.89,27,23.52,19.05,29.14a22,22,0,0,1-3.63,2.07A1.44,1.44,0,0,1,14.84,31.34Zm-.44-2.41h0Zm.86,0h0ZM2.59,9.23c.64,5,2.73,13.1,9.47,17.87a20.12,20.12,0,0,0,2.77,1.63,19.66,19.66,0,0,0,2.78-1.63c6.74-4.77,8.83-12.92,9.47-17.87a49.47,49.47,0,0,1-6.31-2.81,51.77,51.77,0,0,1-5.94-3.66A50.79,50.79,0,0,1,8.9,6.42,50.1,50.1,0,0,1,2.59,9.23Zm-.1-.85h0Zm13-6.09Z"/><path class="cls-1" d="M12.94,24.67a24.14,24.14,0,0,1-5.78-7.38,1.36,1.36,0,0,1,.63-1.87h0A1.34,1.34,0,0,1,9.53,16a21.56,21.56,0,0,0,5.19,6.65,1.32,1.32,0,0,1,.19,1.8h0A1.35,1.35,0,0,1,12.94,24.67Z"/></g></g></svg>