<svg xmlns="http://www.w3.org/2000/svg" xmlns:xlink="http://www.w3.org/1999/xlink" width="20" height="26" viewBox="0 0 20 26" fill="none"><g opacity="1"  transform="translate(0 0)  rotate(0)"><mask id="bg-mask-0" fill="white"><use transform="translate(0 0)  rotate(0)" xlink:href="#path_0"></use></mask><g mask="url(#bg-mask-0)" ><path id="路径 1" fill-rule="evenodd" style="fill:#E60012" opacity="1" d="M15.1783,25.7865h-10.35999c-2.68,0 -4.86,-2.18 -4.86,-4.89v-6c0,-2.7 2.18,-4.89 4.86,-4.89h10.35999c2.69,0 4.86,2.19 4.86,4.89v6c0,2.7 -2.17,4.89 -4.86,4.89zM2.03831,14.8965v6c0,1.55 1.25,2.8 2.78,2.8h10.35999c1.54,-0.01 2.78,-1.25 2.78,-2.8v-6c0,-1.54 -1.24,-2.79 -2.78,-2.79h-10.35999c-1.53,0 -2.77,1.25 -2.78,2.79z"></path><path id="路径 2" fill-rule="evenodd" style="fill:#E60012" opacity="1" d="M15.7881 7.18237C16.0281 4.94237 14.9781 2.77237 13.0881 1.57237C11.1981 0.382373 8.78814 0.382373 6.89814 1.57237C5.00814 2.77237 3.95814 4.94237 4.18814 7.18237L4.18814 10.1024L6.68814 10.1024L6.68814 7.18237C6.50814 5.88237 7.09814 4.59237 8.18814 3.88237C9.28814 3.17237 10.6981 3.17237 11.7881 3.88237C12.8881 4.59237 13.4781 5.88237 13.2881 7.18237L13.2881 10.0724L15.7881 10.0724L15.7881 7.18237Z"></path></g></g><defs><rect id="path_0" x="0" y="0" width="20" height="26" /></defs></svg>
