<svg xmlns="http://www.w3.org/2000/svg" xmlns:xlink="http://www.w3.org/1999/xlink" width="21.00360107421875" height="21" viewBox="0 0 21.00360107421875 21" fill="none"><g opacity="1"  transform="translate(0 0)  rotate(0)"><path id="路径 1" fill-rule="evenodd" style="fill:#FFFFFF" opacity="1" d="M17.0962,10.4729c0,1.58 0,3.16 0,4.74c-0.02,1.35 -0.64,2 -1.98,2.01c-3.08,0.01 -6.16004,0.01 -9.24004,0c-1.36,0 -2,-0.69 -2,-2.08c0,-3.11 0,-6.22 0,-9.34c0,-1.42 0.66,-2.08 2.07,-2.08c3.06,0 6.12004,0 9.17004,0c1.31,0 1.97,0.66 1.98,2c0.01,1.58 0,3.16 0,4.75zM6.35616,5.4429c-0.59,-0.01 -0.81,0.23 -0.81,0.83c0.02,2.82 0.02,5.64 0,8.46c0.01,0.56 0.25,0.79 0.78,0.79c2.78,0 5.55004,0 8.33004,0c0.54,0 0.78,-0.27 0.78,-0.81c0,-2.82 0,-5.64 0,-8.47c0,-0.59 -0.24,-0.82 -0.83,-0.81c-1.35,0.05 -2.7,0.02 -4.05,0.02v-0.01c-1.40004,0 -2.80004,0.02 -4.20004,0z"></path><path id="路径 2" fill-rule="evenodd" style="fill:#FFFFFF" opacity="1" d="M6.64294 14.4042L14.3229 14.4042L14.3229 6.54422L6.64294 6.54422L6.64294 14.4042Z"></path><path id="路径 3" fill-rule="evenodd" style="fill:#FFFFFF" opacity="1" d="M18.7036 14.7813L20.4836 14.7813C20.7736 14.7813 21.0036 14.5513 21.0036 14.2613L21.0036 14.2613C21.0036 13.9713 20.7736 13.7413 20.4836 13.7413L18.7036 13.7413C18.4136 13.7413 18.1836 13.9713 18.1836 14.2613L18.1836 14.2613C18.1836 14.5513 18.4136 14.7813 18.7036 14.7813Z"></path><path id="路径 4" fill-rule="evenodd" style="fill:#FFFFFF" opacity="1" d="M18.7036 12.9666L20.4836 12.9666C20.7736 12.9666 21.0036 12.7366 21.0036 12.4466L21.0036 12.4466C21.0036 12.1566 20.7736 11.9266 20.4836 11.9266L18.7036 11.9266C18.4136 11.9266 18.1836 12.1566 18.1836 12.4466L18.1836 12.4466C18.1836 12.7366 18.4136 12.9666 18.7036 12.9666Z"></path><path id="路径 5" fill-rule="evenodd" style="fill:#FFFFFF" opacity="1" d="M18.7036 11.1519L20.4836 11.1519C20.7736 11.1519 21.0036 10.9219 21.0036 10.6319L21.0036 10.6319C21.0036 10.3419 20.7736 10.1119 20.4836 10.1119L18.7036 10.1119C18.4136 10.1119 18.1836 10.3419 18.1836 10.6319L18.1836 10.6319C18.1836 10.9219 18.4136 11.1519 18.7036 11.1519Z"></path><path id="路径 6" fill-rule="evenodd" style="fill:#FFFFFF" opacity="1" d="M18.7036 9.33721L20.4836 9.33721C20.7736 9.33721 21.0036 9.10721 21.0036 8.81721L21.0036 8.81721C21.0036 8.52721 20.7736 8.29721 20.4836 8.29721L18.7036 8.29721C18.4136 8.29721 18.1836 8.52721 18.1836 8.81721L18.1836 8.81721C18.1836 9.10721 18.4136 9.33721 18.7036 9.33721Z"></path><path id="路径 7" fill-rule="evenodd" style="fill:#FFFFFF" opacity="1" d="M18.7036 7.52257L20.4836 7.52257C20.7736 7.52257 21.0036 7.29257 21.0036 7.00257L21.0036 7.00257C21.0036 6.71257 20.7736 6.48257 20.4836 6.48257L18.7036 6.48257C18.4136 6.48257 18.1836 6.71257 18.1836 7.00257L18.1836 7.00257C18.1836 7.29257 18.4136 7.52257 18.7036 7.52257Z"></path><path id="路径 8" fill-rule="evenodd" style="fill:#FFFFFF" opacity="1" d="M0.52 14.7813L2.3 14.7813C2.59 14.7813 2.82 14.5513 2.82 14.2613L2.82 14.2613C2.82 13.9713 2.59 13.7413 2.3 13.7413L0.52 13.7413C0.23 13.7413 0 13.9713 0 14.2613L0 14.2613C0 14.5513 0.23 14.7813 0.52 14.7813Z"></path><path id="路径 9" fill-rule="evenodd" style="fill:#FFFFFF" opacity="1" d="M0.52 12.9666L2.3 12.9666C2.59 12.9666 2.82 12.7366 2.82 12.4466L2.82 12.4466C2.82 12.1566 2.59 11.9266 2.3 11.9266L0.52 11.9266C0.23 11.9266 0 12.1566 0 12.4466L0 12.4466C0 12.7366 0.23 12.9666 0.52 12.9666Z"></path><path id="路径 10" fill-rule="evenodd" style="fill:#FFFFFF" opacity="1" d="M0.52 11.1519L2.3 11.1519C2.59 11.1519 2.82 10.9219 2.82 10.6319L2.82 10.6319C2.82 10.3419 2.59 10.1119 2.3 10.1119L0.52 10.1119C0.23 10.1119 0 10.3419 0 10.6319L0 10.6319C0 10.9219 0.23 11.1519 0.52 11.1519Z"></path><path id="路径 11" fill-rule="evenodd" style="fill:#FFFFFF" opacity="1" d="M0.52 9.33721L2.3 9.33721C2.59 9.33721 2.82 9.10721 2.82 8.81721L2.82 8.81721C2.82 8.52721 2.59 8.29721 2.3 8.29721L0.52 8.29721C0.23 8.29721 0 8.52721 0 8.81721L0 8.81721C0 9.10721 0.23 9.33721 0.52 9.33721Z"></path><path id="路径 12" fill-rule="evenodd" style="fill:#FFFFFF" opacity="1" d="M0.52 7.52257L2.3 7.52257C2.59 7.52257 2.82 7.29257 2.82 7.00257L2.82 7.00257C2.82 6.71257 2.59 6.48257 2.3 6.48257L0.52 6.48257C0.23 6.48257 0 6.71257 0 7.00257L0 7.00257C0 7.29257 0.23 7.52257 0.52 7.52257Z"></path><path id="路径 13" fill-rule="evenodd" style="fill:#FFFFFF" opacity="1" d="M14.5945 2.34321L14.5945 0.513211C14.5945 0.233211 14.3645 0.00321054 14.0845 0.00321054L14.0845 0.00321054C13.8045 0.00321054 13.5745 0.233211 13.5745 0.513211L13.5745 2.34321C13.5745 2.62321 13.8045 2.85321 14.0845 2.85321L14.0845 2.85321C14.3645 2.85321 14.5945 2.62321 14.5945 2.34321Z"></path><path id="路径 14" fill-rule="evenodd" style="fill:#FFFFFF" opacity="1" d="M12.8018 2.34321L12.8018 0.513211C12.8018 0.233211 12.5718 0.00321054 12.2918 0.00321054L12.2918 0.00321054C12.0118 0.00321054 11.7818 0.233211 11.7818 0.513211L11.7818 2.34321C11.7818 2.62321 12.0118 2.85321 12.2918 2.85321L12.2918 2.85321C12.5718 2.85321 12.8018 2.62321 12.8018 2.34321Z"></path><path id="路径 15" fill-rule="evenodd" style="fill:#FFFFFF" opacity="1" d="M11.0093 2.34098L11.0093 0.510983C11.0093 0.230983 10.7793 0.000982761 10.4993 0.000982761L10.4993 0.000982761C10.2193 0.000982761 9.98926 0.230983 9.98926 0.510983L9.98926 2.34098C9.98926 2.62098 10.2193 2.85098 10.4993 2.85098L10.4993 2.85098C10.7793 2.85098 11.0093 2.62098 11.0093 2.34098Z"></path><path id="路径 16" fill-rule="evenodd" style="fill:#FFFFFF" opacity="1" d="M9.21659 2.34098L9.21659 0.510983C9.21659 0.230983 8.98659 0.000982761 8.70659 0.000982761L8.70659 0.000982761C8.42659 0.000982761 8.19659 0.230983 8.19659 0.510983L8.19659 2.34098C8.19659 2.62098 8.42659 2.85098 8.70659 2.85098L8.70659 2.85098C8.98659 2.85098 9.21659 2.62098 9.21659 2.34098Z"></path><path id="路径 17" fill-rule="evenodd" style="fill:#FFFFFF" opacity="1" d="M7.4239 2.34098L7.4239 0.510983C7.4239 0.230983 7.1939 0.000982761 6.9139 0.000982761L6.9139 0.000982761C6.6339 0.000982761 6.4039 0.230983 6.4039 0.510983L6.4039 2.34098C6.4039 2.62098 6.6339 2.85098 6.9139 2.85098L6.9139 2.85098C7.1939 2.85098 7.4239 2.62098 7.4239 2.34098Z"></path><path id="路径 18" fill-rule="evenodd" style="fill:#FFFFFF" opacity="1" d="M14.5945 20.49L14.5945 18.66C14.5945 18.38 14.3645 18.15 14.0845 18.15L14.0845 18.15C13.8045 18.15 13.5745 18.38 13.5745 18.66L13.5745 20.49C13.5745 20.77 13.8045 21 14.0845 21L14.0845 21C14.3645 21 14.5945 20.77 14.5945 20.49Z"></path><path id="路径 19" fill-rule="evenodd" style="fill:#FFFFFF" opacity="1" d="M12.8018 20.49L12.8018 18.66C12.8018 18.38 12.5718 18.15 12.2918 18.15L12.2918 18.15C12.0118 18.15 11.7818 18.38 11.7818 18.66L11.7818 20.49C11.7818 20.77 12.0118 21 12.2918 21L12.2918 21C12.5718 21 12.8018 20.77 12.8018 20.49Z"></path><path id="路径 20" fill-rule="evenodd" style="fill:#FFFFFF" opacity="1" d="M11.007 20.49L11.007 18.66C11.007 18.38 10.777 18.15 10.497 18.15L10.497 18.15C10.217 18.15 9.987 18.38 9.987 18.66L9.987 20.49C9.987 20.77 10.217 21 10.497 21L10.497 21C10.777 21 11.007 20.77 11.007 20.49Z"></path><path id="路径 21" fill-rule="evenodd" style="fill:#FFFFFF" opacity="1" d="M9.21434 20.49L9.21434 18.66C9.21434 18.38 8.98434 18.15 8.70434 18.15L8.70434 18.15C8.42434 18.15 8.19434 18.38 8.19434 18.66L8.19434 20.49C8.19434 20.77 8.42434 21 8.70434 21L8.70434 21C8.98434 21 9.21434 20.77 9.21434 20.49Z"></path><path id="路径 22" fill-rule="evenodd" style="fill:#FFFFFF" opacity="1" d="M7.42167 20.49L7.42167 18.66C7.42167 18.38 7.19167 18.15 6.91167 18.15L6.91167 18.15C6.63167 18.15 6.40167 18.38 6.40167 18.66L6.40167 20.49C6.40167 20.77 6.63167 21 6.91167 21L6.91167 21C7.19167 21 7.42167 20.77 7.42167 20.49Z"></path></g></svg>