<svg xmlns="http://www.w3.org/2000/svg" xmlns:xlink="http://www.w3.org/1999/xlink" width="15" height="11" viewBox="0 0 15 11" fill="none"><g opacity="1"  transform="translate(0 0)  rotate(0)"><mask id="bg-mask-0" fill="white"><use transform="translate(0 0)  rotate(0)" xlink:href="#path_0"></use></mask><g mask="url(#bg-mask-0)" ><g opacity="1"  transform="translate(0 0)  rotate(0)"><g opacity="1"  transform="translate(1.62890625 1.719482421875)  rotate(0)"><path id="路径 1" fill-rule="evenodd" style="fill:#FFFFFF" opacity="1" d="M1.07309 2.50734L2.63922 1.01978C2.83498 0.83383 2.82773 0.523921 2.63197 0.337976L2.63197 0.337976C2.4362 0.15203 2.11717 0.15203 1.92141 0.337976L0.355279 1.82554C0.159513 2.01148 0.159513 2.31451 0.355279 2.50045L0.355279 2.50045C0.551045 2.6864 0.877322 2.69328 1.07309 2.50734Z"></path><path id="路径 2" fill-rule="evenodd" style="fill:#FFFFFF" opacity="1" d="M1.45199 5.51124L5.7951 1.38601C5.99812 1.19318 5.99812 0.89016 5.7951 0.697328L5.7951 0.697328C5.59934 0.511383 5.27306 0.518269 5.07729 0.704215L0.734185 4.82944C0.538419 5.01539 0.538419 5.31841 0.734185 5.50436L0.734185 5.50436C0.929951 5.6903 1.25623 5.69719 1.45199 5.51124Z"></path></g><g opacity="1"  transform="translate(0 0)  rotate(0)"><path id="路径 3" fill-rule="evenodd" style="fill:#FFFFFF" opacity="1" d="M13.67,11.01h-12.34c-0.36,-0.01 -0.69,-0.14 -0.94,-0.38c-0.25,-0.23 -0.39,-0.56 -0.39,-0.89v-8.48c0,-0.7 0.59,-1.26 1.33,-1.26h12.34c0.74,0 1.33,0.56 1.33,1.26v8.48c0,0.33 -0.14,0.66 -0.39,0.89c-0.25,0.24 -0.58,0.37 -0.94,0.38zM1,1.26v8.48c0,0.17 0.14,0.31 0.33,0.31h12.34c0.19,0 0.33,-0.14 0.33,-0.31v-8.48c0,-0.17 -0.14,-0.31 -0.33,-0.31h-12.34c-0.19,0 -0.33,0.14 -0.33,0.31z"></path></g></g></g></g><defs><rect id="path_0" x="0" y="0" width="15" height="11" /></defs></svg>