<svg xmlns="http://www.w3.org/2000/svg" xmlns:xlink="http://www.w3.org/1999/xlink" width="17" height="12.75" viewBox="0 0 17 12.75" fill="none"><g opacity="1"  transform="translate(17 0)  rotate(0)"><mask id="bg-mask-0" fill="white"><use transform="translate(0 0)  rotate(90)" xlink:href="#path_0"></use></mask><g mask="url(#bg-mask-0)" ><g opacity="1"  transform="translate(0 0)  rotate(0)"><g opacity="1"  transform="translate(0 0)  rotate(0)"><path id="路径 1" fill-rule="evenodd" style="fill:#FFFFFF" opacity="1" d="M-17,11.34v-9.93c0,-0.78 0.64,-1.41 1.44,-1.41h14.12c0.8,0 1.44,0.63 1.44,1.41v9.93c0,0.78 -0.64,1.41 -1.44,1.41h-14.12c-0.8,0 -1.44,-0.63 -1.44,-1.41zM-1.44,0.92h-14.12c-0.27,0 -0.5,0.22 -0.5,0.49v9.93c0,0.27 0.23,0.49 0.5,0.49h14.12c0.27,0 0.5,-0.22 0.5,-0.49v-9.93c0,-0.27 -0.23,-0.49 -0.5,-0.49z"></path><path id="路径 2" fill-rule="evenodd" style="fill:#FFFFFF" opacity="1" d="M-12.5579,8.69457v-4.64c0,-0.86 0.71,-1.56 1.59,-1.56h4.74997c0.88,0 1.59,0.7 1.59,1.56v4.64c0,0.86 -0.71,1.56003 -1.59,1.56003h-4.74997c-0.88,0 -1.59,-0.70003 -1.59,-1.56003zM-6.21793,3.23457h-4.74997c-0.46,0 -0.84,0.37 -0.84,0.82v4.64c0,0.45 0.38,0.82 0.84,0.82h4.74997c0.46,0 0.83,-0.37 0.83,-0.82v-4.64c0,-0.45 -0.37,-0.82 -0.83,-0.82z"></path><path id="路径 3" fill-rule="evenodd" style="fill:#FFFFFF" opacity="1" d="M-8.12207 10.1628ZM-9.06607 8.68478L-9.06607 10.1628L-8.12207 10.1628L-8.12207 8.68478L-9.06607 8.68478Z"></path><path id="路径 4" fill-rule="evenodd" style="fill:#FFFFFF" opacity="1" d="M-8.12207 4.6193ZM-9.06607 3.1413L-9.06607 4.6193L-8.12207 4.6193L-8.12207 3.1413L-9.06607 3.1413Z"></path><path id="路径 5" fill-rule="evenodd" style="fill:#FFFFFF" opacity="1" d="M-10.9534 6.37522L-10.9534 6.37522C-10.9534 7.65522 -9.9234 8.68522 -8.6434 8.68522L-8.5434 8.68522C-7.2634 8.68522 -6.2334 7.65522 -6.2334 6.37522L-6.2334 6.37522C-6.2334 5.09522 -7.2634 4.06522 -8.5434 4.06522L-8.6434 4.06522C-9.9234 4.06522 -10.9534 5.09522 -10.9534 6.37522Z"></path><path id="路径 6" fill-rule="evenodd" style="fill:#FFFFFF" opacity="1" d="M-14.8265 1.29349C-15.1965 1.29349 -15.4865 1.58349 -15.4865 1.94349C-15.4865 2.29349 -15.1965 2.58349 -14.8265 2.58349C-14.4665 2.58349 -14.1665 2.29349 -14.1665 1.94349C-14.1665 1.58349 -14.4665 1.29349 -14.8265 1.29349Z"></path><path id="路径 7" fill-rule="evenodd" style="fill:#FFFFFF" opacity="1" d="M-14.8265 10.1631C-15.1965 10.1631 -15.4865 10.4531 -15.4865 10.8131C-15.4865 11.1631 -15.1965 11.4531 -14.8265 11.4531C-14.4665 11.4531 -14.1665 11.1631 -14.1665 10.8131C-14.1665 10.4531 -14.4665 10.1631 -14.8265 10.1631Z"></path><path id="路径 8" fill-rule="evenodd" style="fill:#FFFFFF" opacity="1" d="M-2.3602 10.1631C-2.7302 10.1631 -3.0202 10.4531 -3.0202 10.8131C-3.0202 11.1631 -2.7302 11.4531 -2.3602 11.4531C-2.0002 11.4531 -1.7002 11.1631 -1.7002 10.8131C-1.7002 10.4531 -2.0002 10.1631 -2.3602 10.1631Z"></path><path id="路径 9" fill-rule="evenodd" style="fill:#FFFFFF" opacity="1" d="M-2.3602 1.29349C-2.7302 1.29349 -3.0202 1.58349 -3.0202 1.94349C-3.0202 2.29349 -2.7302 2.58349 -2.3602 2.58349C-2.0002 2.58349 -1.7002 2.29349 -1.7002 1.94349C-1.7002 1.58349 -2.0002 1.29349 -2.3602 1.29349Z"></path></g></g></g></g><defs><rect id="path_0" x="0" y="0" width="12.75" height="17" /></defs></svg>