<svg xmlns="http://www.w3.org/2000/svg" xmlns:xlink="http://www.w3.org/1999/xlink" width="14" height="16" viewBox="0 0 14 16" fill="none"><g opacity="1"  transform="translate(0 0)  rotate(0)"><mask id="bg-mask-0" fill="white"><use transform="translate(0 0)  rotate(0)" xlink:href="#path_0"></use></mask><g mask="url(#bg-mask-0)" ><g opacity="1"  transform="translate(0 0)  rotate(0)"><g opacity="1"  transform="translate(0 0)  rotate(0)"><path id="路径 1" fill-rule="evenodd" style="fill:#FFFFFF" opacity="1" d="M3.65674 9.36252C3.65674 11.5925 3.67674 13.7425 3.67674 15.9725C3.79674 15.9825 6.32674 16.0025 7.49674 15.9925C8.44674 15.9825 9.06674 15.3425 9.06674 14.3825C9.06674 13.2525 9.06674 12.1125 9.06674 10.9725C9.06674 9.90252 8.40674 9.36252 7.35674 9.36252L3.65674 9.36252Z"></path><path id="路径 2" fill-rule="evenodd" style="fill:#FFFFFF" opacity="1" d="M11.08 13.3066C11.96 13.2366 12.76 12.7766 13.31 12.0466C13.93 11.1966 14.06 10.2066 13.98 9.15658C13.93 8.32658 13.57 7.55658 12.99 7.01658C12.54 6.60658 11.92 6.37658 11.35 6.15658C11.03 6.02658 10.64 6.05658 10.28 6.05658C7.8 6.04658 5.32 6.03658 2.85 6.05658C1.7 6.06658 1.05 5.22658 1.1 4.24658C1.14 3.40658 1.77 2.42658 2.84 2.45658C4.3 2.50658 5.76 2.47658 7.23 2.47658L7.73 2.47658L7.73 1.33658C7.57 1.32658 7.44 1.31658 7.31 1.31658C5.85 1.31658 4.38 1.29658 2.92 1.31658C1.19 1.33658 0.56 2.13658 0.13 3.49658C-0.3 4.84658 0.37 6.75658 1.99 7.08658C2.32 7.14658 2.65 7.17658 2.99 7.18658C5.54 7.19658 8.09 7.19658 10.64 7.18658C11.59 7.17658 12.36 7.66658 12.7 8.51658C13.42 10.3166 12.51 12.2166 10.56 12.1966C10.24 12.1966 9.91 12.1966 9.59 12.1966L9.59 13.3066C10.1 13.3066 10.59 13.3566 11.08 13.3066Z"></path><path id="路径 3" fill-rule="evenodd" style="fill:#FFFFFF" opacity="1" d="M1.03129 13.9563L1.03129 11.4463L3.04129 11.4463L3.04129 10.4563L0.0712891 10.4563L0.0712891 14.9663L3.04129 14.9663L3.04129 13.9563L1.03129 13.9563Z"></path><path id="路径 4" fill-rule="evenodd" style="fill:#FFFFFF" opacity="1" d="M8.66959 0C8.25959 0 8.07959 0.24 8.07959 0.68C8.08959 1.49 8.08959 2.3 8.07959 3.09C8.06959 3.54 8.25959 3.77 8.66959 3.77C9.38959 3.79 10.1196 3.79 10.8396 3.77C10.9396 3.77 11.1096 3.62 11.1096 3.54C11.1296 2.38 11.1296 1.22 11.1296 0C10.2596 0 9.46959 0 8.66959 0Z"></path><path id="路径 5" fill-rule="evenodd" style="fill:#FFFFFF" opacity="1" d="M11.7095 3.23476L12.8995 3.23476L12.8995 0.564758L11.7095 0.564758L11.7095 3.23476Z"></path></g></g></g></g><defs><rect id="path_0" x="0" y="0" width="14" height="16" /></defs></svg>