<svg xmlns="http://www.w3.org/2000/svg" xmlns:xlink="http://www.w3.org/1999/xlink" width="22.533203125" height="22.519699096679688" viewBox="0 0 22.533203125 22.519699096679688" fill="none"><g opacity="1"  transform="translate(0 0)  rotate(0)"><mask id="bg-mask-0" fill="white"><use transform="translate(0 0)  rotate(0)" xlink:href="#path_0"></use></mask><g mask="url(#bg-mask-0)" ><g opacity="1"  transform="translate(-0.04638671875 0.519561767578125)  rotate(0)"><g opacity="1"  transform="translate(0 0)  rotate(0)"><path id="路径 1" fill-rule="evenodd" style="fill:#2F3133" opacity="1" d="M6.45231,8.57566zM21.7224,2.33567zM6.45231,10.2157c-0.22,-0.21 -0.34001,-0.51004 -0.34001,-0.82004c0,-0.31 0.12001,-0.6 0.34001,-0.82c0.22,-0.21999 0.52,-0.35 0.83,-0.35c0.31,0 0.6,0.13001 0.82001,0.35l2.85998,2.86004l9.1101,-9.10003c0.46,-0.45 1.19,-0.45 1.65,0c0.45,0.45 0.45,1.19 0,1.64l-10.7601,10.75003z"></path><path id="路径 2" fill-rule="evenodd" style="fill:#2F3133" opacity="1" d="M16.9001,2.44243zM15.7001,21.1624c-4.83,2.04 -10.43007,0.49 -13.52009,-3.73c-3.10001,-4.23 -2.87001,-10.02998 0.54001,-14.00997c3.41002,-3.98 9.11008,-5.09 13.77008,-2.69c0.29,0.16 0.51,0.44 0.59,0.76c0.08,0.33 0.01,0.67 -0.18,0.95c-0.32,0.48 -0.96,0.64 -1.47,0.37c-2.68,-1.36 -5.85005,-1.34 -8.50006,0.06c-1.71001,0.88 -3.05002,2.33 -3.79002,4.10999c-1.53001,3.31998 -0.88001,7.24998 1.64001,9.89998c2.52001,2.66 6.41007,3.51 9.81007,2.16c3.4,-1.35 5.64,-4.64 5.65,-8.3c0,-0.43 -0.03,-0.85998 -0.09,-1.28998c-0.08,-0.54 0.26,-1.06 0.79,-1.19h0.13c0.31,-0.09 0.64,-0.03 0.9,0.14c0.27,0.17 0.45,0.45 0.5,0.76c0.49,3.53998 -0.67,7.09998 -3.15,9.65998c-1.02,1.04 -2.26,1.84 -3.62,2.34z"></path></g></g></g></g><defs><rect id="path_0" x="0" y="0" width="22.533203125" height="22.519699096679688" /></defs></svg>
