<svg xmlns="http://www.w3.org/2000/svg" xmlns:xlink="http://www.w3.org/1999/xlink" width="26" height="26" viewBox="0 0 26 26" fill="none"><g opacity="1"  transform="translate(0 0)  rotate(0)"><mask id="bg-mask-0" fill="white"><use transform="translate(0 0)  rotate(0)" xlink:href="#path_0"></use></mask><g mask="url(#bg-mask-0)" ><g opacity="1"  transform="translate(0 0)  rotate(0)"><g opacity="1"  transform="translate(0 0)  rotate(0)"><path id="路径 1" fill-rule="evenodd" style="fill:#4D4D4D" opacity="1" d="M12.9976,21.4776c-4.68002,0 -8.48002,-3.8 -8.48002,-8.48c0,-4.68002 3.8,-8.48002 8.48002,-8.48002c4.68,0 8.48,3.8 8.48,8.48002c0,4.68 -3.8,8.48 -8.48,8.48zM7.28758,12.9976c0,3.16 2.56,5.72 5.71002,5.72c3.16,0 5.72,-2.56 5.72,-5.72c-0.01,-3.15002 -2.56,-5.71002 -5.72,-5.71002c-3.15002,0 -5.71002,2.56 -5.71002,5.71002z"></path><path id="路径 2" fill-rule="evenodd" style="fill:#4D4D4D" opacity="1" d="M13,26c-7.17,0 -13,-5.83 -13,-13c0,-7.17 5.83,-13 13,-13c7.17,0 13,5.83 13,13c-0.01,7.18 -5.82,12.99 -13,13zM1.84,13c0,6.16 5,11.16 11.16,11.16c6.16,0 11.16,-5 11.16,-11.16c-0.01,-6.16 -5,-11.15 -11.16,-11.16c-6.16,0 -11.16,5 -11.16,11.16z"></path></g></g></g></g><defs><rect id="path_0" x="0" y="0" width="26" height="26" /></defs></svg>