<svg xmlns="http://www.w3.org/2000/svg" viewBox="0 0 29.71 29.12"><defs><style>.cls-1{fill:#5e6267;}</style></defs><g id="图层_2" data-name="图层 2"><g id="图层_1-2" data-name="图层 1"><path class="cls-1" d="M14.85,17.39a1.46,1.46,0,0,1-.7-.18h0L.79,10A1.48,1.48,0,0,1,0,8.72,1.5,1.5,0,0,1,.78,7.4L14.14.18a1.51,1.51,0,0,1,1.43,0L28.93,7.4a1.49,1.49,0,0,1,0,2.63L15.56,17.21A1.47,1.47,0,0,1,14.85,17.39Z"/><path class="cls-1" d="M14.38,23,.86,15.73a1,1,0,0,1-.41-1.35h0A1,1,0,0,1,1.81,14l12.57,6.76a1,1,0,0,0,.95,0L27.9,14a1,1,0,0,1,1.36.41h0a1,1,0,0,1-.41,1.35L15.33,23A1,1,0,0,1,14.38,23Z"/><path class="cls-1" d="M14.38,29,.86,21.73a1,1,0,0,1-.41-1.35h0A1,1,0,0,1,1.81,20l12.57,6.76a1,1,0,0,0,.95,0L27.9,20a1,1,0,0,1,1.36.41h0a1,1,0,0,1-.41,1.35L15.33,29A1,1,0,0,1,14.38,29Z"/></g></g></svg>