<svg xmlns="http://www.w3.org/2000/svg" viewBox="0 0 28.32 32.25"><defs><style>.cls-1{fill:#fff;}</style></defs><g id="图层_2" data-name="图层 2"><g id="图层_1-2" data-name="图层 1"><path class="cls-1" d="M9.86,32.25A9.86,9.86,0,0,1,4.8,30.84h0A9.88,9.88,0,0,1,1.4,17.3L11,1.28A2.64,2.64,0,0,1,14.6.37L27,7.82a2.6,2.6,0,0,1,1.2,1.62,2.58,2.58,0,0,1-.3,2l-9.58,16A9.89,9.89,0,0,1,9.86,32.25ZM6.09,28.7a7.39,7.39,0,0,0,10.13-2.55l9.58-16a.16.16,0,0,0-.05-.19L13.32,2.52a.15.15,0,0,0-.19,0l-9.58,16A7.39,7.39,0,0,0,6.09,28.7Z"/><path class="cls-1" d="M24.1,14.28,10.29,6a.65.65,0,0,0-.87.31L2.64,17.66a.65.65,0,0,0,.14.91l13.8,8.27a.67.67,0,0,0,.87-.32L24.23,15.2A.68.68,0,0,0,24.1,14.28Z"/></g></g></svg>