<svg xmlns="http://www.w3.org/2000/svg" xmlns:xlink="http://www.w3.org/1999/xlink" width="18.9990234375" height="21.00079345703125" viewBox="0 0 18.9990234375 21.00079345703125" fill="none"><g opacity="1"  transform="translate(1.001953125 1.0018310546875)  rotate(0)"><g opacity="1"  transform="translate(-0.00048828125 0)  rotate(0)"><path  id="路径 1" style="fill:#2F3133; opacity:1;" d="M6.83786,17.8572M6.83786,17.8572c1.25016,-0.29767 2.20689,-0.9849 2.87019,-2.0617l6.31055,-10.22085c-0.0243,0.04029 -0.0254,0.07456 -0.0168,0.10778c0.00993,0.03661 0.0271,0.06188 0.0515,0.07581l-8.16886,-4.76097l-0.01132,-0.00701l0.01132,0.00701l-0.01132,-0.00701c0.01681,0.0104 0.03005,0.01445 0.03973,0.01212c0.02149,-0.00516 0.03734,-0.01638 0.04755,-0.03366l-6.30987,10.22637c-0.62427,1.0134 -0.81364,2.2402 -0.51333,3.3928c0.30647,1.1761 1.08415,2.1567 2.13492,2.7676c1.07437,0.6198 2.35043,0.8013 3.55796,0.5036zM7.30889,19.8009c-1.70884,0.4214 -3.5146,0.1648 -5.04201,-0.7164c-1.51165,-0.8789 -2.62416,-2.3003 -3.06505,-3.9924c-0.43784,-1.6803 -0.16446,-3.4681 0.74666,-4.9472l6.29008,-10.19363c0.27719,-0.46909 0.6797,-0.76697 1.20755,-0.89366c0.53074,-0.12738 1.02398,-0.05 1.47972,0.23212l-0.52635,0.85027l0.52635,-0.85026l-0.52635,0.85027l0.50354,-0.86397l8.14258,4.74573c0.45513,0.26008 0.7523,0.64535 0.8915,1.15581c0.127,0.48689 0.0487,1.00544 -0.2168,1.44778l-6.3094,10.21915c-0.95279,1.54673 -2.32272,2.53283 -4.1098,2.9583z"></path><path id="路径 2" fill-rule="evenodd" style="fill:#2F3133" opacity="1" d="M5.96285 3.04742C5.74285 2.94742 5.49285 3.03742 5.38284 3.24742L0.922775 10.4874C0.862774 10.5774 0.832773 10.6874 0.842773 10.7974C0.862774 10.9074 0.922775 11.0074 1.02278 11.0674L10.1029 16.3474C10.3129 16.4374 10.5629 16.3474 10.6729 16.1474L15.133 8.91741C15.273 8.72741 15.233 8.46741 15.043 8.32741L5.96285 3.04742Z"></path></g></g></svg>
