<svg xmlns="http://www.w3.org/2000/svg" xmlns:xlink="http://www.w3.org/1999/xlink" width="28" height="26" viewBox="0 0 28 26" fill="none"><g opacity="1"  transform="translate(0 0)  rotate(0)"><mask id="bg-mask-0" fill="white"><use transform="translate(0 0)  rotate(0)" xlink:href="#path_0"></use></mask><g mask="url(#bg-mask-0)" ><g opacity="1"  transform="translate(0 -2)  rotate(0)"><g opacity="1"  transform="translate(0 0)  rotate(0)"><path id="路径 1" fill-rule="evenodd" style="fill:#2F3133" opacity="1" d="M22.5925 27.9956L24.7425 27.9956L24.7425 15.5056L22.5925 15.5056L22.5925 27.9956Z"></path><path id="路径 2" fill-rule="evenodd" style="fill:#2F3133" opacity="1" d="M26.2211,3.7688zM26.2211,8.0888v-4.32h1.78v10.61h-8.89v-10.61h1.85v4.32z"></path><path id="路径 3" fill-rule="evenodd" style="fill:#2F3133" opacity="1" d="M21.5645 7.31L25.6345 7.31L25.6345 2L21.5645 2L21.5645 7.31Z"></path><path id="路径 4" fill-rule="evenodd" style="fill:#2F3133" opacity="1" d="M23.48 23.5653L22.59 22.3853C22.5 22.4553 22.4 22.4853 22.29 22.4853L2.01 22.4853C1.72 22.4853 1.48 22.2553 1.48 21.9653L1.48 7.6853C1.48 7.3953 1.72 7.1553 2.01 7.1553L19.74 7.1553L19.74 5.6853L2.01 5.6853C0.9 5.6853 0 6.5753 0 7.6853L0 21.9653C0 23.0653 0.9 23.9653 2.01 23.9653L22.29 23.9653C22.72 23.9653 23.13 23.8253 23.48 23.5653Z"></path><path id="路径 5" fill-rule="evenodd" style="fill:#2F3133" opacity="1" d="M22.2246 23.8817L22.2246 23.5217L20.7446 23.5217L20.7446 23.8817C20.7646 24.2717 20.4646 24.6117 20.0746 24.6317L4.50458 24.6317C4.37458 24.6117 4.28458 24.5017 4.29458 24.3717L4.29458 23.5217L2.81458 23.5217L2.81458 24.3717C2.80458 25.3117 3.55458 26.0917 4.50458 26.1117L20.0746 26.1117C21.2846 26.0817 22.2446 25.0917 22.2246 23.8817Z"></path><path id="路径 6" fill-rule="evenodd" style="fill:#2F3133" opacity="1" d="M4.54035 12.0219L6.36924 10.2021C6.60317 9.96933 6.60317 9.60256 6.36924 9.3698L6.36924 9.3698C6.13531 9.13704 5.7667 9.13704 5.53277 9.3698L3.70388 11.1896C3.46995 11.4223 3.46995 11.7891 3.70388 12.0219L3.70388 12.0219C3.93781 12.2546 4.30642 12.2546 4.54035 12.0219Z"></path><path id="路径 7" fill-rule="evenodd" style="fill:#2F3133" opacity="1" d="M4.98432 15.7074L10.074 10.6431C10.308 10.4103 10.308 10.0436 10.074 9.8108L10.074 9.8108C9.8401 9.57804 9.47148 9.57804 9.23756 9.8108L4.14785 14.8751C3.91392 15.1079 3.91392 15.4746 4.14785 15.7074L4.14785 15.7074C4.38178 15.9402 4.75039 15.9402 4.98432 15.7074Z"></path></g></g></g></g><defs><rect id="path_0" x="0" y="0" width="28" height="26" /></defs></svg>
