<svg xmlns="http://www.w3.org/2000/svg" xmlns:xlink="http://www.w3.org/1999/xlink" width="26" height="26" viewBox="0 0 26 26" fill="none"><g opacity="1"  transform="translate(0 0)  rotate(0)"><mask id="bg-mask-0" fill="white"><use transform="translate(0 0)  rotate(0)" xlink:href="#path_0"></use></mask><g mask="url(#bg-mask-0)" ><g opacity="1"  transform="translate(0 0)  rotate(0)"><g opacity="1"  transform="translate(0 0)  rotate(0)"><path id="路径 1" fill-rule="evenodd" style="fill:#4D4D4D" opacity="1" d="M13,26c-7.17,0 -13,-5.83 -13,-13c0,-7.17 5.83,-13 13,-13c7.17,0 13,5.83 13,13c-0.01,7.18 -5.82,12.99 -13,13zM2.26,13c0,5.92 4.82,10.74 10.74,10.74c5.92,0 10.74,-4.82 10.74,-10.74c-0.01,-5.92 -4.82,-10.73 -10.74,-10.74c-5.92,0 -10.74,4.82 -10.74,10.74z"></path><path id="路径 2" fill-rule="evenodd" style="fill:#4D4D4D" opacity="1" d="M13.1411 16.8515L13.2811 16.8515C14.1111 16.8515 14.7811 16.1815 14.7811 15.3515L14.7811 7.07153C14.7811 6.24153 14.1111 5.57153 13.2811 5.57153L13.1411 5.57153C12.3111 5.57153 11.6411 6.24153 11.6411 7.07153L11.6411 15.3515C11.6411 16.1815 12.3111 16.8515 13.1411 16.8515Z"></path><path id="路径 3" fill-rule="evenodd" style="fill:#4D4D4D" opacity="1" d="M13.1323 20.8871L13.2723 20.8871C14.1023 20.8871 14.7723 20.2171 14.7723 19.3871L14.7723 19.2471C14.7723 18.4171 14.1023 17.7471 13.2723 17.7471L13.1323 17.7471C12.3023 17.7471 11.6323 18.4171 11.6323 19.2471L11.6323 19.3871C11.6323 20.2171 12.3023 20.8871 13.1323 20.8871Z"></path></g></g></g></g><defs><rect id="path_0" x="0" y="0" width="26" height="26" /></defs></svg>