<svg xmlns="http://www.w3.org/2000/svg" xmlns:xlink="http://www.w3.org/1999/xlink" width="21" height="25" viewBox="0 0 21 25" fill="none"><g opacity="1"  transform="translate(0 0)  rotate(0)"><mask id="bg-mask-0" fill="white"><use transform="translate(0 0)  rotate(0)" xlink:href="#path_0"></use></mask><g mask="url(#bg-mask-0)" ><g opacity="1"  transform="translate(0 0)  rotate(0)"><g opacity="1"  transform="translate(0 0)  rotate(0)"><path id="路径 1" fill-rule="evenodd" style="fill:#4D4D4D" opacity="1" d="M17.63,25h-14.28c-1.85,-0.01 -3.35,-1.5 -3.35,-3.34v-18.33c0,-1.84 1.51,-3.33 3.37,-3.33h11.48l6.15,5.74v15.92c0,0.89 -0.35,1.74 -0.98,2.36c-0.64,0.63 -1.5,0.98 -2.39,0.98zM1.98,3.33v18.33c0,0.76 0.62,1.38 1.39,1.38h14.28c0.36,0 0.72,-0.14 0.98,-0.4c0.26,-0.26 0.41,-0.61 0.4,-0.98v-15.08l-4.97,-4.62h-10.69c-0.76,0 -1.38,0.62 -1.39,1.37z"></path><path id="路径 2" fill-rule="evenodd" style="fill:#4D4D4D" opacity="1" d="M19.6728 5.53446L16.5028 5.53446C15.7328 5.52446 15.1128 4.91446 15.1128 4.15446L15.1128 1.32446L13.1328 1.32446L13.1328 4.15446C13.1328 5.99446 14.6428 7.49446 16.5128 7.49446L19.6828 7.49446L19.6728 5.53446Z"></path><path id="路径 3" fill-rule="evenodd" style="fill:#4D4D4D" opacity="1" d="M4.66309,16.5514zM15.8631,16.5514zM6.03309,17.6914c-0.69,0.05 -1.3,-0.45 -1.37,-1.14c0.07,-0.68 0.68,-1.19 1.37,-1.14h8.46001c0.69,-0.05 1.3,0.46 1.37,1.14c-0.07,0.68 -0.68,1.19 -1.37,1.14z"></path><path id="路径 4" fill-rule="evenodd" style="fill:#4D4D4D" opacity="1" d="M4.66064,9.62755zM11.6406,9.62755zM5.65064,10.7575c-0.59,-0.05 -1.03,-0.55 -0.99,-1.12995c-0.04,-0.58 0.4,-1.09 0.99,-1.14h5.00996c0.58,0.05 1.02,0.56 0.98,1.14c0.04,0.57995 -0.4,1.07995 -0.98,1.12995z"></path></g></g></g></g><defs><rect id="path_0" x="0" y="0" width="21" height="25" /></defs></svg>