<svg xmlns="http://www.w3.org/2000/svg" xmlns:xlink="http://www.w3.org/1999/xlink" width="22.97216796875" height="15.3369140625" viewBox="0 0 22.97216796875 15.3369140625" fill="none"><g opacity="1"  transform="translate(0 0)  rotate(0)"><path id="Vector (轮廓)" fill-rule="evenodd" style="fill:#E3E3E3" opacity="1" d="M2.23388 14.4167L20.6939 14.4167C21.4039 14.4167 21.9839 13.8367 21.9839 13.1267L21.9839 13.1267C21.9839 12.4167 21.4039 11.8367 20.6939 11.8367L2.23388 11.8367C1.52388 11.8367 0.943878 12.4167 0.943878 13.1267L0.943878 13.1267C0.943878 13.8367 1.52388 14.4167 2.23388 14.4167Z"></path><path id="Vector (轮廓)" fill-rule="evenodd" style="fill:#E3E3E3" opacity="1" d="M0.802204 6.29L0.802204 6.29C1.2722 6.85 2.0622 7.02 2.7222 6.71L11.4822 2.62L20.2522 6.71C20.9122 7.02 21.7022 6.85 22.1722 6.29L22.1722 6.29C22.5722 5.82 22.4122 5.1 21.8522 4.84L11.4822 -8.60818e-07L1.1122 4.84C0.562204 5.1 0.402205 5.82 0.802204 6.29Z"></path></g></svg>