<svg xmlns="http://www.w3.org/2000/svg" xmlns:xlink="http://www.w3.org/1999/xlink" width="22.97216796875" height="15.336761474609375" viewBox="0 0 22.97216796875 15.336761474609375" fill="none"><g opacity="1"  transform="translate(0 0)  rotate(0)"><path id="Vector (轮廓)" fill-rule="evenodd" style="fill:#E3E3E3" opacity="1" d="M20.2783 2.98023e-05L2.73828 3.05176e-05C1.76828 3.05176e-05 0.988281 0.78003 0.988281 1.75003L0.988281 1.75003C0.988281 2.72003 1.76828 3.50003 2.73828 3.50003L20.2783 3.50003C21.2483 3.50003 22.0283 2.72003 22.0283 1.75003L22.0283 1.75003C22.0283 0.78003 21.2483 2.98023e-05 20.2783 2.98023e-05Z"></path><path id="Vector (轮廓)" fill-rule="evenodd" style="fill:#E3E3E3" opacity="1" d="M22.74 6.81676L22.74 6.81676C22.3 6.11676 21.37 5.90676 20.67 6.34676L12.0601 11.7868L3.44006 6.34676C2.74006 5.90676 1.81007 6.11676 1.37007 6.81676L1.37007 6.81676C0.930068 7.51676 1.14007 8.43676 1.84007 8.87676L12.0601 15.3368L22.27 8.88676C22.97 8.44676 23.18 7.51676 22.74 6.81676Z"></path></g></svg>